0
SECTION
2
ENTITIES
0
LINE
8
0
10
227.11363
20
12.0
30
0.0
11
237.70454
21
12.0
31
0.0
0
LINE
8
0
10
237.70454
20
12.0
30
0.0
11
237.70454
21
20.0
31
0.0
0
LINE
8
0
10
237.70454
20
20.0
30
0.0
11
227.11363
21
20.0
31
0.0
0
LINE
8
0
10
227.11363
20
20.0
30
0.0
11
227.11363
21
12.0
31
0.0
0
LINE
8
0
10
227.11363
20
28.0
30
0.0
11
237.70454
21
28.0
31
0.0
0
LINE
8
0
10
237.70454
20
28.0
30
0.0
11
237.70454
21
44.0
31
0.0
0
LINE
8
0
10
237.70454
20
44.0
30
0.0
11
227.11363
21
44.0
31
0.0
0
LINE
8
0
10
227.11363
20
44.0
30
0.0
11
227.11363
21
28.0
31
0.0
0
LINE
8
0
10
248.29546
20
4.0
30
0.0
11
258.88635
21
4.0
31
0.0
0
LINE
8
0
10
258.88635
20
4.0
30
0.0
11
269.47726
21
12.0
31
0.0
0
LINE
8
0
10
269.47726
20
12.0
30
0.0
11
258.88635
21
12.0
31
0.0
0
LINE
8
0
10
258.88635
20
12.0
30
0.0
11
258.88635
21
20.0
31
0.0
0
LINE
8
0
10
258.88635
20
20.0
30
0.0
11
269.47726
21
28.0
31
0.0
0
LINE
8
0
10
269.47726
20
28.0
30
0.0
11
258.88635
21
28.0
31
0.0
0
LINE
8
0
10
258.88635
20
28.0
30
0.0
11
258.88635
21
44.0
31
0.0
0
LINE
8
0
10
258.88635
20
44.0
30
0.0
11
248.29546
21
44.0
31
0.0
0
LINE
8
0
10
248.29546
20
44.0
30
0.0
11
248.29546
21
4.0
31
0.0
0
LINE
8
0
10
280.06815
20
12.0
30
0.0
11
290.6591
21
4.0
31
0.0
0
LINE
8
0
10
290.6591
20
4.0
30
0.0
11
301.24997
21
4.0
31
0.0
0
LINE
8
0
10
301.24997
20
4.0
30
0.0
11
290.6591
21
12.0
31
0.0
0
LINE
8
0
10
290.6591
20
12.0
30
0.0
11
290.6591
21
36.0
31
0.0
0
LINE
8
0
10
290.6591
20
36.0
30
0.0
11
301.24997
21
44.0
31
0.0
0
LINE
8
0
10
301.24997
20
44.0
30
0.0
11
290.6591
21
44.0
31
0.0
0
LINE
8
0
10
290.6591
20
44.0
30
0.0
11
280.06815
21
36.0
31
0.0
0
LINE
8
0
10
280.06815
20
36.0
30
0.0
11
280.06815
21
12.0
31
0.0
0
LINE
8
0
10
311.84088
20
20.0
30
0.0
11
322.4318
21
28.0
31
0.0
0
LINE
8
0
10
322.4318
20
28.0
30
0.0
11
333.0227
21
28.0
31
0.0
0
LINE
8
0
10
333.0227
20
28.0
30
0.0
11
343.61362
21
20.0
31
0.0
0
LINE
8
0
10
343.61362
20
20.0
30
0.0
11
343.61362
21
28.0
31
0.0
0
LINE
8
0
10
343.61362
20
28.0
30
0.0
11
333.0227
21
28.0
31
0.0
0
LINE
8
0
10
333.0227
20
28.0
30
0.0
11
333.0227
21
36.0
31
0.0
0
LINE
8
0
10
333.0227
20
36.0
30
0.0
11
343.61362
21
44.0
31
0.0
0
LINE
8
0
10
343.61362
20
44.0
30
0.0
11
333.0227
21
44.0
31
0.0
0
LINE
8
0
10
333.0227
20
44.0
30
0.0
11
333.0227
21
36.0
31
0.0
0
LINE
8
0
10
333.0227
20
36.0
30
0.0
11
322.4318
21
36.0
31
0.0
0
LINE
8
0
10
322.4318
20
36.0
30
0.0
11
322.4318
21
44.0
31
0.0
0
LINE
8
0
10
322.4318
20
44.0
30
0.0
11
311.84088
21
44.0
31
0.0
0
LINE
8
0
10
311.84088
20
44.0
30
0.0
11
322.4318
21
36.0
31
0.0
0
LINE
8
0
10
322.4318
20
36.0
30
0.0
11
322.4318
21
28.0
31
0.0
0
LINE
8
0
10
322.4318
20
28.0
30
0.0
11
311.84088
21
28.0
31
0.0
0
LINE
8
0
10
311.84088
20
28.0
30
0.0
11
311.84088
21
20.0
31
0.0
0
LINE
8
0
10
354.20453
20
4.0
30
0.0
11
364.79544
21
4.0
31
0.0
0
LINE
8
0
10
364.79544
20
4.0
30
0.0
11
364.79544
21
28.0
31
0.0
0
LINE
8
0
10
364.79544
20
28.0
30
0.0
11
354.20453
21
28.0
31
0.0
0
LINE
8
0
10
354.20453
20
28.0
30
0.0
11
354.20453
21
4.0
31
0.0
0
LINE
8
0
10
354.20453
20
36.0
30
0.0
11
364.79544
21
36.0
31
0.0
0
LINE
8
0
10
364.79544
20
36.0
30
0.0
11
364.79544
21
44.0
31
0.0
0
LINE
8
0
10
364.79544
20
44.0
30
0.0
11
354.20453
21
44.0
31
0.0
0
LINE
8
0
10
354.20453
20
44.0
30
0.0
11
354.20453
21
36.0
31
0.0
0
LINE
8
0
10
375.38632
20
20.0
30
0.0
11
396.56815
21
20.0
31
0.0
0
LINE
8
0
10
396.56815
20
20.0
30
0.0
11
396.56815
21
28.0
31
0.0
0
LINE
8
0
10
396.56815
20
28.0
30
0.0
11
375.38632
21
28.0
31
0.0
0
LINE
8
0
10
375.38632
20
28.0
30
0.0
11
375.38632
21
20.0
31
0.0
0
LINE
8
0
10
375.38632
20
36.0
30
0.0
11
396.56815
21
36.0
31
0.0
0
LINE
8
0
10
396.56815
20
36.0
30
0.0
11
396.56815
21
44.0
31
0.0
0
LINE
8
0
10
396.56815
20
44.0
30
0.0
11
375.38632
21
44.0
31
0.0
0
LINE
8
0
10
375.38632
20
44.0
30
0.0
11
375.38632
21
36.0
31
0.0
0
LINE
8
0
10
417.74997
20
20.0
30
0.0
11
428.34088
21
20.0
31
0.0
0
LINE
8
0
10
428.34088
20
20.0
30
0.0
11
428.34088
21
44.0
31
0.0
0
LINE
8
0
10
428.34088
20
44.0
30
0.0
11
417.74997
21
44.0
31
0.0
0
LINE
8
0
10
417.74997
20
44.0
30
0.0
11
417.74997
21
28.0
31
0.0
0
LINE
8
0
10
417.74997
20
28.0
30
0.0
11
407.1591
21
28.0
31
0.0
0
LINE
8
0
10
407.1591
20
28.0
30
0.0
11
417.74997
21
20.0
31
0.0
0
LINE
8
0
10
116.204544
20
70.0
30
0.0
11
126.795456
21
70.0
31
0.0
0
LINE
8
0
10
126.795456
20
70.0
30
0.0
11
126.795456
21
78.0
31
0.0
0
LINE
8
0
10
126.795456
20
78.0
30
0.0
11
116.204544
21
78.0
31
0.0
0
LINE
8
0
10
116.204544
20
78.0
30
0.0
11
116.204544
21
70.0
31
0.0
0
LINE
8
0
10
116.204544
20
86.0
30
0.0
11
126.795456
21
86.0
31
0.0
0
LINE
8
0
10
126.795456
20
86.0
30
0.0
11
126.795456
21
102.0
31
0.0
0
LINE
8
0
10
126.795456
20
102.0
30
0.0
11
116.204544
21
102.0
31
0.0
0
LINE
8
0
10
116.204544
20
102.0
30
0.0
11
116.204544
21
86.0
31
0.0
0
LINE
8
0
10
137.38637
20
62.0
30
0.0
11
147.97728
21
62.0
31
0.0
0
LINE
8
0
10
147.97728
20
62.0
30
0.0
11
158.56818
21
70.0
31
0.0
0
LINE
8
0
10
158.56818
20
70.0
30
0.0
11
147.97728
21
70.0
31
0.0
0
LINE
8
0
10
147.97728
20
70.0
30
0.0
11
147.97728
21
78.0
31
0.0
0
LINE
8
0
10
147.97728
20
78.0
30
0.0
11
158.56818
21
86.0
31
0.0
0
LINE
8
0
10
158.56818
20
86.0
30
0.0
11
147.97728
21
86.0
31
0.0
0
LINE
8
0
10
147.97728
20
86.0
30
0.0
11
147.97728
21
102.0
31
0.0
0
LINE
8
0
10
147.97728
20
102.0
30
0.0
11
137.38637
21
102.0
31
0.0
0
LINE
8
0
10
137.38637
20
102.0
30
0.0
11
137.38637
21
62.0
31
0.0
0
LINE
8
0
10
169.15909
20
70.0
30
0.0
11
179.75
21
62.0
31
0.0
0
LINE
8
0
10
179.75
20
62.0
30
0.0
11
190.3409
21
62.0
31
0.0
0
LINE
8
0
10
190.3409
20
62.0
30
0.0
11
179.75
21
70.0
31
0.0
0
LINE
8
0
10
179.75
20
70.0
30
0.0
11
179.75
21
94.0
31
0.0
0
LINE
8
0
10
179.75
20
94.0
30
0.0
11
190.3409
21
102.0
31
0.0
0
LINE
8
0
10
190.3409
20
102.0
30
0.0
11
179.75
21
102.0
31
0.0
0
LINE
8
0
10
179.75
20
102.0
30
0.0
11
169.15909
21
94.0
31
0.0
0
LINE
8
0
10
169.15909
20
94.0
30
0.0
11
169.15909
21
70.0
31
0.0
0
LINE
8
0
10
200.93181
20
78.0
30
0.0
11
211.52272
21
86.0
31
0.0
0
LINE
8
0
10
211.52272
20
86.0
30
0.0
11
222.11363
21
86.0
31
0.0
0
LINE
8
0
10
222.11363
20
86.0
30
0.0
11
232.70454
21
78.0
31
0.0
0
LINE
8
0
10
232.70454
20
78.0
30
0.0
11
232.70454
21
86.0
31
0.0
0
LINE
8
0
10
232.70454
20
86.0
30
0.0
11
222.11363
21
86.0
31
0.0
0
LINE
8
0
10
222.11363
20
86.0
30
0.0
11
222.11363
21
94.0
31
0.0
0
LINE
8
0
10
222.11363
20
94.0
30
0.0
11
232.70454
21
102.0
31
0.0
0
LINE
8
0
10
232.70454
20
102.0
30
0.0
11
222.11363
21
102.0
31
0.0
0
LINE
8
0
10
222.11363
20
102.0
30
0.0
11
222.11363
21
94.0
31
0.0
0
LINE
8
0
10
222.11363
20
94.0
30
0.0
11
211.52272
21
94.0
31
0.0
0
LINE
8
0
10
211.52272
20
94.0
30
0.0
11
211.52272
21
102.0
31
0.0
0
LINE
8
0
10
211.52272
20
102.0
30
0.0
11
200.93181
21
102.0
31
0.0
0
LINE
8
0
10
200.93181
20
102.0
30
0.0
11
211.52272
21
94.0
31
0.0
0
LINE
8
0
10
211.52272
20
94.0
30
0.0
11
211.52272
21
86.0
31
0.0
0
LINE
8
0
10
211.52272
20
86.0
30
0.0
11
200.93181
21
86.0
31
0.0
0
LINE
8
0
10
200.93181
20
86.0
30
0.0
11
200.93181
21
78.0
31
0.0
0
LINE
8
0
10
243.29546
20
62.0
30
0.0
11
253.88637
21
62.0
31
0.0
0
LINE
8
0
10
253.88637
20
62.0
30
0.0
11
253.88637
21
86.0
31
0.0
0
LINE
8
0
10
253.88637
20
86.0
30
0.0
11
243.29546
21
86.0
31
0.0
0
LINE
8
0
10
243.29546
20
86.0
30
0.0
11
243.29546
21
62.0
31
0.0
0
LINE
8
0
10
243.29546
20
94.0
30
0.0
11
253.88637
21
94.0
31
0.0
0
LINE
8
0
10
253.88637
20
94.0
30
0.0
11
253.88637
21
102.0
31
0.0
0
LINE
8
0
10
253.88637
20
102.0
30
0.0
11
243.29546
21
102.0
31
0.0
0
LINE
8
0
10
243.29546
20
102.0
30
0.0
11
243.29546
21
94.0
31
0.0
0
LINE
8
0
10
264.47726
20
78.0
30
0.0
11
285.6591
21
78.0
31
0.0
0
LINE
8
0
10
285.6591
20
78.0
30
0.0
11
285.6591
21
86.0
31
0.0
0
LINE
8
0
10
285.6591
20
86.0
30
0.0
11
264.47726
21
86.0
31
0.0
0
LINE
8
0
10
264.47726
20
86.0
30
0.0
11
264.47726
21
78.0
31
0.0
0
LINE
8
0
10
264.47726
20
94.0
30
0.0
11
285.6591
21
94.0
31
0.0
0
LINE
8
0
10
285.6591
20
94.0
30
0.0
11
285.6591
21
102.0
31
0.0
0
LINE
8
0
10
285.6591
20
102.0
30
0.0
11
264.47726
21
102.0
31
0.0
0
LINE
8
0
10
264.47726
20
102.0
30
0.0
11
264.47726
21
94.0
31
0.0
0
LINE
8
0
10
306.8409
20
78.0
30
0.0
11
317.4318
21
78.0
31
0.0
0
LINE
8
0
10
317.4318
20
78.0
30
0.0
11
317.4318
21
102.0
31
0.0
0
LINE
8
0
10
317.4318
20
102.0
30
0.0
11
306.8409
21
102.0
31
0.0
0
LINE
8
0
10
306.8409
20
102.0
30
0.0
11
306.8409
21
86.0
31
0.0
0
LINE
8
0
10
306.8409
20
86.0
30
0.0
11
296.24997
21
86.0
31
0.0
0
LINE
8
0
10
296.24997
20
86.0
30
0.0
11
306.8409
21
78.0
31
0.0
0
LINE
8
0
10
338.0227
20
62.0
30
0.0
11
348.61362
21
62.0
31
0.0
0
LINE
8
0
10
348.61362
20
62.0
30
0.0
11
359.20453
21
70.0
31
0.0
0
LINE
8
0
10
359.20453
20
70.0
30
0.0
11
359.20453
21
78.0
31
0.0
0
LINE
8
0
10
359.20453
20
78.0
30
0.0
11
369.79544
21
86.0
31
0.0
0
LINE
8
0
10
369.79544
20
86.0
30
0.0
11
359.20453
21
86.0
31
0.0
0
LINE
8
0
10
359.20453
20
86.0
30
0.0
11
359.20453
21
94.0
31
0.0
0
LINE
8
0
10
359.20453
20
94.0
30
0.0
11
348.61362
21
102.0
31
0.0
0
LINE
8
0
10
348.61362
20
102.0
30
0.0
11
338.0227
21
102.0
31
0.0
0
LINE
8
0
10
338.0227
20
102.0
30
0.0
11
348.61362
21
94.0
31
0.0
0
LINE
8
0
10
348.61362
20
94.0
30
0.0
11
348.61362
21
70.0
31
0.0
0
LINE
8
0
10
348.61362
20
70.0
30
0.0
11
338.0227
21
62.0
31
0.0
0
LINE
8
0
10
380.38635
20
78.0
30
0.0
11
390.97726
21
86.0
31
0.0
0
LINE
8
0
10
390.97726
20
86.0
30
0.0
11
401.56815
21
86.0
31
0.0
0
LINE
8
0
10
401.56815
20
86.0
30
0.0
11
412.15906
21
78.0
31
0.0
0
LINE
8
0
10
412.15906
20
78.0
30
0.0
11
412.15906
21
86.0
31
0.0
0
LINE
8
0
10
412.15906
20
86.0
30
0.0
11
401.56815
21
86.0
31
0.0
0
LINE
8
0
10
401.56815
20
86.0
30
0.0
11
401.56815
21
94.0
31
0.0
0
LINE
8
0
10
401.56815
20
94.0
30
0.0
11
412.15906
21
102.0
31
0.0
0
LINE
8
0
10
412.15906
20
102.0
30
0.0
11
401.56815
21
102.0
31
0.0
0
LINE
8
0
10
401.56815
20
102.0
30
0.0
11
401.56815
21
94.0
31
0.0
0
LINE
8
0
10
401.56815
20
94.0
30
0.0
11
390.97726
21
94.0
31
0.0
0
LINE
8
0
10
390.97726
20
94.0
30
0.0
11
390.97726
21
102.0
31
0.0
0
LINE
8
0
10
390.97726
20
102.0
30
0.0
11
380.38635
21
102.0
31
0.0
0
LINE
8
0
10
380.38635
20
102.0
30
0.0
11
390.97726
21
94.0
31
0.0
0
LINE
8
0
10
390.97726
20
94.0
30
0.0
11
390.97726
21
86.0
31
0.0
0
LINE
8
0
10
390.97726
20
86.0
30
0.0
11
380.38635
21
86.0
31
0.0
0
LINE
8
0
10
380.38635
20
86.0
30
0.0
11
380.38635
21
78.0
31
0.0
0
LINE
8
0
10
433.34088
20
78.0
30
0.0
11
443.9318
21
78.0
31
0.0
0
LINE
8
0
10
443.9318
20
78.0
30
0.0
11
443.9318
21
86.0
31
0.0
0
LINE
8
0
10
443.9318
20
86.0
30
0.0
11
454.5227
21
94.0
31
0.0
0
LINE
8
0
10
454.5227
20
94.0
30
0.0
11
443.9318
21
94.0
31
0.0
0
LINE
8
0
10
443.9318
20
94.0
30
0.0
11
443.9318
21
102.0
31
0.0
0
LINE
8
0
10
443.9318
20
102.0
30
0.0
11
433.34088
21
102.0
31
0.0
0
LINE
8
0
10
433.34088
20
102.0
30
0.0
11
433.34088
21
94.0
31
0.0
0
LINE
8
0
10
433.34088
20
94.0
30
0.0
11
422.74997
21
94.0
31
0.0
0
LINE
8
0
10
422.74997
20
94.0
30
0.0
11
433.34088
21
86.0
31
0.0
0
LINE
8
0
10
433.34088
20
86.0
30
0.0
11
433.34088
21
78.0
31
0.0
0
LINE
8
0
10
475.70453
20
78.0
30
0.0
11
486.29544
21
78.0
31
0.0
0
LINE
8
0
10
486.29544
20
78.0
30
0.0
11
486.29544
21
102.0
31
0.0
0
LINE
8
0
10
486.29544
20
102.0
30
0.0
11
475.70453
21
102.0
31
0.0
0
LINE
8
0
10
475.70453
20
102.0
30
0.0
11
475.70453
21
86.0
31
0.0
0
LINE
8
0
10
475.70453
20
86.0
30
0.0
11
465.11362
21
86.0
31
0.0
0
LINE
8
0
10
465.11362
20
86.0
30
0.0
11
475.70453
21
78.0
31
0.0
0
LINE
8
0
10
507.47726
20
78.0
30
0.0
11
518.0682
21
78.0
31
0.0
0
LINE
8
0
10
518.0682
20
78.0
30
0.0
11
528.6591
21
86.0
31
0.0
0
LINE
8
0
10
528.6591
20
86.0
30
0.0
11
528.6591
21
94.0
31
0.0
0
LINE
8
0
10
528.6591
20
94.0
30
0.0
11
518.0682
21
102.0
31
0.0
0
LINE
8
0
10
518.0682
20
102.0
30
0.0
11
507.47726
21
102.0
31
0.0
0
LINE
8
0
10
507.47726
20
102.0
30
0.0
11
496.88632
21
94.0
31
0.0
0
LINE
8
0
10
496.88632
20
94.0
30
0.0
11
496.88632
21
86.0
31
0.0
0
LINE
8
0
10
496.88632
20
86.0
30
0.0
11
507.47726
21
78.0
31
0.0
0
LINE
8
0
10
1003.47723
20
62.0
30
0.0
11
1014.0681
21
62.0
31
0.0
0
LINE
8
0
10
1014.0681
20
62.0
30
0.0
11
1024.659
21
70.0
31
0.0
0
LINE
8
0
10
1024.659
20
70.0
30
0.0
11
1014.0681
21
70.0
31
0.0
0
LINE
8
0
10
1014.0681
20
70.0
30
0.0
11
1014.0681
21
78.0
31
0.0
0
LINE
8
0
10
1014.0681
20
78.0
30
0.0
11
1024.659
21
86.0
31
0.0
0
LINE
8
0
10
1024.659
20
86.0
30
0.0
11
1014.0681
21
86.0
31
0.0
0
LINE
8
0
10
1014.0681
20
86.0
30
0.0
11
1014.0681
21
102.0
31
0.0
0
LINE
8
0
10
1014.0681
20
102.0
30
0.0
11
1003.47723
21
102.0
31
0.0
0
LINE
8
0
10
1003.47723
20
102.0
30
0.0
11
1003.47723
21
62.0
31
0.0
0
LINE
8
0
10
1045.8408
20
78.0
30
0.0
11
1056.4318
21
78.0
31
0.0
0
LINE
8
0
10
1056.4318
20
78.0
30
0.0
11
1067.0226
21
86.0
31
0.0
0
LINE
8
0
10
1067.0226
20
86.0
30
0.0
11
1067.0226
21
94.0
31
0.0
0
LINE
8
0
10
1067.0226
20
94.0
30
0.0
11
1056.4318
21
102.0
31
0.0
0
LINE
8
0
10
1056.4318
20
102.0
30
0.0
11
1045.8408
21
102.0
31
0.0
0
LINE
8
0
10
1045.8408
20
102.0
30
0.0
11
1035.2499
21
94.0
31
0.0
0
LINE
8
0
10
1035.2499
20
94.0
30
0.0
11
1035.2499
21
86.0
31
0.0
0
LINE
8
0
10
1035.2499
20
86.0
30
0.0
11
1045.8408
21
78.0
31
0.0
0
LINE
8
0
10
1088.2045
20
78.0
30
0.0
11
1098.7954
21
78.0
31
0.0
0
LINE
8
0
10
1098.7954
20
78.0
30
0.0
11
1109.3862
21
86.0
31
0.0
0
LINE
8
0
10
1109.3862
20
86.0
30
0.0
11
1098.7954
21
86.0
31
0.0
0
LINE
8
0
10
1098.7954
20
86.0
30
0.0
11
1088.2045
21
94.0
31
0.0
0
LINE
8
0
10
1088.2045
20
94.0
30
0.0
11
1088.2045
21
102.0
31
0.0
0
LINE
8
0
10
1088.2045
20
102.0
30
0.0
11
1077.6135
21
102.0
31
0.0
0
LINE
8
0
10
1077.6135
20
102.0
30
0.0
11
1077.6135
21
86.0
31
0.0
0
LINE
8
0
10
1077.6135
20
86.0
30
0.0
11
1088.2045
21
78.0
31
0.0
0
LINE
8
0
10
1119.9772
20
70.0
30
0.0
11
1130.5681
21
62.0
31
0.0
0
LINE
8
0
10
1130.5681
20
62.0
30
0.0
11
1141.1589
21
62.0
31
0.0
0
LINE
8
0
10
1141.1589
20
62.0
30
0.0
11
1130.5681
21
70.0
31
0.0
0
LINE
8
0
10
1130.5681
20
70.0
30
0.0
11
1130.5681
21
94.0
31
0.0
0
LINE
8
0
10
1130.5681
20
94.0
30
0.0
11
1141.1589
21
102.0
31
0.0
0
LINE
8
0
10
1141.1589
20
102.0
30
0.0
11
1130.5681
21
102.0
31
0.0
0
LINE
8
0
10
1130.5681
20
102.0
30
0.0
11
1119.9772
21
94.0
31
0.0
0
LINE
8
0
10
1119.9772
20
94.0
30
0.0
11
1119.9772
21
70.0
31
0.0
0
LINE
8
0
10
1151.7499
20
78.0
30
0.0
11
1162.3408
21
86.0
31
0.0
0
LINE
8
0
10
1162.3408
20
86.0
30
0.0
11
1172.9318
21
86.0
31
0.0
0
LINE
8
0
10
1172.9318
20
86.0
30
0.0
11
1183.5226
21
78.0
31
0.0
0
LINE
8
0
10
1183.5226
20
78.0
30
0.0
11
1183.5226
21
86.0
31
0.0
0
LINE
8
0
10
1183.5226
20
86.0
30
0.0
11
1172.9318
21
86.0
31
0.0
0
LINE
8
0
10
1172.9318
20
86.0
30
0.0
11
1172.9318
21
94.0
31
0.0
0
LINE
8
0
10
1172.9318
20
94.0
30
0.0
11
1183.5226
21
102.0
31
0.0
0
LINE
8
0
10
1183.5226
20
102.0
30
0.0
11
1172.9318
21
102.0
31
0.0
0
LINE
8
0
10
1172.9318
20
102.0
30
0.0
11
1172.9318
21
94.0
31
0.0
0
LINE
8
0
10
1172.9318
20
94.0
30
0.0
11
1162.3408
21
94.0
31
0.0
0
LINE
8
0
10
1162.3408
20
94.0
30
0.0
11
1162.3408
21
102.0
31
0.0
0
LINE
8
0
10
1162.3408
20
102.0
30
0.0
11
1151.7499
21
102.0
31
0.0
0
LINE
8
0
10
1151.7499
20
102.0
30
0.0
11
1162.3408
21
94.0
31
0.0
0
LINE
8
0
10
1162.3408
20
94.0
30
0.0
11
1162.3408
21
86.0
31
0.0
0
LINE
8
0
10
1162.3408
20
86.0
30
0.0
11
1151.7499
21
86.0
31
0.0
0
LINE
8
0
10
1151.7499
20
86.0
30
0.0
11
1151.7499
21
78.0
31
0.0
0
LINE
8
0
10
1194.1135
20
86.0
30
0.0
11
1204.7045
21
86.0
31
0.0
0
LINE
8
0
10
1204.7045
20
86.0
30
0.0
11
1204.7045
21
94.0
31
0.0
0
LINE
8
0
10
1204.7045
20
94.0
30
0.0
11
1194.1135
21
94.0
31
0.0
0
LINE
8
0
10
1194.1135
20
94.0
30
0.0
11
1194.1135
21
86.0
31
0.0
0
LINE
8
0
10
227.11363
20
120.0
30
0.0
11
237.70454
21
120.0
31
0.0
0
LINE
8
0
10
237.70454
20
120.0
30
0.0
11
248.29546
21
128.0
31
0.0
0
LINE
8
0
10
248.29546
20
128.0
30
0.0
11
248.29546
21
136.0
31
0.0
0
LINE
8
0
10
248.29546
20
136.0
30
0.0
11
258.88635
21
144.0
31
0.0
0
LINE
8
0
10
258.88635
20
144.0
30
0.0
11
248.29546
21
144.0
31
0.0
0
LINE
8
0
10
248.29546
20
144.0
30
0.0
11
248.29546
21
152.0
31
0.0
0
LINE
8
0
10
248.29546
20
152.0
30
0.0
11
237.70454
21
160.0
31
0.0
0
LINE
8
0
10
237.70454
20
160.0
30
0.0
11
227.11363
21
160.0
31
0.0
0
LINE
8
0
10
227.11363
20
160.0
30
0.0
11
237.70454
21
152.0
31
0.0
0
LINE
8
0
10
237.70454
20
152.0
30
0.0
11
237.70454
21
128.0
31
0.0
0
LINE
8
0
10
237.70454
20
128.0
30
0.0
11
227.11363
21
120.0
31
0.0
0
LINE
8
0
10
269.47726
20
136.0
30
0.0
11
280.06815
21
144.0
31
0.0
0
LINE
8
0
10
280.06815
20
144.0
30
0.0
11
290.6591
21
144.0
31
0.0
0
LINE
8
0
10
290.6591
20
144.0
30
0.0
11
301.24997
21
136.0
31
0.0
0
LINE
8
0
10
301.24997
20
136.0
30
0.0
11
301.24997
21
144.0
31
0.0
0
LINE
8
0
10
301.24997
20
144.0
30
0.0
11
290.6591
21
144.0
31
0.0
0
LINE
8
0
10
290.6591
20
144.0
30
0.0
11
290.6591
21
152.0
31
0.0
0
LINE
8
0
10
290.6591
20
152.0
30
0.0
11
301.24997
21
160.0
31
0.0
0
LINE
8
0
10
301.24997
20
160.0
30
0.0
11
290.6591
21
160.0
31
0.0
0
LINE
8
0
10
290.6591
20
160.0
30
0.0
11
290.6591
21
152.0
31
0.0
0
LINE
8
0
10
290.6591
20
152.0
30
0.0
11
280.06815
21
152.0
31
0.0
0
LINE
8
0
10
280.06815
20
152.0
30
0.0
11
280.06815
21
160.0
31
0.0
0
LINE
8
0
10
280.06815
20
160.0
30
0.0
11
269.47726
21
160.0
31
0.0
0
LINE
8
0
10
269.47726
20
160.0
30
0.0
11
280.06815
21
152.0
31
0.0
0
LINE
8
0
10
280.06815
20
152.0
30
0.0
11
280.06815
21
144.0
31
0.0
0
LINE
8
0
10
280.06815
20
144.0
30
0.0
11
269.47726
21
144.0
31
0.0
0
LINE
8
0
10
269.47726
20
144.0
30
0.0
11
269.47726
21
136.0
31
0.0
0
LINE
8
0
10
322.4318
20
136.0
30
0.0
11
333.0227
21
136.0
31
0.0
0
LINE
8
0
10
333.0227
20
136.0
30
0.0
11
333.0227
21
144.0
31
0.0
0
LINE
8
0
10
333.0227
20
144.0
30
0.0
11
343.61362
21
152.0
31
0.0
0
LINE
8
0
10
343.61362
20
152.0
30
0.0
11
333.0227
21
152.0
31
0.0
0
LINE
8
0
10
333.0227
20
152.0
30
0.0
11
333.0227
21
160.0
31
0.0
0
LINE
8
0
10
333.0227
20
160.0
30
0.0
11
322.4318
21
160.0
31
0.0
0
LINE
8
0
10
322.4318
20
160.0
30
0.0
11
322.4318
21
152.0
31
0.0
0
LINE
8
0
10
322.4318
20
152.0
30
0.0
11
311.84088
21
152.0
31
0.0
0
LINE
8
0
10
311.84088
20
152.0
30
0.0
11
322.4318
21
144.0
31
0.0
0
LINE
8
0
10
322.4318
20
144.0
30
0.0
11
322.4318
21
136.0
31
0.0
0
LINE
8
0
10
364.79544
20
136.0
30
0.0
11
375.38632
21
136.0
31
0.0
0
LINE
8
0
10
375.38632
20
136.0
30
0.0
11
375.38632
21
160.0
31
0.0
0
LINE
8
0
10
375.38632
20
160.0
30
0.0
11
364.79544
21
160.0
31
0.0
0
LINE
8
0
10
364.79544
20
160.0
30
0.0
11
364.79544
21
144.0
31
0.0
0
LINE
8
0
10
364.79544
20
144.0
30
0.0
11
354.20453
21
144.0
31
0.0
0
LINE
8
0
10
354.20453
20
144.0
30
0.0
11
364.79544
21
136.0
31
0.0
0
LINE
8
0
10
396.56815
20
136.0
30
0.0
11
407.1591
21
136.0
31
0.0
0
LINE
8
0
10
407.1591
20
136.0
30
0.0
11
417.74997
21
144.0
31
0.0
0
LINE
8
0
10
417.74997
20
144.0
30
0.0
11
417.74997
21
152.0
31
0.0
0
LINE
8
0
10
417.74997
20
152.0
30
0.0
11
407.1591
21
160.0
31
0.0
0
LINE
8
0
10
407.1591
20
160.0
30
0.0
11
396.56815
21
160.0
31
0.0
0
LINE
8
0
10
396.56815
20
160.0
30
0.0
11
385.97726
21
152.0
31
0.0
0
LINE
8
0
10
385.97726
20
152.0
30
0.0
11
385.97726
21
144.0
31
0.0
0
LINE
8
0
10
385.97726
20
144.0
30
0.0
11
396.56815
21
136.0
31
0.0
0
LINE
8
0
10
892.5682
20
120.0
30
0.0
11
903.15906
21
120.0
31
0.0
0
LINE
8
0
10
903.15906
20
120.0
30
0.0
11
913.75
21
128.0
31
0.0
0
LINE
8
0
10
913.75
20
128.0
30
0.0
11
903.15906
21
128.0
31
0.0
0
LINE
8
0
10
903.15906
20
128.0
30
0.0
11
903.15906
21
136.0
31
0.0
0
LINE
8
0
10
903.15906
20
136.0
30
0.0
11
913.75
21
144.0
31
0.0
0
LINE
8
0
10
913.75
20
144.0
30
0.0
11
903.15906
21
144.0
31
0.0
0
LINE
8
0
10
903.15906
20
144.0
30
0.0
11
903.15906
21
160.0
31
0.0
0
LINE
8
0
10
903.15906
20
160.0
30
0.0
11
892.5682
21
160.0
31
0.0
0
LINE
8
0
10
892.5682
20
160.0
30
0.0
11
892.5682
21
120.0
31
0.0
0
LINE
8
0
10
934.9318
20
136.0
30
0.0
11
945.5227
21
136.0
31
0.0
0
LINE
8
0
10
945.5227
20
136.0
30
0.0
11
956.11365
21
144.0
31
0.0
0
LINE
8
0
10
956.11365
20
144.0
30
0.0
11
956.11365
21
152.0
31
0.0
0
LINE
8
0
10
956.11365
20
152.0
30
0.0
11
945.5227
21
160.0
31
0.0
0
LINE
8
0
10
945.5227
20
160.0
30
0.0
11
934.9318
21
160.0
31
0.0
0
LINE
8
0
10
934.9318
20
160.0
30
0.0
11
924.3409
21
152.0
31
0.0
0
LINE
8
0
10
924.3409
20
152.0
30
0.0
11
924.3409
21
144.0
31
0.0
0
LINE
8
0
10
924.3409
20
144.0
30
0.0
11
934.9318
21
136.0
31
0.0
0
LINE
8
0
10
977.2955
20
136.0
30
0.0
11
987.88635
21
136.0
31
0.0
0
LINE
8
0
10
987.88635
20
136.0
30
0.0
11
998.47723
21
144.0
31
0.0
0
LINE
8
0
10
998.47723
20
144.0
30
0.0
11
987.88635
21
144.0
31
0.0
0
LINE
8
0
10
987.88635
20
144.0
30
0.0
11
977.2955
21
152.0
31
0.0
0
LINE
8
0
10
977.2955
20
152.0
30
0.0
11
977.2955
21
160.0
31
0.0
0
LINE
8
0
10
977.2955
20
160.0
30
0.0
11
966.7045
21
160.0
31
0.0
0
LINE
8
0
10
966.7045
20
160.0
30
0.0
11
966.7045
21
144.0
31
0.0
0
LINE
8
0
10
966.7045
20
144.0
30
0.0
11
977.2955
21
136.0
31
0.0
0
LINE
8
0
10
1009.0682
20
128.0
30
0.0
11
1019.6591
21
120.0
31
0.0
0
LINE
8
0
10
1019.6591
20
120.0
30
0.0
11
1030.25
21
120.0
31
0.0
0
LINE
8
0
10
1030.25
20
120.0
30
0.0
11
1019.6591
21
128.0
31
0.0
0
LINE
8
0
10
1019.6591
20
128.0
30
0.0
11
1019.6591
21
152.0
31
0.0
0
LINE
8
0
10
1019.6591
20
152.0
30
0.0
11
1030.25
21
160.0
31
0.0
0
LINE
8
0
10
1030.25
20
160.0
30
0.0
11
1019.6591
21
160.0
31
0.0
0
LINE
8
0
10
1019.6591
20
160.0
30
0.0
11
1009.0682
21
152.0
31
0.0
0
LINE
8
0
10
1009.0682
20
152.0
30
0.0
11
1009.0682
21
128.0
31
0.0
0
LINE
8
0
10
1040.8408
20
136.0
30
0.0
11
1051.4318
21
144.0
31
0.0
0
LINE
8
0
10
1051.4318
20
144.0
30
0.0
11
1062.0227
21
144.0
31
0.0
0
LINE
8
0
10
1062.0227
20
144.0
30
0.0
11
1072.6135
21
136.0
31
0.0
0
LINE
8
0
10
1072.6135
20
136.0
30
0.0
11
1072.6135
21
144.0
31
0.0
0
LINE
8
0
10
1072.6135
20
144.0
30
0.0
11
1062.0227
21
144.0
31
0.0
0
LINE
8
0
10
1062.0227
20
144.0
30
0.0
11
1062.0227
21
152.0
31
0.0
0
LINE
8
0
10
1062.0227
20
152.0
30
0.0
11
1072.6135
21
160.0
31
0.0
0
LINE
8
0
10
1072.6135
20
160.0
30
0.0
11
1062.0227
21
160.0
31
0.0
0
LINE
8
0
10
1062.0227
20
160.0
30
0.0
11
1062.0227
21
152.0
31
0.0
0
LINE
8
0
10
1062.0227
20
152.0
30
0.0
11
1051.4318
21
152.0
31
0.0
0
LINE
8
0
10
1051.4318
20
152.0
30
0.0
11
1051.4318
21
160.0
31
0.0
0
LINE
8
0
10
1051.4318
20
160.0
30
0.0
11
1040.8408
21
160.0
31
0.0
0
LINE
8
0
10
1040.8408
20
160.0
30
0.0
11
1051.4318
21
152.0
31
0.0
0
LINE
8
0
10
1051.4318
20
152.0
30
0.0
11
1051.4318
21
144.0
31
0.0
0
LINE
8
0
10
1051.4318
20
144.0
30
0.0
11
1040.8408
21
144.0
31
0.0
0
LINE
8
0
10
1040.8408
20
144.0
30
0.0
11
1040.8408
21
136.0
31
0.0
0
LINE
8
0
10
1083.2045
20
144.0
30
0.0
11
1093.7954
21
144.0
31
0.0
0
LINE
8
0
10
1093.7954
20
144.0
30
0.0
11
1093.7954
21
152.0
31
0.0
0
LINE
8
0
10
1093.7954
20
152.0
30
0.0
11
1083.2045
21
152.0
31
0.0
0
LINE
8
0
10
1083.2045
20
152.0
30
0.0
11
1083.2045
21
144.0
31
0.0
0
LINE
8
0
10
338.0227
20
178.0
30
0.0
11
348.61362
21
178.0
31
0.0
0
LINE
8
0
10
348.61362
20
178.0
30
0.0
11
359.20453
21
186.0
31
0.0
0
LINE
8
0
10
359.20453
20
186.0
30
0.0
11
348.61362
21
186.0
31
0.0
0
LINE
8
0
10
348.61362
20
186.0
30
0.0
11
348.61362
21
194.0
31
0.0
0
LINE
8
0
10
348.61362
20
194.0
30
0.0
11
359.20453
21
202.0
31
0.0
0
LINE
8
0
10
359.20453
20
202.0
30
0.0
11
348.61362
21
202.0
31
0.0
0
LINE
8
0
10
348.61362
20
202.0
30
0.0
11
348.61362
21
218.0
31
0.0
0
LINE
8
0
10
348.61362
20
218.0
30
0.0
11
338.0227
21
218.0
31
0.0
0
LINE
8
0
10
338.0227
20
218.0
30
0.0
11
338.0227
21
178.0
31
0.0
0
LINE
8
0
10
380.38635
20
194.0
30
0.0
11
390.97726
21
194.0
31
0.0
0
LINE
8
0
10
390.97726
20
194.0
30
0.0
11
401.56815
21
202.0
31
0.0
0
LINE
8
0
10
401.56815
20
202.0
30
0.0
11
401.56815
21
210.0
31
0.0
0
LINE
8
0
10
401.56815
20
210.0
30
0.0
11
390.97726
21
218.0
31
0.0
0
LINE
8
0
10
390.97726
20
218.0
30
0.0
11
380.38635
21
218.0
31
0.0
0
LINE
8
0
10
380.38635
20
218.0
30
0.0
11
369.79544
21
210.0
31
0.0
0
LINE
8
0
10
369.79544
20
210.0
30
0.0
11
369.79544
21
202.0
31
0.0
0
LINE
8
0
10
369.79544
20
202.0
30
0.0
11
380.38635
21
194.0
31
0.0
0
LINE
8
0
10
422.74997
20
194.0
30
0.0
11
433.34088
21
194.0
31
0.0
0
LINE
8
0
10
433.34088
20
194.0
30
0.0
11
443.9318
21
202.0
31
0.0
0
LINE
8
0
10
443.9318
20
202.0
30
0.0
11
433.34088
21
202.0
31
0.0
0
LINE
8
0
10
433.34088
20
202.0
30
0.0
11
422.74997
21
210.0
31
0.0
0
LINE
8
0
10
422.74997
20
210.0
30
0.0
11
422.74997
21
218.0
31
0.0
0
LINE
8
0
10
422.74997
20
218.0
30
0.0
11
412.15906
21
218.0
31
0.0
0
LINE
8
0
10
412.15906
20
218.0
30
0.0
11
412.15906
21
202.0
31
0.0
0
LINE
8
0
10
412.15906
20
202.0
30
0.0
11
422.74997
21
194.0
31
0.0
0
LINE
8
0
10
454.5227
20
186.0
30
0.0
11
465.11362
21
178.0
31
0.0
0
LINE
8
0
10
465.11362
20
178.0
30
0.0
11
475.70453
21
178.0
31
0.0
0
LINE
8
0
10
475.70453
20
178.0
30
0.0
11
465.11362
21
186.0
31
0.0
0
LINE
8
0
10
465.11362
20
186.0
30
0.0
11
465.11362
21
210.0
31
0.0
0
LINE
8
0
10
465.11362
20
210.0
30
0.0
11
475.70453
21
218.0
31
0.0
0
LINE
8
0
10
475.70453
20
218.0
30
0.0
11
465.11362
21
218.0
31
0.0
0
LINE
8
0
10
465.11362
20
218.0
30
0.0
11
454.5227
21
210.0
31
0.0
0
LINE
8
0
10
454.5227
20
210.0
30
0.0
11
454.5227
21
186.0
31
0.0
0
LINE
8
0
10
486.29544
20
194.0
30
0.0
11
496.88632
21
202.0
31
0.0
0
LINE
8
0
10
496.88632
20
202.0
30
0.0
11
507.47726
21
202.0
31
0.0
0
LINE
8
0
10
507.47726
20
202.0
30
0.0
11
518.0682
21
194.0
31
0.0
0
LINE
8
0
10
518.0682
20
194.0
30
0.0
11
518.0682
21
202.0
31
0.0
0
LINE
8
0
10
518.0682
20
202.0
30
0.0
11
507.47726
21
202.0
31
0.0
0
LINE
8
0
10
507.47726
20
202.0
30
0.0
11
507.47726
21
210.0
31
0.0
0
LINE
8
0
10
507.47726
20
210.0
30
0.0
11
518.0682
21
218.0
31
0.0
0
LINE
8
0
10
518.0682
20
218.0
30
0.0
11
507.47726
21
218.0
31
0.0
0
LINE
8
0
10
507.47726
20
218.0
30
0.0
11
507.47726
21
210.0
31
0.0
0
LINE
8
0
10
507.47726
20
210.0
30
0.0
11
496.88632
21
210.0
31
0.0
0
LINE
8
0
10
496.88632
20
210.0
30
0.0
11
496.88632
21
218.0
31
0.0
0
LINE
8
0
10
496.88632
20
218.0
30
0.0
11
486.29544
21
218.0
31
0.0
0
LINE
8
0
10
486.29544
20
218.0
30
0.0
11
496.88632
21
210.0
31
0.0
0
LINE
8
0
10
496.88632
20
210.0
30
0.0
11
496.88632
21
202.0
31
0.0
0
LINE
8
0
10
496.88632
20
202.0
30
0.0
11
486.29544
21
202.0
31
0.0
0
LINE
8
0
10
486.29544
20
202.0
30
0.0
11
486.29544
21
194.0
31
0.0
0
LINE
8
0
10
528.6591
20
202.0
30
0.0
11
539.25
21
202.0
31
0.0
0
LINE
8
0
10
539.25
20
202.0
30
0.0
11
539.25
21
210.0
31
0.0
0
LINE
8
0
10
539.25
20
210.0
30
0.0
11
528.6591
21
210.0
31
0.0
0
LINE
8
0
10
528.6591
20
210.0
30
0.0
11
528.6591
21
202.0
31
0.0
0
LINE
8
0
10
781.6591
20
186.0
30
0.0
11
792.25
21
186.0
31
0.0
0
LINE
8
0
10
792.25
20
186.0
30
0.0
11
792.25
21
194.0
31
0.0
0
LINE
8
0
10
792.25
20
194.0
30
0.0
11
781.6591
21
194.0
31
0.0
0
LINE
8
0
10
781.6591
20
194.0
30
0.0
11
781.6591
21
186.0
31
0.0
0
LINE
8
0
10
781.6591
20
202.0
30
0.0
11
792.25
21
202.0
31
0.0
0
LINE
8
0
10
792.25
20
202.0
30
0.0
11
792.25
21
218.0
31
0.0
0
LINE
8
0
10
792.25
20
218.0
30
0.0
11
781.6591
21
218.0
31
0.0
0
LINE
8
0
10
781.6591
20
218.0
30
0.0
11
781.6591
21
202.0
31
0.0
0
LINE
8
0
10
802.84094
20
178.0
30
0.0
11
813.4318
21
178.0
31
0.0
0
LINE
8
0
10
813.4318
20
178.0
30
0.0
11
824.02277
21
186.0
31
0.0
0
LINE
8
0
10
824.02277
20
186.0
30
0.0
11
813.4318
21
186.0
31
0.0
0
LINE
8
0
10
813.4318
20
186.0
30
0.0
11
813.4318
21
194.0
31
0.0
0
LINE
8
0
10
813.4318
20
194.0
30
0.0
11
824.02277
21
202.0
31
0.0
0
LINE
8
0
10
824.02277
20
202.0
30
0.0
11
813.4318
21
202.0
31
0.0
0
LINE
8
0
10
813.4318
20
202.0
30
0.0
11
813.4318
21
218.0
31
0.0
0
LINE
8
0
10
813.4318
20
218.0
30
0.0
11
802.84094
21
218.0
31
0.0
0
LINE
8
0
10
802.84094
20
218.0
30
0.0
11
802.84094
21
178.0
31
0.0
0
LINE
8
0
10
834.61365
20
186.0
30
0.0
11
845.2046
21
178.0
31
0.0
0
LINE
8
0
10
845.2046
20
178.0
30
0.0
11
855.7955
21
178.0
31
0.0
0
LINE
8
0
10
855.7955
20
178.0
30
0.0
11
845.2046
21
186.0
31
0.0
0
LINE
8
0
10
845.2046
20
186.0
30
0.0
11
845.2046
21
210.0
31
0.0
0
LINE
8
0
10
845.2046
20
210.0
30
0.0
11
855.7955
21
218.0
31
0.0
0
LINE
8
0
10
855.7955
20
218.0
30
0.0
11
845.2046
21
218.0
31
0.0
0
LINE
8
0
10
845.2046
20
218.0
30
0.0
11
834.61365
21
210.0
31
0.0
0
LINE
8
0
10
834.61365
20
210.0
30
0.0
11
834.61365
21
186.0
31
0.0
0
LINE
8
0
10
866.3864
20
194.0
30
0.0
11
876.9773
21
202.0
31
0.0
0
LINE
8
0
10
876.9773
20
202.0
30
0.0
11
887.5682
21
202.0
31
0.0
0
LINE
8
0
10
887.5682
20
202.0
30
0.0
11
898.1591
21
194.0
31
0.0
0
LINE
8
0
10
898.1591
20
194.0
30
0.0
11
898.1591
21
202.0
31
0.0
0
LINE
8
0
10
898.1591
20
202.0
30
0.0
11
887.5682
21
202.0
31
0.0
0
LINE
8
0
10
887.5682
20
202.0
30
0.0
11
887.5682
21
210.0
31
0.0
0
LINE
8
0
10
887.5682
20
210.0
30
0.0
11
898.1591
21
218.0
31
0.0
0
LINE
8
0
10
898.1591
20
218.0
30
0.0
11
887.5682
21
218.0
31
0.0
0
LINE
8
0
10
887.5682
20
218.0
30
0.0
11
887.5682
21
210.0
31
0.0
0
LINE
8
0
10
887.5682
20
210.0
30
0.0
11
876.9773
21
210.0
31
0.0
0
LINE
8
0
10
876.9773
20
210.0
30
0.0
11
876.9773
21
218.0
31
0.0
0
LINE
8
0
10
876.9773
20
218.0
30
0.0
11
866.3864
21
218.0
31
0.0
0
LINE
8
0
10
866.3864
20
218.0
30
0.0
11
876.9773
21
210.0
31
0.0
0
LINE
8
0
10
876.9773
20
210.0
30
0.0
11
876.9773
21
202.0
31
0.0
0
LINE
8
0
10
876.9773
20
202.0
30
0.0
11
866.3864
21
202.0
31
0.0
0
LINE
8
0
10
866.3864
20
202.0
30
0.0
11
866.3864
21
194.0
31
0.0
0
LINE
8
0
10
908.75006
20
178.0
30
0.0
11
919.34094
21
178.0
31
0.0
0
LINE
8
0
10
919.34094
20
178.0
30
0.0
11
919.34094
21
202.0
31
0.0
0
LINE
8
0
10
919.34094
20
202.0
30
0.0
11
908.75006
21
202.0
31
0.0
0
LINE
8
0
10
908.75006
20
202.0
30
0.0
11
908.75006
21
178.0
31
0.0
0
LINE
8
0
10
908.75006
20
210.0
30
0.0
11
919.34094
21
210.0
31
0.0
0
LINE
8
0
10
919.34094
20
210.0
30
0.0
11
919.34094
21
218.0
31
0.0
0
LINE
8
0
10
919.34094
20
218.0
30
0.0
11
908.75006
21
218.0
31
0.0
0
LINE
8
0
10
908.75006
20
218.0
30
0.0
11
908.75006
21
210.0
31
0.0
0
LINE
8
0
10
929.9318
20
194.0
30
0.0
11
951.11365
21
194.0
31
0.0
0
LINE
8
0
10
951.11365
20
194.0
30
0.0
11
951.11365
21
202.0
31
0.0
0
LINE
8
0
10
951.11365
20
202.0
30
0.0
11
929.9318
21
202.0
31
0.0
0
LINE
8
0
10
929.9318
20
202.0
30
0.0
11
929.9318
21
194.0
31
0.0
0
LINE
8
0
10
929.9318
20
210.0
30
0.0
11
951.11365
21
210.0
31
0.0
0
LINE
8
0
10
951.11365
20
210.0
30
0.0
11
951.11365
21
218.0
31
0.0
0
LINE
8
0
10
951.11365
20
218.0
30
0.0
11
929.9318
21
218.0
31
0.0
0
LINE
8
0
10
929.9318
20
218.0
30
0.0
11
929.9318
21
210.0
31
0.0
0
LINE
8
0
10
972.2955
20
194.0
30
0.0
11
982.8864
21
194.0
31
0.0
0
LINE
8
0
10
982.8864
20
194.0
30
0.0
11
982.8864
21
218.0
31
0.0
0
LINE
8
0
10
982.8864
20
218.0
30
0.0
11
972.2955
21
218.0
31
0.0
0
LINE
8
0
10
972.2955
20
218.0
30
0.0
11
972.2955
21
202.0
31
0.0
0
LINE
8
0
10
972.2955
20
202.0
30
0.0
11
961.7046
21
202.0
31
0.0
0
LINE
8
0
10
961.7046
20
202.0
30
0.0
11
972.2955
21
194.0
31
0.0
0
LINE
8
0
10
1003.47723
20
186.0
30
0.0
11
1014.0681
21
186.0
31
0.0
0
LINE
8
0
10
1014.0681
20
186.0
30
0.0
11
1014.0681
21
194.0
31
0.0
0
LINE
8
0
10
1014.0681
20
194.0
30
0.0
11
1003.47723
21
194.0
31
0.0
0
LINE
8
0
10
1003.47723
20
194.0
30
0.0
11
1003.47723
21
186.0
31
0.0
0
LINE
8
0
10
1003.47723
20
202.0
30
0.0
11
1014.0681
21
202.0
31
0.0
0
LINE
8
0
10
1014.0681
20
202.0
30
0.0
11
1014.0681
21
218.0
31
0.0
0
LINE
8
0
10
1014.0681
20
218.0
30
0.0
11
1003.47723
21
218.0
31
0.0
0
LINE
8
0
10
1003.47723
20
218.0
30
0.0
11
1003.47723
21
202.0
31
0.0
0
LINE
8
0
10
1024.659
20
178.0
30
0.0
11
1035.2499
21
178.0
31
0.0
0
LINE
8
0
10
1035.2499
20
178.0
30
0.0
11
1045.8408
21
186.0
31
0.0
0
LINE
8
0
10
1045.8408
20
186.0
30
0.0
11
1035.2499
21
186.0
31
0.0
0
LINE
8
0
10
1035.2499
20
186.0
30
0.0
11
1035.2499
21
194.0
31
0.0
0
LINE
8
0
10
1035.2499
20
194.0
30
0.0
11
1045.8408
21
202.0
31
0.0
0
LINE
8
0
10
1045.8408
20
202.0
30
0.0
11
1035.2499
21
202.0
31
0.0
0
LINE
8
0
10
1035.2499
20
202.0
30
0.0
11
1035.2499
21
218.0
31
0.0
0
LINE
8
0
10
1035.2499
20
218.0
30
0.0
11
1024.659
21
218.0
31
0.0
0
LINE
8
0
10
1024.659
20
218.0
30
0.0
11
1024.659
21
178.0
31
0.0
0
LINE
8
0
10
1056.4318
20
186.0
30
0.0
11
1067.0226
21
178.0
31
0.0
0
LINE
8
0
10
1067.0226
20
178.0
30
0.0
11
1077.6135
21
178.0
31
0.0
0
LINE
8
0
10
1077.6135
20
178.0
30
0.0
11
1067.0226
21
186.0
31
0.0
0
LINE
8
0
10
1067.0226
20
186.0
30
0.0
11
1067.0226
21
210.0
31
0.0
0
LINE
8
0
10
1067.0226
20
210.0
30
0.0
11
1077.6135
21
218.0
31
0.0
0
LINE
8
0
10
1077.6135
20
218.0
30
0.0
11
1067.0226
21
218.0
31
0.0
0
LINE
8
0
10
1067.0226
20
218.0
30
0.0
11
1056.4318
21
210.0
31
0.0
0
LINE
8
0
10
1056.4318
20
210.0
30
0.0
11
1056.4318
21
186.0
31
0.0
0
LINE
8
0
10
1088.2045
20
194.0
30
0.0
11
1098.7954
21
202.0
31
0.0
0
LINE
8
0
10
1098.7954
20
202.0
30
0.0
11
1109.3862
21
202.0
31
0.0
0
LINE
8
0
10
1109.3862
20
202.0
30
0.0
11
1119.9772
21
194.0
31
0.0
0
LINE
8
0
10
1119.9772
20
194.0
30
0.0
11
1119.9772
21
202.0
31
0.0
0
LINE
8
0
10
1119.9772
20
202.0
30
0.0
11
1109.3862
21
202.0
31
0.0
0
LINE
8
0
10
1109.3862
20
202.0
30
0.0
11
1109.3862
21
210.0
31
0.0
0
LINE
8
0
10
1109.3862
20
210.0
30
0.0
11
1119.9772
21
218.0
31
0.0
0
LINE
8
0
10
1119.9772
20
218.0
30
0.0
11
1109.3862
21
218.0
31
0.0
0
LINE
8
0
10
1109.3862
20
218.0
30
0.0
11
1109.3862
21
210.0
31
0.0
0
LINE
8
0
10
1109.3862
20
210.0
30
0.0
11
1098.7954
21
210.0
31
0.0
0
LINE
8
0
10
1098.7954
20
210.0
30
0.0
11
1098.7954
21
218.0
31
0.0
0
LINE
8
0
10
1098.7954
20
218.0
30
0.0
11
1088.2045
21
218.0
31
0.0
0
LINE
8
0
10
1088.2045
20
218.0
30
0.0
11
1098.7954
21
210.0
31
0.0
0
LINE
8
0
10
1098.7954
20
210.0
30
0.0
11
1098.7954
21
202.0
31
0.0
0
LINE
8
0
10
1098.7954
20
202.0
30
0.0
11
1088.2045
21
202.0
31
0.0
0
LINE
8
0
10
1088.2045
20
202.0
30
0.0
11
1088.2045
21
194.0
31
0.0
0
LINE
8
0
10
1130.5681
20
178.0
30
0.0
11
1141.1589
21
178.0
31
0.0
0
LINE
8
0
10
1141.1589
20
178.0
30
0.0
11
1141.1589
21
202.0
31
0.0
0
LINE
8
0
10
1141.1589
20
202.0
30
0.0
11
1130.5681
21
202.0
31
0.0
0
LINE
8
0
10
1130.5681
20
202.0
30
0.0
11
1130.5681
21
178.0
31
0.0
0
LINE
8
0
10
1130.5681
20
210.0
30
0.0
11
1141.1589
21
210.0
31
0.0
0
LINE
8
0
10
1141.1589
20
210.0
30
0.0
11
1141.1589
21
218.0
31
0.0
0
LINE
8
0
10
1141.1589
20
218.0
30
0.0
11
1130.5681
21
218.0
31
0.0
0
LINE
8
0
10
1130.5681
20
218.0
30
0.0
11
1130.5681
21
210.0
31
0.0
0
LINE
8
0
10
1151.7499
20
194.0
30
0.0
11
1172.9318
21
194.0
31
0.0
0
LINE
8
0
10
1172.9318
20
194.0
30
0.0
11
1172.9318
21
202.0
31
0.0
0
LINE
8
0
10
1172.9318
20
202.0
30
0.0
11
1151.7499
21
202.0
31
0.0
0
LINE
8
0
10
1151.7499
20
202.0
30
0.0
11
1151.7499
21
194.0
31
0.0
0
LINE
8
0
10
1151.7499
20
210.0
30
0.0
11
1172.9318
21
210.0
31
0.0
0
LINE
8
0
10
1172.9318
20
210.0
30
0.0
11
1172.9318
21
218.0
31
0.0
0
LINE
8
0
10
1172.9318
20
218.0
30
0.0
11
1151.7499
21
218.0
31
0.0
0
LINE
8
0
10
1151.7499
20
218.0
30
0.0
11
1151.7499
21
210.0
31
0.0
0
LINE
8
0
10
1194.1135
20
194.0
30
0.0
11
1204.7045
21
194.0
31
0.0
0
LINE
8
0
10
1204.7045
20
194.0
30
0.0
11
1204.7045
21
218.0
31
0.0
0
LINE
8
0
10
1204.7045
20
218.0
30
0.0
11
1194.1135
21
218.0
31
0.0
0
LINE
8
0
10
1194.1135
20
218.0
30
0.0
11
1194.1135
21
202.0
31
0.0
0
LINE
8
0
10
1194.1135
20
202.0
30
0.0
11
1183.5226
21
202.0
31
0.0
0
LINE
8
0
10
1183.5226
20
202.0
30
0.0
11
1194.1135
21
194.0
31
0.0
0
LINE
8
0
10
227.11363
20
236.0
30
0.0
11
237.70454
21
236.0
31
0.0
0
LINE
8
0
10
237.70454
20
236.0
30
0.0
11
248.29546
21
244.0
31
0.0
0
LINE
8
0
10
248.29546
20
244.0
30
0.0
11
248.29546
21
252.0
31
0.0
0
LINE
8
0
10
248.29546
20
252.0
30
0.0
11
258.88635
21
260.0
31
0.0
0
LINE
8
0
10
258.88635
20
260.0
30
0.0
11
248.29546
21
260.0
31
0.0
0
LINE
8
0
10
248.29546
20
260.0
30
0.0
11
248.29546
21
268.0
31
0.0
0
LINE
8
0
10
248.29546
20
268.0
30
0.0
11
237.70454
21
276.0
31
0.0
0
LINE
8
0
10
237.70454
20
276.0
30
0.0
11
227.11363
21
276.0
31
0.0
0
LINE
8
0
10
227.11363
20
276.0
30
0.0
11
237.70454
21
268.0
31
0.0
0
LINE
8
0
10
237.70454
20
268.0
30
0.0
11
237.70454
21
244.0
31
0.0
0
LINE
8
0
10
237.70454
20
244.0
30
0.0
11
227.11363
21
236.0
31
0.0
0
LINE
8
0
10
269.47726
20
252.0
30
0.0
11
280.06815
21
260.0
31
0.0
0
LINE
8
0
10
280.06815
20
260.0
30
0.0
11
290.6591
21
260.0
31
0.0
0
LINE
8
0
10
290.6591
20
260.0
30
0.0
11
301.24997
21
252.0
31
0.0
0
LINE
8
0
10
301.24997
20
252.0
30
0.0
11
301.24997
21
260.0
31
0.0
0
LINE
8
0
10
301.24997
20
260.0
30
0.0
11
290.6591
21
260.0
31
0.0
0
LINE
8
0
10
290.6591
20
260.0
30
0.0
11
290.6591
21
268.0
31
0.0
0
LINE
8
0
10
290.6591
20
268.0
30
0.0
11
301.24997
21
276.0
31
0.0
0
LINE
8
0
10
301.24997
20
276.0
30
0.0
11
290.6591
21
276.0
31
0.0
0
LINE
8
0
10
290.6591
20
276.0
30
0.0
11
290.6591
21
268.0
31
0.0
0
LINE
8
0
10
290.6591
20
268.0
30
0.0
11
280.06815
21
268.0
31
0.0
0
LINE
8
0
10
280.06815
20
268.0
30
0.0
11
280.06815
21
276.0
31
0.0
0
LINE
8
0
10
280.06815
20
276.0
30
0.0
11
269.47726
21
276.0
31
0.0
0
LINE
8
0
10
269.47726
20
276.0
30
0.0
11
280.06815
21
268.0
31
0.0
0
LINE
8
0
10
280.06815
20
268.0
30
0.0
11
280.06815
21
260.0
31
0.0
0
LINE
8
0
10
280.06815
20
260.0
30
0.0
11
269.47726
21
260.0
31
0.0
0
LINE
8
0
10
269.47726
20
260.0
30
0.0
11
269.47726
21
252.0
31
0.0
0
LINE
8
0
10
322.4318
20
252.0
30
0.0
11
333.0227
21
252.0
31
0.0
0
LINE
8
0
10
333.0227
20
252.0
30
0.0
11
333.0227
21
260.0
31
0.0
0
LINE
8
0
10
333.0227
20
260.0
30
0.0
11
343.61362
21
268.0
31
0.0
0
LINE
8
0
10
343.61362
20
268.0
30
0.0
11
333.0227
21
268.0
31
0.0
0
LINE
8
0
10
333.0227
20
268.0
30
0.0
11
333.0227
21
276.0
31
0.0
0
LINE
8
0
10
333.0227
20
276.0
30
0.0
11
322.4318
21
276.0
31
0.0
0
LINE
8
0
10
322.4318
20
276.0
30
0.0
11
322.4318
21
268.0
31
0.0
0
LINE
8
0
10
322.4318
20
268.0
30
0.0
11
311.84088
21
268.0
31
0.0
0
LINE
8
0
10
311.84088
20
268.0
30
0.0
11
322.4318
21
260.0
31
0.0
0
LINE
8
0
10
322.4318
20
260.0
30
0.0
11
322.4318
21
252.0
31
0.0
0
LINE
8
0
10
364.79544
20
252.0
30
0.0
11
375.38632
21
252.0
31
0.0
0
LINE
8
0
10
375.38632
20
252.0
30
0.0
11
375.38632
21
276.0
31
0.0
0
LINE
8
0
10
375.38632
20
276.0
30
0.0
11
364.79544
21
276.0
31
0.0
0
LINE
8
0
10
364.79544
20
276.0
30
0.0
11
364.79544
21
260.0
31
0.0
0
LINE
8
0
10
364.79544
20
260.0
30
0.0
11
354.20453
21
260.0
31
0.0
0
LINE
8
0
10
354.20453
20
260.0
30
0.0
11
364.79544
21
252.0
31
0.0
0
LINE
8
0
10
396.56815
20
252.0
30
0.0
11
407.1591
21
252.0
31
0.0
0
LINE
8
0
10
407.1591
20
252.0
30
0.0
11
417.74997
21
260.0
31
0.0
0
LINE
8
0
10
417.74997
20
260.0
30
0.0
11
417.74997
21
268.0
31
0.0
0
LINE
8
0
10
417.74997
20
268.0
30
0.0
11
407.1591
21
276.0
31
0.0
0
LINE
8
0
10
407.1591
20
276.0
30
0.0
11
396.56815
21
276.0
31
0.0
0
LINE
8
0
10
396.56815
20
276.0
30
0.0
11
385.97726
21
268.0
31
0.0
0
LINE
8
0
10
385.97726
20
268.0
30
0.0
11
385.97726
21
260.0
31
0.0
0
LINE
8
0
10
385.97726
20
260.0
30
0.0
11
396.56815
21
252.0
31
0.0
0
LINE
8
0
10
670.75
20
236.0
30
0.0
11
681.3409
21
236.0
31
0.0
0
LINE
8
0
10
681.3409
20
236.0
30
0.0
11
691.9318
21
244.0
31
0.0
0
LINE
8
0
10
691.9318
20
244.0
30
0.0
11
691.9318
21
252.0
31
0.0
0
LINE
8
0
10
691.9318
20
252.0
30
0.0
11
702.5227
21
260.0
31
0.0
0
LINE
8
0
10
702.5227
20
260.0
30
0.0
11
691.9318
21
260.0
31
0.0
0
LINE
8
0
10
691.9318
20
260.0
30
0.0
11
691.9318
21
268.0
31
0.0
0
LINE
8
0
10
691.9318
20
268.0
30
0.0
11
681.3409
21
276.0
31
0.0
0
LINE
8
0
10
681.3409
20
276.0
30
0.0
11
670.75
21
276.0
31
0.0
0
LINE
8
0
10
670.75
20
276.0
30
0.0
11
681.3409
21
268.0
31
0.0
0
LINE
8
0
10
681.3409
20
268.0
30
0.0
11
681.3409
21
244.0
31
0.0
0
LINE
8
0
10
681.3409
20
244.0
30
0.0
11
670.75
21
236.0
31
0.0
0
LINE
8
0
10
713.11365
20
252.0
30
0.0
11
723.7045
21
260.0
31
0.0
0
LINE
8
0
10
723.7045
20
260.0
30
0.0
11
734.2955
21
260.0
31
0.0
0
LINE
8
0
10
734.2955
20
260.0
30
0.0
11
744.88635
21
252.0
31
0.0
0
LINE
8
0
10
744.88635
20
252.0
30
0.0
11
744.88635
21
260.0
31
0.0
0
LINE
8
0
10
744.88635
20
260.0
30
0.0
11
734.2955
21
260.0
31
0.0
0
LINE
8
0
10
734.2955
20
260.0
30
0.0
11
734.2955
21
268.0
31
0.0
0
LINE
8
0
10
734.2955
20
268.0
30
0.0
11
744.88635
21
276.0
31
0.0
0
LINE
8
0
10
744.88635
20
276.0
30
0.0
11
734.2955
21
276.0
31
0.0
0
LINE
8
0
10
734.2955
20
276.0
30
0.0
11
734.2955
21
268.0
31
0.0
0
LINE
8
0
10
734.2955
20
268.0
30
0.0
11
723.7045
21
268.0
31
0.0
0
LINE
8
0
10
723.7045
20
268.0
30
0.0
11
723.7045
21
276.0
31
0.0
0
LINE
8
0
10
723.7045
20
276.0
30
0.0
11
713.11365
21
276.0
31
0.0
0
LINE
8
0
10
713.11365
20
276.0
30
0.0
11
723.7045
21
268.0
31
0.0
0
LINE
8
0
10
723.7045
20
268.0
30
0.0
11
723.7045
21
260.0
31
0.0
0
LINE
8
0
10
723.7045
20
260.0
30
0.0
11
713.11365
21
260.0
31
0.0
0
LINE
8
0
10
713.11365
20
260.0
30
0.0
11
713.11365
21
252.0
31
0.0
0
LINE
8
0
10
766.0682
20
252.0
30
0.0
11
776.6591
21
252.0
31
0.0
0
LINE
8
0
10
776.6591
20
252.0
30
0.0
11
776.6591
21
260.0
31
0.0
0
LINE
8
0
10
776.6591
20
260.0
30
0.0
11
787.25
21
268.0
31
0.0
0
LINE
8
0
10
787.25
20
268.0
30
0.0
11
776.6591
21
268.0
31
0.0
0
LINE
8
0
10
776.6591
20
268.0
30
0.0
11
776.6591
21
276.0
31
0.0
0
LINE
8
0
10
776.6591
20
276.0
30
0.0
11
766.0682
21
276.0
31
0.0
0
LINE
8
0
10
766.0682
20
276.0
30
0.0
11
766.0682
21
268.0
31
0.0
0
LINE
8
0
10
766.0682
20
268.0
30
0.0
11
755.4773
21
268.0
31
0.0
0
LINE
8
0
10
755.4773
20
268.0
30
0.0
11
766.0682
21
260.0
31
0.0
0
LINE
8
0
10
766.0682
20
260.0
30
0.0
11
766.0682
21
252.0
31
0.0
0
LINE
8
0
10
808.4318
20
252.0
30
0.0
11
819.0227
21
252.0
31
0.0
0
LINE
8
0
10
819.0227
20
252.0
30
0.0
11
819.0227
21
276.0
31
0.0
0
LINE
8
0
10
819.0227
20
276.0
30
0.0
11
808.4318
21
276.0
31
0.0
0
LINE
8
0
10
808.4318
20
276.0
30
0.0
11
808.4318
21
260.0
31
0.0
0
LINE
8
0
10
808.4318
20
260.0
30
0.0
11
797.8409
21
260.0
31
0.0
0
LINE
8
0
10
797.8409
20
260.0
30
0.0
11
808.4318
21
252.0
31
0.0
0
LINE
8
0
10
840.2045
20
252.0
30
0.0
11
850.7955
21
252.0
31
0.0
0
LINE
8
0
10
850.7955
20
252.0
30
0.0
11
861.38635
21
260.0
31
0.0
0
LINE
8
0
10
861.38635
20
260.0
30
0.0
11
861.38635
21
268.0
31
0.0
0
LINE
8
0
10
861.38635
20
268.0
30
0.0
11
850.7955
21
276.0
31
0.0
0
LINE
8
0
10
850.7955
20
276.0
30
0.0
11
840.2045
21
276.0
31
0.0
0
LINE
8
0
10
840.2045
20
276.0
30
0.0
11
829.61365
21
268.0
31
0.0
0
LINE
8
0
10
829.61365
20
268.0
30
0.0
11
829.61365
21
260.0
31
0.0
0
LINE
8
0
10
829.61365
20
260.0
30
0.0
11
840.2045
21
252.0
31
0.0
0
LINE
8
0
10
903.15906
20
252.0
30
0.0
11
913.75
21
252.0
31
0.0
0
LINE
8
0
10
913.75
20
252.0
30
0.0
11
924.3409
21
260.0
31
0.0
0
LINE
8
0
10
924.3409
20
260.0
30
0.0
11
924.3409
21
268.0
31
0.0
0
LINE
8
0
10
924.3409
20
268.0
30
0.0
11
903.15906
21
268.0
31
0.0
0
LINE
8
0
10
903.15906
20
268.0
30
0.0
11
913.75
21
276.0
31
0.0
0
LINE
8
0
10
913.75
20
276.0
30
0.0
11
903.15906
21
276.0
31
0.0
0
LINE
8
0
10
903.15906
20
276.0
30
0.0
11
892.5682
21
268.0
31
0.0
0
LINE
8
0
10
892.5682
20
268.0
30
0.0
11
892.5682
21
260.0
31
0.0
0
LINE
8
0
10
892.5682
20
260.0
30
0.0
11
903.15906
21
252.0
31
0.0
0
LINE
8
0
10
934.9318
20
236.0
30
0.0
11
945.5227
21
236.0
31
0.0
0
LINE
8
0
10
945.5227
20
236.0
30
0.0
11
945.5227
21
268.0
31
0.0
0
LINE
8
0
10
945.5227
20
268.0
30
0.0
11
956.11365
21
268.0
31
0.0
0
LINE
8
0
10
956.11365
20
268.0
30
0.0
11
956.11365
21
276.0
31
0.0
0
LINE
8
0
10
956.11365
20
276.0
30
0.0
11
934.9318
21
276.0
31
0.0
0
LINE
8
0
10
934.9318
20
276.0
30
0.0
11
934.9318
21
236.0
31
0.0
0
LINE
8
0
10
977.2955
20
252.0
30
0.0
11
987.88635
21
252.0
31
0.0
0
LINE
8
0
10
987.88635
20
252.0
30
0.0
11
998.47723
21
260.0
31
0.0
0
LINE
8
0
10
998.47723
20
260.0
30
0.0
11
987.88635
21
260.0
31
0.0
0
LINE
8
0
10
987.88635
20
260.0
30
0.0
11
998.47723
21
268.0
31
0.0
0
LINE
8
0
10
998.47723
20
268.0
30
0.0
11
987.88635
21
276.0
31
0.0
0
LINE
8
0
10
987.88635
20
276.0
30
0.0
11
977.2955
21
276.0
31
0.0
0
LINE
8
0
10
977.2955
20
276.0
30
0.0
11
966.7045
21
268.0
31
0.0
0
LINE
8
0
10
966.7045
20
268.0
30
0.0
11
977.2955
21
268.0
31
0.0
0
LINE
8
0
10
977.2955
20
268.0
30
0.0
11
966.7045
21
260.0
31
0.0
0
LINE
8
0
10
966.7045
20
260.0
30
0.0
11
977.2955
21
252.0
31
0.0
0
LINE
8
0
10
1019.6591
20
252.0
30
0.0
11
1030.25
21
252.0
31
0.0
0
LINE
8
0
10
1030.25
20
252.0
30
0.0
11
1040.8408
21
260.0
31
0.0
0
LINE
8
0
10
1040.8408
20
260.0
30
0.0
11
1040.8408
21
268.0
31
0.0
0
LINE
8
0
10
1040.8408
20
268.0
30
0.0
11
1019.6591
21
268.0
31
0.0
0
LINE
8
0
10
1019.6591
20
268.0
30
0.0
11
1030.25
21
276.0
31
0.0
0
LINE
8
0
10
1030.25
20
276.0
30
0.0
11
1019.6591
21
276.0
31
0.0
0
LINE
8
0
10
1019.6591
20
276.0
30
0.0
11
1009.0682
21
268.0
31
0.0
0
LINE
8
0
10
1009.0682
20
268.0
30
0.0
11
1009.0682
21
260.0
31
0.0
0
LINE
8
0
10
1009.0682
20
260.0
30
0.0
11
1019.6591
21
252.0
31
0.0
0
LINE
8
0
10
1072.6135
20
244.0
30
0.0
11
1083.2045
21
236.0
31
0.0
0
LINE
8
0
10
1083.2045
20
236.0
30
0.0
11
1093.7954
21
236.0
31
0.0
0
LINE
8
0
10
1093.7954
20
236.0
30
0.0
11
1083.2045
21
244.0
31
0.0
0
LINE
8
0
10
1083.2045
20
244.0
30
0.0
11
1083.2045
21
268.0
31
0.0
0
LINE
8
0
10
1083.2045
20
268.0
30
0.0
11
1093.7954
21
276.0
31
0.0
0
LINE
8
0
10
1093.7954
20
276.0
30
0.0
11
1083.2045
21
276.0
31
0.0
0
LINE
8
0
10
1083.2045
20
276.0
30
0.0
11
1072.6135
21
268.0
31
0.0
0
LINE
8
0
10
1072.6135
20
268.0
30
0.0
11
1072.6135
21
260.0
31
0.0
0
LINE
8
0
10
1072.6135
20
260.0
30
0.0
11
1062.0227
21
260.0
31
0.0
0
LINE
8
0
10
1062.0227
20
260.0
30
0.0
11
1072.6135
21
252.0
31
0.0
0
LINE
8
0
10
1072.6135
20
252.0
30
0.0
11
1072.6135
21
244.0
31
0.0
0
LINE
8
0
10
116.204544
20
294.0
30
0.0
11
126.795456
21
294.0
31
0.0
0
LINE
8
0
10
126.795456
20
294.0
30
0.0
11
137.38637
21
302.0
31
0.0
0
LINE
8
0
10
137.38637
20
302.0
30
0.0
11
126.795456
21
302.0
31
0.0
0
LINE
8
0
10
126.795456
20
302.0
30
0.0
11
126.795456
21
310.0
31
0.0
0
LINE
8
0
10
126.795456
20
310.0
30
0.0
11
137.38637
21
318.0
31
0.0
0
LINE
8
0
10
137.38637
20
318.0
30
0.0
11
126.795456
21
318.0
31
0.0
0
LINE
8
0
10
126.795456
20
318.0
30
0.0
11
126.795456
21
334.0
31
0.0
0
LINE
8
0
10
126.795456
20
334.0
30
0.0
11
116.204544
21
334.0
31
0.0
0
LINE
8
0
10
116.204544
20
334.0
30
0.0
11
116.204544
21
294.0
31
0.0
0
LINE
8
0
10
158.56818
20
310.0
30
0.0
11
169.15909
21
310.0
31
0.0
0
LINE
8
0
10
169.15909
20
310.0
30
0.0
11
179.75
21
318.0
31
0.0
0
LINE
8
0
10
179.75
20
318.0
30
0.0
11
179.75
21
326.0
31
0.0
0
LINE
8
0
10
179.75
20
326.0
30
0.0
11
169.15909
21
334.0
31
0.0
0
LINE
8
0
10
169.15909
20
334.0
30
0.0
11
158.56818
21
334.0
31
0.0
0
LINE
8
0
10
158.56818
20
334.0
30
0.0
11
147.97728
21
326.0
31
0.0
0
LINE
8
0
10
147.97728
20
326.0
30
0.0
11
147.97728
21
318.0
31
0.0
0
LINE
8
0
10
147.97728
20
318.0
30
0.0
11
158.56818
21
310.0
31
0.0
0
LINE
8
0
10
200.93181
20
310.0
30
0.0
11
211.52272
21
310.0
31
0.0
0
LINE
8
0
10
211.52272
20
310.0
30
0.0
11
222.11363
21
318.0
31
0.0
0
LINE
8
0
10
222.11363
20
318.0
30
0.0
11
211.52272
21
318.0
31
0.0
0
LINE
8
0
10
211.52272
20
318.0
30
0.0
11
200.93181
21
326.0
31
0.0
0
LINE
8
0
10
200.93181
20
326.0
30
0.0
11
200.93181
21
334.0
31
0.0
0
LINE
8
0
10
200.93181
20
334.0
30
0.0
11
190.3409
21
334.0
31
0.0
0
LINE
8
0
10
190.3409
20
334.0
30
0.0
11
190.3409
21
318.0
31
0.0
0
LINE
8
0
10
190.3409
20
318.0
30
0.0
11
200.93181
21
310.0
31
0.0
0
LINE
8
0
10
232.70454
20
302.0
30
0.0
11
243.29546
21
294.0
31
0.0
0
LINE
8
0
10
243.29546
20
294.0
30
0.0
11
253.88637
21
294.0
31
0.0
0
LINE
8
0
10
253.88637
20
294.0
30
0.0
11
243.29546
21
302.0
31
0.0
0
LINE
8
0
10
243.29546
20
302.0
30
0.0
11
243.29546
21
326.0
31
0.0
0
LINE
8
0
10
243.29546
20
326.0
30
0.0
11
253.88637
21
334.0
31
0.0
0
LINE
8
0
10
253.88637
20
334.0
30
0.0
11
243.29546
21
334.0
31
0.0
0
LINE
8
0
10
243.29546
20
334.0
30
0.0
11
232.70454
21
326.0
31
0.0
0
LINE
8
0
10
232.70454
20
326.0
30
0.0
11
232.70454
21
302.0
31
0.0
0
LINE
8
0
10
264.47726
20
310.0
30
0.0
11
275.06815
21
318.0
31
0.0
0
LINE
8
0
10
275.06815
20
318.0
30
0.0
11
285.6591
21
318.0
31
0.0
0
LINE
8
0
10
285.6591
20
318.0
30
0.0
11
296.24997
21
310.0
31
0.0
0
LINE
8
0
10
296.24997
20
310.0
30
0.0
11
296.24997
21
318.0
31
0.0
0
LINE
8
0
10
296.24997
20
318.0
30
0.0
11
285.6591
21
318.0
31
0.0
0
LINE
8
0
10
285.6591
20
318.0
30
0.0
11
285.6591
21
326.0
31
0.0
0
LINE
8
0
10
285.6591
20
326.0
30
0.0
11
296.24997
21
334.0
31
0.0
0
LINE
8
0
10
296.24997
20
334.0
30
0.0
11
285.6591
21
334.0
31
0.0
0
LINE
8
0
10
285.6591
20
334.0
30
0.0
11
285.6591
21
326.0
31
0.0
0
LINE
8
0
10
285.6591
20
326.0
30
0.0
11
275.06815
21
326.0
31
0.0
0
LINE
8
0
10
275.06815
20
326.0
30
0.0
11
275.06815
21
334.0
31
0.0
0
LINE
8
0
10
275.06815
20
334.0
30
0.0
11
264.47726
21
334.0
31
0.0
0
LINE
8
0
10
264.47726
20
334.0
30
0.0
11
275.06815
21
326.0
31
0.0
0
LINE
8
0
10
275.06815
20
326.0
30
0.0
11
275.06815
21
318.0
31
0.0
0
LINE
8
0
10
275.06815
20
318.0
30
0.0
11
264.47726
21
318.0
31
0.0
0
LINE
8
0
10
264.47726
20
318.0
30
0.0
11
264.47726
21
310.0
31
0.0
0
LINE
8
0
10
306.8409
20
318.0
30
0.0
11
317.4318
21
318.0
31
0.0
0
LINE
8
0
10
317.4318
20
318.0
30
0.0
11
317.4318
21
326.0
31
0.0
0
LINE
8
0
10
317.4318
20
326.0
30
0.0
11
306.8409
21
326.0
31
0.0
0
LINE
8
0
10
306.8409
20
326.0
30
0.0
11
306.8409
21
318.0
31
0.0
0
LINE
8
0
10
338.0227
20
294.0
30
0.0
11
348.61362
21
294.0
31
0.0
0
LINE
8
0
10
348.61362
20
294.0
30
0.0
11
359.20453
21
302.0
31
0.0
0
LINE
8
0
10
359.20453
20
302.0
30
0.0
11
348.61362
21
302.0
31
0.0
0
LINE
8
0
10
348.61362
20
302.0
30
0.0
11
348.61362
21
310.0
31
0.0
0
LINE
8
0
10
348.61362
20
310.0
30
0.0
11
359.20453
21
318.0
31
0.0
0
LINE
8
0
10
359.20453
20
318.0
30
0.0
11
348.61362
21
318.0
31
0.0
0
LINE
8
0
10
348.61362
20
318.0
30
0.0
11
348.61362
21
334.0
31
0.0
0
LINE
8
0
10
348.61362
20
334.0
30
0.0
11
338.0227
21
334.0
31
0.0
0
LINE
8
0
10
338.0227
20
334.0
30
0.0
11
338.0227
21
294.0
31
0.0
0
LINE
8
0
10
380.38635
20
310.0
30
0.0
11
390.97726
21
310.0
31
0.0
0
LINE
8
0
10
390.97726
20
310.0
30
0.0
11
401.56815
21
318.0
31
0.0
0
LINE
8
0
10
401.56815
20
318.0
30
0.0
11
401.56815
21
326.0
31
0.0
0
LINE
8
0
10
401.56815
20
326.0
30
0.0
11
390.97726
21
334.0
31
0.0
0
LINE
8
0
10
390.97726
20
334.0
30
0.0
11
380.38635
21
334.0
31
0.0
0
LINE
8
0
10
380.38635
20
334.0
30
0.0
11
369.79544
21
326.0
31
0.0
0
LINE
8
0
10
369.79544
20
326.0
30
0.0
11
369.79544
21
318.0
31
0.0
0
LINE
8
0
10
369.79544
20
318.0
30
0.0
11
380.38635
21
310.0
31
0.0
0
LINE
8
0
10
422.74997
20
310.0
30
0.0
11
433.34088
21
310.0
31
0.0
0
LINE
8
0
10
433.34088
20
310.0
30
0.0
11
443.9318
21
318.0
31
0.0
0
LINE
8
0
10
443.9318
20
318.0
30
0.0
11
433.34088
21
318.0
31
0.0
0
LINE
8
0
10
433.34088
20
318.0
30
0.0
11
422.74997
21
326.0
31
0.0
0
LINE
8
0
10
422.74997
20
326.0
30
0.0
11
422.74997
21
334.0
31
0.0
0
LINE
8
0
10
422.74997
20
334.0
30
0.0
11
412.15906
21
334.0
31
0.0
0
LINE
8
0
10
412.15906
20
334.0
30
0.0
11
412.15906
21
318.0
31
0.0
0
LINE
8
0
10
412.15906
20
318.0
30
0.0
11
422.74997
21
310.0
31
0.0
0
LINE
8
0
10
454.5227
20
302.0
30
0.0
11
465.11362
21
294.0
31
0.0
0
LINE
8
0
10
465.11362
20
294.0
30
0.0
11
475.70453
21
294.0
31
0.0
0
LINE
8
0
10
475.70453
20
294.0
30
0.0
11
465.11362
21
302.0
31
0.0
0
LINE
8
0
10
465.11362
20
302.0
30
0.0
11
465.11362
21
326.0
31
0.0
0
LINE
8
0
10
465.11362
20
326.0
30
0.0
11
475.70453
21
334.0
31
0.0
0
LINE
8
0
10
475.70453
20
334.0
30
0.0
11
465.11362
21
334.0
31
0.0
0
LINE
8
0
10
465.11362
20
334.0
30
0.0
11
454.5227
21
326.0
31
0.0
0
LINE
8
0
10
454.5227
20
326.0
30
0.0
11
454.5227
21
302.0
31
0.0
0
LINE
8
0
10
486.29544
20
310.0
30
0.0
11
496.88632
21
318.0
31
0.0
0
LINE
8
0
10
496.88632
20
318.0
30
0.0
11
507.47726
21
318.0
31
0.0
0
LINE
8
0
10
507.47726
20
318.0
30
0.0
11
518.0682
21
310.0
31
0.0
0
LINE
8
0
10
518.0682
20
310.0
30
0.0
11
518.0682
21
318.0
31
0.0
0
LINE
8
0
10
518.0682
20
318.0
30
0.0
11
507.47726
21
318.0
31
0.0
0
LINE
8
0
10
507.47726
20
318.0
30
0.0
11
507.47726
21
326.0
31
0.0
0
LINE
8
0
10
507.47726
20
326.0
30
0.0
11
518.0682
21
334.0
31
0.0
0
LINE
8
0
10
518.0682
20
334.0
30
0.0
11
507.47726
21
334.0
31
0.0
0
LINE
8
0
10
507.47726
20
334.0
30
0.0
11
507.47726
21
326.0
31
0.0
0
LINE
8
0
10
507.47726
20
326.0
30
0.0
11
496.88632
21
326.0
31
0.0
0
LINE
8
0
10
496.88632
20
326.0
30
0.0
11
496.88632
21
334.0
31
0.0
0
LINE
8
0
10
496.88632
20
334.0
30
0.0
11
486.29544
21
334.0
31
0.0
0
LINE
8
0
10
486.29544
20
334.0
30
0.0
11
496.88632
21
326.0
31
0.0
0
LINE
8
0
10
496.88632
20
326.0
30
0.0
11
496.88632
21
318.0
31
0.0
0
LINE
8
0
10
496.88632
20
318.0
30
0.0
11
486.29544
21
318.0
31
0.0
0
LINE
8
0
10
486.29544
20
318.0
30
0.0
11
486.29544
21
310.0
31
0.0
0
LINE
8
0
10
528.6591
20
318.0
30
0.0
11
539.25
21
318.0
31
0.0
0
LINE
8
0
10
539.25
20
318.0
30
0.0
11
539.25
21
326.0
31
0.0
0
LINE
8
0
10
539.25
20
326.0
30
0.0
11
528.6591
21
326.0
31
0.0
0
LINE
8
0
10
528.6591
20
326.0
30
0.0
11
528.6591
21
318.0
31
0.0
0
LINE
8
0
10
781.6591
20
294.0
30
0.0
11
792.25
21
294.0
31
0.0
0
LINE
8
0
10
792.25
20
294.0
30
0.0
11
802.84094
21
302.0
31
0.0
0
LINE
8
0
10
802.84094
20
302.0
30
0.0
11
802.84094
21
310.0
31
0.0
0
LINE
8
0
10
802.84094
20
310.0
30
0.0
11
813.4318
21
318.0
31
0.0
0
LINE
8
0
10
813.4318
20
318.0
30
0.0
11
802.84094
21
318.0
31
0.0
0
LINE
8
0
10
802.84094
20
318.0
30
0.0
11
802.84094
21
326.0
31
0.0
0
LINE
8
0
10
802.84094
20
326.0
30
0.0
11
792.25
21
334.0
31
0.0
0
LINE
8
0
10
792.25
20
334.0
30
0.0
11
781.6591
21
334.0
31
0.0
0
LINE
8
0
10
781.6591
20
334.0
30
0.0
11
792.25
21
326.0
31
0.0
0
LINE
8
0
10
792.25
20
326.0
30
0.0
11
792.25
21
302.0
31
0.0
0
LINE
8
0
10
792.25
20
302.0
30
0.0
11
781.6591
21
294.0
31
0.0
0
LINE
8
0
10
824.02277
20
310.0
30
0.0
11
834.61365
21
318.0
31
0.0
0
LINE
8
0
10
834.61365
20
318.0
30
0.0
11
845.2046
21
318.0
31
0.0
0
LINE
8
0
10
845.2046
20
318.0
30
0.0
11
855.7955
21
310.0
31
0.0
0
LINE
8
0
10
855.7955
20
310.0
30
0.0
11
855.7955
21
318.0
31
0.0
0
LINE
8
0
10
855.7955
20
318.0
30
0.0
11
845.2046
21
318.0
31
0.0
0
LINE
8
0
10
845.2046
20
318.0
30
0.0
11
845.2046
21
326.0
31
0.0
0
LINE
8
0
10
845.2046
20
326.0
30
0.0
11
855.7955
21
334.0
31
0.0
0
LINE
8
0
10
855.7955
20
334.0
30
0.0
11
845.2046
21
334.0
31
0.0
0
LINE
8
0
10
845.2046
20
334.0
30
0.0
11
845.2046
21
326.0
31
0.0
0
LINE
8
0
10
845.2046
20
326.0
30
0.0
11
834.61365
21
326.0
31
0.0
0
LINE
8
0
10
834.61365
20
326.0
30
0.0
11
834.61365
21
334.0
31
0.0
0
LINE
8
0
10
834.61365
20
334.0
30
0.0
11
824.02277
21
334.0
31
0.0
0
LINE
8
0
10
824.02277
20
334.0
30
0.0
11
834.61365
21
326.0
31
0.0
0
LINE
8
0
10
834.61365
20
326.0
30
0.0
11
834.61365
21
318.0
31
0.0
0
LINE
8
0
10
834.61365
20
318.0
30
0.0
11
824.02277
21
318.0
31
0.0
0
LINE
8
0
10
824.02277
20
318.0
30
0.0
11
824.02277
21
310.0
31
0.0
0
LINE
8
0
10
876.9773
20
310.0
30
0.0
11
887.5682
21
310.0
31
0.0
0
LINE
8
0
10
887.5682
20
310.0
30
0.0
11
887.5682
21
318.0
31
0.0
0
LINE
8
0
10
887.5682
20
318.0
30
0.0
11
898.1591
21
326.0
31
0.0
0
LINE
8
0
10
898.1591
20
326.0
30
0.0
11
887.5682
21
326.0
31
0.0
0
LINE
8
0
10
887.5682
20
326.0
30
0.0
11
887.5682
21
334.0
31
0.0
0
LINE
8
0
10
887.5682
20
334.0
30
0.0
11
876.9773
21
334.0
31
0.0
0
LINE
8
0
10
876.9773
20
334.0
30
0.0
11
876.9773
21
326.0
31
0.0
0
LINE
8
0
10
876.9773
20
326.0
30
0.0
11
866.3864
21
326.0
31
0.0
0
LINE
8
0
10
866.3864
20
326.0
30
0.0
11
876.9773
21
318.0
31
0.0
0
LINE
8
0
10
876.9773
20
318.0
30
0.0
11
876.9773
21
310.0
31
0.0
0
LINE
8
0
10
919.34094
20
310.0
30
0.0
11
929.9318
21
310.0
31
0.0
0
LINE
8
0
10
929.9318
20
310.0
30
0.0
11
929.9318
21
334.0
31
0.0
0
LINE
8
0
10
929.9318
20
334.0
30
0.0
11
919.34094
21
334.0
31
0.0
0
LINE
8
0
10
919.34094
20
334.0
30
0.0
11
919.34094
21
318.0
31
0.0
0
LINE
8
0
10
919.34094
20
318.0
30
0.0
11
908.75006
21
318.0
31
0.0
0
LINE
8
0
10
908.75006
20
318.0
30
0.0
11
919.34094
21
310.0
31
0.0
0
LINE
8
0
10
951.11365
20
310.0
30
0.0
11
961.7046
21
310.0
31
0.0
0
LINE
8
0
10
961.7046
20
310.0
30
0.0
11
972.2955
21
318.0
31
0.0
0
LINE
8
0
10
972.2955
20
318.0
30
0.0
11
972.2955
21
326.0
31
0.0
0
LINE
8
0
10
972.2955
20
326.0
30
0.0
11
961.7046
21
334.0
31
0.0
0
LINE
8
0
10
961.7046
20
334.0
30
0.0
11
951.11365
21
334.0
31
0.0
0
LINE
8
0
10
951.11365
20
334.0
30
0.0
11
940.52277
21
326.0
31
0.0
0
LINE
8
0
10
940.52277
20
326.0
30
0.0
11
940.52277
21
318.0
31
0.0
0
LINE
8
0
10
940.52277
20
318.0
30
0.0
11
951.11365
21
310.0
31
0.0
0
LINE
8
0
10
5.2954545
20
360.0
30
0.0
11
15.886364
21
360.0
31
0.0
0
LINE
8
0
10
15.886364
20
360.0
30
0.0
11
15.886364
21
368.0
31
0.0
0
LINE
8
0
10
15.886364
20
368.0
30
0.0
11
5.2954545
21
368.0
31
0.0
0
LINE
8
0
10
5.2954545
20
368.0
30
0.0
11
5.2954545
21
360.0
31
0.0
0
LINE
8
0
10
5.2954545
20
376.0
30
0.0
11
15.886364
21
376.0
31
0.0
0
LINE
8
0
10
15.886364
20
376.0
30
0.0
11
15.886364
21
392.0
31
0.0
0
LINE
8
0
10
15.886364
20
392.0
30
0.0
11
5.2954545
21
392.0
31
0.0
0
LINE
8
0
10
5.2954545
20
392.0
30
0.0
11
5.2954545
21
376.0
31
0.0
0
LINE
8
0
10
26.477272
20
352.0
30
0.0
11
37.068184
21
352.0
31
0.0
0
LINE
8
0
10
37.068184
20
352.0
30
0.0
11
47.659092
21
360.0
31
0.0
0
LINE
8
0
10
47.659092
20
360.0
30
0.0
11
37.068184
21
360.0
31
0.0
0
LINE
8
0
10
37.068184
20
360.0
30
0.0
11
37.068184
21
368.0
31
0.0
0
LINE
8
0
10
37.068184
20
368.0
30
0.0
11
47.659092
21
376.0
31
0.0
0
LINE
8
0
10
47.659092
20
376.0
30
0.0
11
37.068184
21
376.0
31
0.0
0
LINE
8
0
10
37.068184
20
376.0
30
0.0
11
37.068184
21
392.0
31
0.0
0
LINE
8
0
10
37.068184
20
392.0
30
0.0
11
26.477272
21
392.0
31
0.0
0
LINE
8
0
10
26.477272
20
392.0
30
0.0
11
26.477272
21
352.0
31
0.0
0
LINE
8
0
10
58.25
20
360.0
30
0.0
11
68.84091
21
352.0
31
0.0
0
LINE
8
0
10
68.84091
20
352.0
30
0.0
11
79.431816
21
352.0
31
0.0
0
LINE
8
0
10
79.431816
20
352.0
30
0.0
11
68.84091
21
360.0
31
0.0
0
LINE
8
0
10
68.84091
20
360.0
30
0.0
11
68.84091
21
384.0
31
0.0
0
LINE
8
0
10
68.84091
20
384.0
30
0.0
11
79.431816
21
392.0
31
0.0
0
LINE
8
0
10
79.431816
20
392.0
30
0.0
11
68.84091
21
392.0
31
0.0
0
LINE
8
0
10
68.84091
20
392.0
30
0.0
11
58.25
21
384.0
31
0.0
0
LINE
8
0
10
58.25
20
384.0
30
0.0
11
58.25
21
360.0
31
0.0
0
LINE
8
0
10
90.02273
20
368.0
30
0.0
11
100.61364
21
376.0
31
0.0
0
LINE
8
0
10
100.61364
20
376.0
30
0.0
11
111.204544
21
376.0
31
0.0
0
LINE
8
0
10
111.204544
20
376.0
30
0.0
11
121.795456
21
368.0
31
0.0
0
LINE
8
0
10
121.795456
20
368.0
30
0.0
11
121.795456
21
376.0
31
0.0
0
LINE
8
0
10
121.795456
20
376.0
30
0.0
11
111.204544
21
376.0
31
0.0
0
LINE
8
0
10
111.204544
20
376.0
30
0.0
11
111.204544
21
384.0
31
0.0
0
LINE
8
0
10
111.204544
20
384.0
30
0.0
11
121.795456
21
392.0
31
0.0
0
LINE
8
0
10
121.795456
20
392.0
30
0.0
11
111.204544
21
392.0
31
0.0
0
LINE
8
0
10
111.204544
20
392.0
30
0.0
11
111.204544
21
384.0
31
0.0
0
LINE
8
0
10
111.204544
20
384.0
30
0.0
11
100.61364
21
384.0
31
0.0
0
LINE
8
0
10
100.61364
20
384.0
30
0.0
11
100.61364
21
392.0
31
0.0
0
LINE
8
0
10
100.61364
20
392.0
30
0.0
11
90.02273
21
392.0
31
0.0
0
LINE
8
0
10
90.02273
20
392.0
30
0.0
11
100.61364
21
384.0
31
0.0
0
LINE
8
0
10
100.61364
20
384.0
30
0.0
11
100.61364
21
376.0
31
0.0
0
LINE
8
0
10
100.61364
20
376.0
30
0.0
11
90.02273
21
376.0
31
0.0
0
LINE
8
0
10
90.02273
20
376.0
30
0.0
11
90.02273
21
368.0
31
0.0
0
LINE
8
0
10
132.38637
20
352.0
30
0.0
11
142.97728
21
352.0
31
0.0
0
LINE
8
0
10
142.97728
20
352.0
30
0.0
11
142.97728
21
376.0
31
0.0
0
LINE
8
0
10
142.97728
20
376.0
30
0.0
11
132.38637
21
376.0
31
0.0
0
LINE
8
0
10
132.38637
20
376.0
30
0.0
11
132.38637
21
352.0
31
0.0
0
LINE
8
0
10
132.38637
20
384.0
30
0.0
11
142.97728
21
384.0
31
0.0
0
LINE
8
0
10
142.97728
20
384.0
30
0.0
11
142.97728
21
392.0
31
0.0
0
LINE
8
0
10
142.97728
20
392.0
30
0.0
11
132.38637
21
392.0
31
0.0
0
LINE
8
0
10
132.38637
20
392.0
30
0.0
11
132.38637
21
384.0
31
0.0
0
LINE
8
0
10
153.56818
20
368.0
30
0.0
11
174.75
21
368.0
31
0.0
0
LINE
8
0
10
174.75
20
368.0
30
0.0
11
174.75
21
376.0
31
0.0
0
LINE
8
0
10
174.75
20
376.0
30
0.0
11
153.56818
21
376.0
31
0.0
0
LINE
8
0
10
153.56818
20
376.0
30
0.0
11
153.56818
21
368.0
31
0.0
0
LINE
8
0
10
153.56818
20
384.0
30
0.0
11
174.75
21
384.0
31
0.0
0
LINE
8
0
10
174.75
20
384.0
30
0.0
11
174.75
21
392.0
31
0.0
0
LINE
8
0
10
174.75
20
392.0
30
0.0
11
153.56818
21
392.0
31
0.0
0
LINE
8
0
10
153.56818
20
392.0
30
0.0
11
153.56818
21
384.0
31
0.0
0
LINE
8
0
10
195.93182
20
368.0
30
0.0
11
206.52272
21
368.0
31
0.0
0
LINE
8
0
10
206.52272
20
368.0
30
0.0
11
206.52272
21
392.0
31
0.0
0
LINE
8
0
10
206.52272
20
392.0
30
0.0
11
195.93182
21
392.0
31
0.0
0
LINE
8
0
10
195.93182
20
392.0
30
0.0
11
195.93182
21
376.0
31
0.0
0
LINE
8
0
10
195.93182
20
376.0
30
0.0
11
185.34091
21
376.0
31
0.0
0
LINE
8
0
10
185.34091
20
376.0
30
0.0
11
195.93182
21
368.0
31
0.0
0
LINE
8
0
10
227.11363
20
352.0
30
0.0
11
237.70454
21
352.0
31
0.0
0
LINE
8
0
10
237.70454
20
352.0
30
0.0
11
248.29546
21
360.0
31
0.0
0
LINE
8
0
10
248.29546
20
360.0
30
0.0
11
248.29546
21
368.0
31
0.0
0
LINE
8
0
10
248.29546
20
368.0
30
0.0
11
258.88635
21
376.0
31
0.0
0
LINE
8
0
10
258.88635
20
376.0
30
0.0
11
248.29546
21
376.0
31
0.0
0
LINE
8
0
10
248.29546
20
376.0
30
0.0
11
248.29546
21
384.0
31
0.0
0
LINE
8
0
10
248.29546
20
384.0
30
0.0
11
237.70454
21
392.0
31
0.0
0
LINE
8
0
10
237.70454
20
392.0
30
0.0
11
227.11363
21
392.0
31
0.0
0
LINE
8
0
10
227.11363
20
392.0
30
0.0
11
237.70454
21
384.0
31
0.0
0
LINE
8
0
10
237.70454
20
384.0
30
0.0
11
237.70454
21
360.0
31
0.0
0
LINE
8
0
10
237.70454
20
360.0
30
0.0
11
227.11363
21
352.0
31
0.0
0
LINE
8
0
10
269.47726
20
368.0
30
0.0
11
280.06815
21
376.0
31
0.0
0
LINE
8
0
10
280.06815
20
376.0
30
0.0
11
290.6591
21
376.0
31
0.0
0
LINE
8
0
10
290.6591
20
376.0
30
0.0
11
301.24997
21
368.0
31
0.0
0
LINE
8
0
10
301.24997
20
368.0
30
0.0
11
301.24997
21
376.0
31
0.0
0
LINE
8
0
10
301.24997
20
376.0
30
0.0
11
290.6591
21
376.0
31
0.0
0
LINE
8
0
10
290.6591
20
376.0
30
0.0
11
290.6591
21
384.0
31
0.0
0
LINE
8
0
10
290.6591
20
384.0
30
0.0
11
301.24997
21
392.0
31
0.0
0
LINE
8
0
10
301.24997
20
392.0
30
0.0
11
290.6591
21
392.0
31
0.0
0
LINE
8
0
10
290.6591
20
392.0
30
0.0
11
290.6591
21
384.0
31
0.0
0
LINE
8
0
10
290.6591
20
384.0
30
0.0
11
280.06815
21
384.0
31
0.0
0
LINE
8
0
10
280.06815
20
384.0
30
0.0
11
280.06815
21
392.0
31
0.0
0
LINE
8
0
10
280.06815
20
392.0
30
0.0
11
269.47726
21
392.0
31
0.0
0
LINE
8
0
10
269.47726
20
392.0
30
0.0
11
280.06815
21
384.0
31
0.0
0
LINE
8
0
10
280.06815
20
384.0
30
0.0
11
280.06815
21
376.0
31
0.0
0
LINE
8
0
10
280.06815
20
376.0
30
0.0
11
269.47726
21
376.0
31
0.0
0
LINE
8
0
10
269.47726
20
376.0
30
0.0
11
269.47726
21
368.0
31
0.0
0
LINE
8
0
10
322.4318
20
368.0
30
0.0
11
333.0227
21
368.0
31
0.0
0
LINE
8
0
10
333.0227
20
368.0
30
0.0
11
333.0227
21
376.0
31
0.0
0
LINE
8
0
10
333.0227
20
376.0
30
0.0
11
343.61362
21
384.0
31
0.0
0
LINE
8
0
10
343.61362
20
384.0
30
0.0
11
333.0227
21
384.0
31
0.0
0
LINE
8
0
10
333.0227
20
384.0
30
0.0
11
333.0227
21
392.0
31
0.0
0
LINE
8
0
10
333.0227
20
392.0
30
0.0
11
322.4318
21
392.0
31
0.0
0
LINE
8
0
10
322.4318
20
392.0
30
0.0
11
322.4318
21
384.0
31
0.0
0
LINE
8
0
10
322.4318
20
384.0
30
0.0
11
311.84088
21
384.0
31
0.0
0
LINE
8
0
10
311.84088
20
384.0
30
0.0
11
322.4318
21
376.0
31
0.0
0
LINE
8
0
10
322.4318
20
376.0
30
0.0
11
322.4318
21
368.0
31
0.0
0
LINE
8
0
10
364.79544
20
368.0
30
0.0
11
375.38632
21
368.0
31
0.0
0
LINE
8
0
10
375.38632
20
368.0
30
0.0
11
375.38632
21
392.0
31
0.0
0
LINE
8
0
10
375.38632
20
392.0
30
0.0
11
364.79544
21
392.0
31
0.0
0
LINE
8
0
10
364.79544
20
392.0
30
0.0
11
364.79544
21
376.0
31
0.0
0
LINE
8
0
10
364.79544
20
376.0
30
0.0
11
354.20453
21
376.0
31
0.0
0
LINE
8
0
10
354.20453
20
376.0
30
0.0
11
364.79544
21
368.0
31
0.0
0
LINE
8
0
10
396.56815
20
368.0
30
0.0
11
407.1591
21
368.0
31
0.0
0
LINE
8
0
10
407.1591
20
368.0
30
0.0
11
417.74997
21
376.0
31
0.0
0
LINE
8
0
10
417.74997
20
376.0
30
0.0
11
417.74997
21
384.0
31
0.0
0
LINE
8
0
10
417.74997
20
384.0
30
0.0
11
407.1591
21
392.0
31
0.0
0
LINE
8
0
10
407.1591
20
392.0
30
0.0
11
396.56815
21
392.0
31
0.0
0
LINE
8
0
10
396.56815
20
392.0
30
0.0
11
385.97726
21
384.0
31
0.0
0
LINE
8
0
10
385.97726
20
384.0
30
0.0
11
385.97726
21
376.0
31
0.0
0
LINE
8
0
10
385.97726
20
376.0
30
0.0
11
396.56815
21
368.0
31
0.0
0
LINE
8
0
10
448.9318
20
352.0
30
0.0
11
459.5227
21
352.0
31
0.0
0
LINE
8
0
10
459.5227
20
352.0
30
0.0
11
470.11362
21
360.0
31
0.0
0
LINE
8
0
10
470.11362
20
360.0
30
0.0
11
459.5227
21
360.0
31
0.0
0
LINE
8
0
10
459.5227
20
360.0
30
0.0
11
459.5227
21
368.0
31
0.0
0
LINE
8
0
10
459.5227
20
368.0
30
0.0
11
470.11362
21
376.0
31
0.0
0
LINE
8
0
10
470.11362
20
376.0
30
0.0
11
459.5227
21
376.0
31
0.0
0
LINE
8
0
10
459.5227
20
376.0
30
0.0
11
459.5227
21
392.0
31
0.0
0
LINE
8
0
10
459.5227
20
392.0
30
0.0
11
448.9318
21
392.0
31
0.0
0
LINE
8
0
10
448.9318
20
392.0
30
0.0
11
448.9318
21
352.0
31
0.0
0
LINE
8
0
10
491.29544
20
368.0
30
0.0
11
501.88632
21
368.0
31
0.0
0
LINE
8
0
10
501.88632
20
368.0
30
0.0
11
512.4773
21
376.0
31
0.0
0
LINE
8
0
10
512.4773
20
376.0
30
0.0
11
512.4773
21
384.0
31
0.0
0
LINE
8
0
10
512.4773
20
384.0
30
0.0
11
501.88632
21
392.0
31
0.0
0
LINE
8
0
10
501.88632
20
392.0
30
0.0
11
491.29544
21
392.0
31
0.0
0
LINE
8
0
10
491.29544
20
392.0
30
0.0
11
480.70453
21
384.0
31
0.0
0
LINE
8
0
10
480.70453
20
384.0
30
0.0
11
480.70453
21
376.0
31
0.0
0
LINE
8
0
10
480.70453
20
376.0
30
0.0
11
491.29544
21
368.0
31
0.0
0
LINE
8
0
10
533.6591
20
368.0
30
0.0
11
544.25
21
368.0
31
0.0
0
LINE
8
0
10
544.25
20
368.0
30
0.0
11
554.8409
21
376.0
31
0.0
0
LINE
8
0
10
554.8409
20
376.0
30
0.0
11
544.25
21
376.0
31
0.0
0
LINE
8
0
10
544.25
20
376.0
30
0.0
11
533.6591
21
384.0
31
0.0
0
LINE
8
0
10
533.6591
20
384.0
30
0.0
11
533.6591
21
392.0
31
0.0
0
LINE
8
0
10
533.6591
20
392.0
30
0.0
11
523.0682
21
392.0
31
0.0
0
LINE
8
0
10
523.0682
20
392.0
30
0.0
11
523.0682
21
376.0
31
0.0
0
LINE
8
0
10
523.0682
20
376.0
30
0.0
11
533.6591
21
368.0
31
0.0
0
LINE
8
0
10
565.4318
20
360.0
30
0.0
11
576.02277
21
352.0
31
0.0
0
LINE
8
0
10
576.02277
20
352.0
30
0.0
11
586.61365
21
352.0
31
0.0
0
LINE
8
0
10
586.61365
20
352.0
30
0.0
11
576.02277
21
360.0
31
0.0
0
LINE
8
0
10
576.02277
20
360.0
30
0.0
11
576.02277
21
384.0
31
0.0
0
LINE
8
0
10
576.02277
20
384.0
30
0.0
11
586.61365
21
392.0
31
0.0
0
LINE
8
0
10
586.61365
20
392.0
30
0.0
11
576.02277
21
392.0
31
0.0
0
LINE
8
0
10
576.02277
20
392.0
30
0.0
11
565.4318
21
384.0
31
0.0
0
LINE
8
0
10
565.4318
20
384.0
30
0.0
11
565.4318
21
360.0
31
0.0
0
LINE
8
0
10
597.2045
20
368.0
30
0.0
11
607.7955
21
376.0
31
0.0
0
LINE
8
0
10
607.7955
20
376.0
30
0.0
11
618.38635
21
376.0
31
0.0
0
LINE
8
0
10
618.38635
20
376.0
30
0.0
11
628.9773
21
368.0
31
0.0
0
LINE
8
0
10
628.9773
20
368.0
30
0.0
11
628.9773
21
376.0
31
0.0
0
LINE
8
0
10
628.9773
20
376.0
30
0.0
11
618.38635
21
376.0
31
0.0
0
LINE
8
0
10
618.38635
20
376.0
30
0.0
11
618.38635
21
384.0
31
0.0
0
LINE
8
0
10
618.38635
20
384.0
30
0.0
11
628.9773
21
392.0
31
0.0
0
LINE
8
0
10
628.9773
20
392.0
30
0.0
11
618.38635
21
392.0
31
0.0
0
LINE
8
0
10
618.38635
20
392.0
30
0.0
11
618.38635
21
384.0
31
0.0
0
LINE
8
0
10
618.38635
20
384.0
30
0.0
11
607.7955
21
384.0
31
0.0
0
LINE
8
0
10
607.7955
20
384.0
30
0.0
11
607.7955
21
392.0
31
0.0
0
LINE
8
0
10
607.7955
20
392.0
30
0.0
11
597.2045
21
392.0
31
0.0
0
LINE
8
0
10
597.2045
20
392.0
30
0.0
11
607.7955
21
384.0
31
0.0
0
LINE
8
0
10
607.7955
20
384.0
30
0.0
11
607.7955
21
376.0
31
0.0
0
LINE
8
0
10
607.7955
20
376.0
30
0.0
11
597.2045
21
376.0
31
0.0
0
LINE
8
0
10
597.2045
20
376.0
30
0.0
11
597.2045
21
368.0
31
0.0
0
LINE
8
0
10
639.5682
20
376.0
30
0.0
11
650.1591
21
376.0
31
0.0
0
LINE
8
0
10
650.1591
20
376.0
30
0.0
11
650.1591
21
384.0
31
0.0
0
LINE
8
0
10
650.1591
20
384.0
30
0.0
11
639.5682
21
384.0
31
0.0
0
LINE
8
0
10
639.5682
20
384.0
30
0.0
11
639.5682
21
376.0
31
0.0
0
LINE
8
0
10
892.5682
20
360.0
30
0.0
11
903.15906
21
360.0
31
0.0
0
LINE
8
0
10
903.15906
20
360.0
30
0.0
11
903.15906
21
368.0
31
0.0
0
LINE
8
0
10
903.15906
20
368.0
30
0.0
11
892.5682
21
368.0
31
0.0
0
LINE
8
0
10
892.5682
20
368.0
30
0.0
11
892.5682
21
360.0
31
0.0
0
LINE
8
0
10
892.5682
20
376.0
30
0.0
11
903.15906
21
376.0
31
0.0
0
LINE
8
0
10
903.15906
20
376.0
30
0.0
11
903.15906
21
392.0
31
0.0
0
LINE
8
0
10
903.15906
20
392.0
30
0.0
11
892.5682
21
392.0
31
0.0
0
LINE
8
0
10
892.5682
20
392.0
30
0.0
11
892.5682
21
376.0
31
0.0
0
LINE
8
0
10
913.75
20
352.0
30
0.0
11
924.3409
21
352.0
31
0.0
0
LINE
8
0
10
924.3409
20
352.0
30
0.0
11
934.9318
21
360.0
31
0.0
0
LINE
8
0
10
934.9318
20
360.0
30
0.0
11
924.3409
21
360.0
31
0.0
0
LINE
8
0
10
924.3409
20
360.0
30
0.0
11
924.3409
21
368.0
31
0.0
0
LINE
8
0
10
924.3409
20
368.0
30
0.0
11
934.9318
21
376.0
31
0.0
0
LINE
8
0
10
934.9318
20
376.0
30
0.0
11
924.3409
21
376.0
31
0.0
0
LINE
8
0
10
924.3409
20
376.0
30
0.0
11
924.3409
21
392.0
31
0.0
0
LINE
8
0
10
924.3409
20
392.0
30
0.0
11
913.75
21
392.0
31
0.0
0
LINE
8
0
10
913.75
20
392.0
30
0.0
11
913.75
21
352.0
31
0.0
0
LINE
8
0
10
945.5227
20
360.0
30
0.0
11
956.11365
21
352.0
31
0.0
0
LINE
8
0
10
956.11365
20
352.0
30
0.0
11
966.7045
21
352.0
31
0.0
0
LINE
8
0
10
966.7045
20
352.0
30
0.0
11
956.11365
21
360.0
31
0.0
0
LINE
8
0
10
956.11365
20
360.0
30
0.0
11
956.11365
21
384.0
31
0.0
0
LINE
8
0
10
956.11365
20
384.0
30
0.0
11
966.7045
21
392.0
31
0.0
0
LINE
8
0
10
966.7045
20
392.0
30
0.0
11
956.11365
21
392.0
31
0.0
0
LINE
8
0
10
956.11365
20
392.0
30
0.0
11
945.5227
21
384.0
31
0.0
0
LINE
8
0
10
945.5227
20
384.0
30
0.0
11
945.5227
21
360.0
31
0.0
0
LINE
8
0
10
977.2955
20
368.0
30
0.0
11
987.88635
21
376.0
31
0.0
0
LINE
8
0
10
987.88635
20
376.0
30
0.0
11
998.47723
21
376.0
31
0.0
0
LINE
8
0
10
998.47723
20
376.0
30
0.0
11
1009.0682
21
368.0
31
0.0
0
LINE
8
0
10
1009.0682
20
368.0
30
0.0
11
1009.0682
21
376.0
31
0.0
0
LINE
8
0
10
1009.0682
20
376.0
30
0.0
11
998.47723
21
376.0
31
0.0
0
LINE
8
0
10
998.47723
20
376.0
30
0.0
11
998.47723
21
384.0
31
0.0
0
LINE
8
0
10
998.47723
20
384.0
30
0.0
11
1009.0682
21
392.0
31
0.0
0
LINE
8
0
10
1009.0682
20
392.0
30
0.0
11
998.47723
21
392.0
31
0.0
0
LINE
8
0
10
998.47723
20
392.0
30
0.0
11
998.47723
21
384.0
31
0.0
0
LINE
8
0
10
998.47723
20
384.0
30
0.0
11
987.88635
21
384.0
31
0.0
0
LINE
8
0
10
987.88635
20
384.0
30
0.0
11
987.88635
21
392.0
31
0.0
0
LINE
8
0
10
987.88635
20
392.0
30
0.0
11
977.2955
21
392.0
31
0.0
0
LINE
8
0
10
977.2955
20
392.0
30
0.0
11
987.88635
21
384.0
31
0.0
0
LINE
8
0
10
987.88635
20
384.0
30
0.0
11
987.88635
21
376.0
31
0.0
0
LINE
8
0
10
987.88635
20
376.0
30
0.0
11
977.2955
21
376.0
31
0.0
0
LINE
8
0
10
977.2955
20
376.0
30
0.0
11
977.2955
21
368.0
31
0.0
0
LINE
8
0
10
1019.6591
20
352.0
30
0.0
11
1030.25
21
352.0
31
0.0
0
LINE
8
0
10
1030.25
20
352.0
30
0.0
11
1030.25
21
376.0
31
0.0
0
LINE
8
0
10
1030.25
20
376.0
30
0.0
11
1019.6591
21
376.0
31
0.0
0
LINE
8
0
10
1019.6591
20
376.0
30
0.0
11
1019.6591
21
352.0
31
0.0
0
LINE
8
0
10
1019.6591
20
384.0
30
0.0
11
1030.25
21
384.0
31
0.0
0
LINE
8
0
10
1030.25
20
384.0
30
0.0
11
1030.25
21
392.0
31
0.0
0
LINE
8
0
10
1030.25
20
392.0
30
0.0
11
1019.6591
21
392.0
31
0.0
0
LINE
8
0
10
1019.6591
20
392.0
30
0.0
11
1019.6591
21
384.0
31
0.0
0
LINE
8
0
10
1040.8408
20
368.0
30
0.0
11
1062.0227
21
368.0
31
0.0
0
LINE
8
0
10
1062.0227
20
368.0
30
0.0
11
1062.0227
21
376.0
31
0.0
0
LINE
8
0
10
1062.0227
20
376.0
30
0.0
11
1040.8408
21
376.0
31
0.0
0
LINE
8
0
10
1040.8408
20
376.0
30
0.0
11
1040.8408
21
368.0
31
0.0
0
LINE
8
0
10
1040.8408
20
384.0
30
0.0
11
1062.0227
21
384.0
31
0.0
0
LINE
8
0
10
1062.0227
20
384.0
30
0.0
11
1062.0227
21
392.0
31
0.0
0
LINE
8
0
10
1062.0227
20
392.0
30
0.0
11
1040.8408
21
392.0
31
0.0
0
LINE
8
0
10
1040.8408
20
392.0
30
0.0
11
1040.8408
21
384.0
31
0.0
0
LINE
8
0
10
1083.2045
20
368.0
30
0.0
11
1093.7954
21
368.0
31
0.0
0
LINE
8
0
10
1093.7954
20
368.0
30
0.0
11
1093.7954
21
392.0
31
0.0
0
LINE
8
0
10
1093.7954
20
392.0
30
0.0
11
1083.2045
21
392.0
31
0.0
0
LINE
8
0
10
1083.2045
20
392.0
30
0.0
11
1083.2045
21
376.0
31
0.0
0
LINE
8
0
10
1083.2045
20
376.0
30
0.0
11
1072.6135
21
376.0
31
0.0
0
LINE
8
0
10
1072.6135
20
376.0
30
0.0
11
1083.2045
21
368.0
31
0.0
0
LINE
8
0
10
126.795456
20
426.0
30
0.0
11
137.38637
21
426.0
31
0.0
0
LINE
8
0
10
137.38637
20
426.0
30
0.0
11
147.97728
21
434.0
31
0.0
0
LINE
8
0
10
147.97728
20
434.0
30
0.0
11
147.97728
21
442.0
31
0.0
0
LINE
8
0
10
147.97728
20
442.0
30
0.0
11
126.795456
21
442.0
31
0.0
0
LINE
8
0
10
126.795456
20
442.0
30
0.0
11
137.38637
21
450.0
31
0.0
0
LINE
8
0
10
137.38637
20
450.0
30
0.0
11
126.795456
21
450.0
31
0.0
0
LINE
8
0
10
126.795456
20
450.0
30
0.0
11
116.204544
21
442.0
31
0.0
0
LINE
8
0
10
116.204544
20
442.0
30
0.0
11
116.204544
21
434.0
31
0.0
0
LINE
8
0
10
116.204544
20
434.0
30
0.0
11
126.795456
21
426.0
31
0.0
0
LINE
8
0
10
158.56818
20
410.0
30
0.0
11
169.15909
21
410.0
31
0.0
0
LINE
8
0
10
169.15909
20
410.0
30
0.0
11
169.15909
21
442.0
31
0.0
0
LINE
8
0
10
169.15909
20
442.0
30
0.0
11
179.75
21
442.0
31
0.0
0
LINE
8
0
10
179.75
20
442.0
30
0.0
11
179.75
21
450.0
31
0.0
0
LINE
8
0
10
179.75
20
450.0
30
0.0
11
158.56818
21
450.0
31
0.0
0
LINE
8
0
10
158.56818
20
450.0
30
0.0
11
158.56818
21
410.0
31
0.0
0
LINE
8
0
10
200.93181
20
426.0
30
0.0
11
211.52272
21
426.0
31
0.0
0
LINE
8
0
10
211.52272
20
426.0
30
0.0
11
222.11363
21
434.0
31
0.0
0
LINE
8
0
10
222.11363
20
434.0
30
0.0
11
211.52272
21
434.0
31
0.0
0
LINE
8
0
10
211.52272
20
434.0
30
0.0
11
222.11363
21
442.0
31
0.0
0
LINE
8
0
10
222.11363
20
442.0
30
0.0
11
211.52272
21
450.0
31
0.0
0
LINE
8
0
10
211.52272
20
450.0
30
0.0
11
200.93181
21
450.0
31
0.0
0
LINE
8
0
10
200.93181
20
450.0
30
0.0
11
190.3409
21
442.0
31
0.0
0
LINE
8
0
10
190.3409
20
442.0
30
0.0
11
200.93181
21
442.0
31
0.0
0
LINE
8
0
10
200.93181
20
442.0
30
0.0
11
190.3409
21
434.0
31
0.0
0
LINE
8
0
10
190.3409
20
434.0
30
0.0
11
200.93181
21
426.0
31
0.0
0
LINE
8
0
10
243.29546
20
426.0
30
0.0
11
253.88637
21
426.0
31
0.0
0
LINE
8
0
10
253.88637
20
426.0
30
0.0
11
264.47726
21
434.0
31
0.0
0
LINE
8
0
10
264.47726
20
434.0
30
0.0
11
264.47726
21
442.0
31
0.0
0
LINE
8
0
10
264.47726
20
442.0
30
0.0
11
243.29546
21
442.0
31
0.0
0
LINE
8
0
10
243.29546
20
442.0
30
0.0
11
253.88637
21
450.0
31
0.0
0
LINE
8
0
10
253.88637
20
450.0
30
0.0
11
243.29546
21
450.0
31
0.0
0
LINE
8
0
10
243.29546
20
450.0
30
0.0
11
232.70454
21
442.0
31
0.0
0
LINE
8
0
10
232.70454
20
442.0
30
0.0
11
232.70454
21
434.0
31
0.0
0
LINE
8
0
10
232.70454
20
434.0
30
0.0
11
243.29546
21
426.0
31
0.0
0
LINE
8
0
10
296.24997
20
418.0
30
0.0
11
306.8409
21
410.0
31
0.0
0
LINE
8
0
10
306.8409
20
410.0
30
0.0
11
317.4318
21
410.0
31
0.0
0
LINE
8
0
10
317.4318
20
410.0
30
0.0
11
306.8409
21
418.0
31
0.0
0
LINE
8
0
10
306.8409
20
418.0
30
0.0
11
306.8409
21
442.0
31
0.0
0
LINE
8
0
10
306.8409
20
442.0
30
0.0
11
317.4318
21
450.0
31
0.0
0
LINE
8
0
10
317.4318
20
450.0
30
0.0
11
306.8409
21
450.0
31
0.0
0
LINE
8
0
10
306.8409
20
450.0
30
0.0
11
296.24997
21
442.0
31
0.0
0
LINE
8
0
10
296.24997
20
442.0
30
0.0
11
296.24997
21
434.0
31
0.0
0
LINE
8
0
10
296.24997
20
434.0
30
0.0
11
285.6591
21
434.0
31
0.0
0
LINE
8
0
10
285.6591
20
434.0
30
0.0
11
296.24997
21
426.0
31
0.0
0
LINE
8
0
10
296.24997
20
426.0
30
0.0
11
296.24997
21
418.0
31
0.0
0
LINE
8
0
10
338.0227
20
410.0
30
0.0
11
348.61362
21
410.0
31
0.0
0
LINE
8
0
10
348.61362
20
410.0
30
0.0
11
359.20453
21
418.0
31
0.0
0
LINE
8
0
10
359.20453
20
418.0
30
0.0
11
359.20453
21
426.0
31
0.0
0
LINE
8
0
10
359.20453
20
426.0
30
0.0
11
369.79544
21
434.0
31
0.0
0
LINE
8
0
10
369.79544
20
434.0
30
0.0
11
359.20453
21
434.0
31
0.0
0
LINE
8
0
10
359.20453
20
434.0
30
0.0
11
359.20453
21
442.0
31
0.0
0
LINE
8
0
10
359.20453
20
442.0
30
0.0
11
348.61362
21
450.0
31
0.0
0
LINE
8
0
10
348.61362
20
450.0
30
0.0
11
338.0227
21
450.0
31
0.0
0
LINE
8
0
10
338.0227
20
450.0
30
0.0
11
348.61362
21
442.0
31
0.0
0
LINE
8
0
10
348.61362
20
442.0
30
0.0
11
348.61362
21
418.0
31
0.0
0
LINE
8
0
10
348.61362
20
418.0
30
0.0
11
338.0227
21
410.0
31
0.0
0
LINE
8
0
10
380.38635
20
426.0
30
0.0
11
390.97726
21
434.0
31
0.0
0
LINE
8
0
10
390.97726
20
434.0
30
0.0
11
401.56815
21
434.0
31
0.0
0
LINE
8
0
10
401.56815
20
434.0
30
0.0
11
412.15906
21
426.0
31
0.0
0
LINE
8
0
10
412.15906
20
426.0
30
0.0
11
412.15906
21
434.0
31
0.0
0
LINE
8
0
10
412.15906
20
434.0
30
0.0
11
401.56815
21
434.0
31
0.0
0
LINE
8
0
10
401.56815
20
434.0
30
0.0
11
401.56815
21
442.0
31
0.0
0
LINE
8
0
10
401.56815
20
442.0
30
0.0
11
412.15906
21
450.0
31
0.0
0
LINE
8
0
10
412.15906
20
450.0
30
0.0
11
401.56815
21
450.0
31
0.0
0
LINE
8
0
10
401.56815
20
450.0
30
0.0
11
401.56815
21
442.0
31
0.0
0
LINE
8
0
10
401.56815
20
442.0
30
0.0
11
390.97726
21
442.0
31
0.0
0
LINE
8
0
10
390.97726
20
442.0
30
0.0
11
390.97726
21
450.0
31
0.0
0
LINE
8
0
10
390.97726
20
450.0
30
0.0
11
380.38635
21
450.0
31
0.0
0
LINE
8
0
10
380.38635
20
450.0
30
0.0
11
390.97726
21
442.0
31
0.0
0
LINE
8
0
10
390.97726
20
442.0
30
0.0
11
390.97726
21
434.0
31
0.0
0
LINE
8
0
10
390.97726
20
434.0
30
0.0
11
380.38635
21
434.0
31
0.0
0
LINE
8
0
10
380.38635
20
434.0
30
0.0
11
380.38635
21
426.0
31
0.0
0
LINE
8
0
10
433.34088
20
426.0
30
0.0
11
443.9318
21
426.0
31
0.0
0
LINE
8
0
10
443.9318
20
426.0
30
0.0
11
443.9318
21
434.0
31
0.0
0
LINE
8
0
10
443.9318
20
434.0
30
0.0
11
454.5227
21
442.0
31
0.0
0
LINE
8
0
10
454.5227
20
442.0
30
0.0
11
443.9318
21
442.0
31
0.0
0
LINE
8
0
10
443.9318
20
442.0
30
0.0
11
443.9318
21
450.0
31
0.0
0
LINE
8
0
10
443.9318
20
450.0
30
0.0
11
433.34088
21
450.0
31
0.0
0
LINE
8
0
10
433.34088
20
450.0
30
0.0
11
433.34088
21
442.0
31
0.0
0
LINE
8
0
10
433.34088
20
442.0
30
0.0
11
422.74997
21
442.0
31
0.0
0
LINE
8
0
10
422.74997
20
442.0
30
0.0
11
433.34088
21
434.0
31
0.0
0
LINE
8
0
10
433.34088
20
434.0
30
0.0
11
433.34088
21
426.0
31
0.0
0
LINE
8
0
10
475.70453
20
426.0
30
0.0
11
486.29544
21
426.0
31
0.0
0
LINE
8
0
10
486.29544
20
426.0
30
0.0
11
486.29544
21
450.0
31
0.0
0
LINE
8
0
10
486.29544
20
450.0
30
0.0
11
475.70453
21
450.0
31
0.0
0
LINE
8
0
10
475.70453
20
450.0
30
0.0
11
475.70453
21
434.0
31
0.0
0
LINE
8
0
10
475.70453
20
434.0
30
0.0
11
465.11362
21
434.0
31
0.0
0
LINE
8
0
10
465.11362
20
434.0
30
0.0
11
475.70453
21
426.0
31
0.0
0
LINE
8
0
10
507.47726
20
426.0
30
0.0
11
518.0682
21
426.0
31
0.0
0
LINE
8
0
10
518.0682
20
426.0
30
0.0
11
528.6591
21
434.0
31
0.0
0
LINE
8
0
10
528.6591
20
434.0
30
0.0
11
528.6591
21
442.0
31
0.0
0
LINE
8
0
10
528.6591
20
442.0
30
0.0
11
518.0682
21
450.0
31
0.0
0
LINE
8
0
10
518.0682
20
450.0
30
0.0
11
507.47726
21
450.0
31
0.0
0
LINE
8
0
10
507.47726
20
450.0
30
0.0
11
496.88632
21
442.0
31
0.0
0
LINE
8
0
10
496.88632
20
442.0
30
0.0
11
496.88632
21
434.0
31
0.0
0
LINE
8
0
10
496.88632
20
434.0
30
0.0
11
507.47726
21
426.0
31
0.0
0
LINE
8
0
10
559.8409
20
418.0
30
0.0
11
570.43176
21
418.0
31
0.0
0
LINE
8
0
10
570.43176
20
418.0
30
0.0
11
570.43176
21
426.0
31
0.0
0
LINE
8
0
10
570.43176
20
426.0
30
0.0
11
559.8409
21
426.0
31
0.0
0
LINE
8
0
10
559.8409
20
426.0
30
0.0
11
559.8409
21
418.0
31
0.0
0
LINE
8
0
10
559.8409
20
434.0
30
0.0
11
570.43176
21
434.0
31
0.0
0
LINE
8
0
10
570.43176
20
434.0
30
0.0
11
570.43176
21
450.0
31
0.0
0
LINE
8
0
10
570.43176
20
450.0
30
0.0
11
559.8409
21
450.0
31
0.0
0
LINE
8
0
10
559.8409
20
450.0
30
0.0
11
559.8409
21
434.0
31
0.0
0
LINE
8
0
10
581.0227
20
410.0
30
0.0
11
591.6136
21
410.0
31
0.0
0
LINE
8
0
10
591.6136
20
410.0
30
0.0
11
602.2045
21
418.0
31
0.0
0
LINE
8
0
10
602.2045
20
418.0
30
0.0
11
591.6136
21
418.0
31
0.0
0
LINE
8
0
10
591.6136
20
418.0
30
0.0
11
591.6136
21
426.0
31
0.0
0
LINE
8
0
10
591.6136
20
426.0
30
0.0
11
602.2045
21
434.0
31
0.0
0
LINE
8
0
10
602.2045
20
434.0
30
0.0
11
591.6136
21
434.0
31
0.0
0
LINE
8
0
10
591.6136
20
434.0
30
0.0
11
591.6136
21
450.0
31
0.0
0
LINE
8
0
10
591.6136
20
450.0
30
0.0
11
581.0227
21
450.0
31
0.0
0
LINE
8
0
10
581.0227
20
450.0
30
0.0
11
581.0227
21
410.0
31
0.0
0
LINE
8
0
10
612.7954
20
418.0
30
0.0
11
623.38635
21
410.0
31
0.0
0
LINE
8
0
10
623.38635
20
410.0
30
0.0
11
633.97723
21
410.0
31
0.0
0
LINE
8
0
10
633.97723
20
410.0
30
0.0
11
623.38635
21
418.0
31
0.0
0
LINE
8
0
10
623.38635
20
418.0
30
0.0
11
623.38635
21
442.0
31
0.0
0
LINE
8
0
10
623.38635
20
442.0
30
0.0
11
633.97723
21
450.0
31
0.0
0
LINE
8
0
10
633.97723
20
450.0
30
0.0
11
623.38635
21
450.0
31
0.0
0
LINE
8
0
10
623.38635
20
450.0
30
0.0
11
612.7954
21
442.0
31
0.0
0
LINE
8
0
10
612.7954
20
442.0
30
0.0
11
612.7954
21
418.0
31
0.0
0
LINE
8
0
10
644.5682
20
426.0
30
0.0
11
655.15906
21
434.0
31
0.0
0
LINE
8
0
10
655.15906
20
434.0
30
0.0
11
665.74994
21
434.0
31
0.0
0
LINE
8
0
10
665.74994
20
434.0
30
0.0
11
676.3409
21
426.0
31
0.0
0
LINE
8
0
10
676.3409
20
426.0
30
0.0
11
676.3409
21
434.0
31
0.0
0
LINE
8
0
10
676.3409
20
434.0
30
0.0
11
665.74994
21
434.0
31
0.0
0
LINE
8
0
10
665.74994
20
434.0
30
0.0
11
665.74994
21
442.0
31
0.0
0
LINE
8
0
10
665.74994
20
442.0
30
0.0
11
676.3409
21
450.0
31
0.0
0
LINE
8
0
10
676.3409
20
450.0
30
0.0
11
665.74994
21
450.0
31
0.0
0
LINE
8
0
10
665.74994
20
450.0
30
0.0
11
665.74994
21
442.0
31
0.0
0
LINE
8
0
10
665.74994
20
442.0
30
0.0
11
655.15906
21
442.0
31
0.0
0
LINE
8
0
10
655.15906
20
442.0
30
0.0
11
655.15906
21
450.0
31
0.0
0
LINE
8
0
10
655.15906
20
450.0
30
0.0
11
644.5682
21
450.0
31
0.0
0
LINE
8
0
10
644.5682
20
450.0
30
0.0
11
655.15906
21
442.0
31
0.0
0
LINE
8
0
10
655.15906
20
442.0
30
0.0
11
655.15906
21
434.0
31
0.0
0
LINE
8
0
10
655.15906
20
434.0
30
0.0
11
644.5682
21
434.0
31
0.0
0
LINE
8
0
10
644.5682
20
434.0
30
0.0
11
644.5682
21
426.0
31
0.0
0
LINE
8
0
10
686.9318
20
410.0
30
0.0
11
697.5227
21
410.0
31
0.0
0
LINE
8
0
10
697.5227
20
410.0
30
0.0
11
697.5227
21
434.0
31
0.0
0
LINE
8
0
10
697.5227
20
434.0
30
0.0
11
686.9318
21
434.0
31
0.0
0
LINE
8
0
10
686.9318
20
434.0
30
0.0
11
686.9318
21
410.0
31
0.0
0
LINE
8
0
10
686.9318
20
442.0
30
0.0
11
697.5227
21
442.0
31
0.0
0
LINE
8
0
10
697.5227
20
442.0
30
0.0
11
697.5227
21
450.0
31
0.0
0
LINE
8
0
10
697.5227
20
450.0
30
0.0
11
686.9318
21
450.0
31
0.0
0
LINE
8
0
10
686.9318
20
450.0
30
0.0
11
686.9318
21
442.0
31
0.0
0
LINE
8
0
10
708.1136
20
426.0
30
0.0
11
729.2954
21
426.0
31
0.0
0
LINE
8
0
10
729.2954
20
426.0
30
0.0
11
729.2954
21
434.0
31
0.0
0
LINE
8
0
10
729.2954
20
434.0
30
0.0
11
708.1136
21
434.0
31
0.0
0
LINE
8
0
10
708.1136
20
434.0
30
0.0
11
708.1136
21
426.0
31
0.0
0
LINE
8
0
10
708.1136
20
442.0
30
0.0
11
729.2954
21
442.0
31
0.0
0
LINE
8
0
10
729.2954
20
442.0
30
0.0
11
729.2954
21
450.0
31
0.0
0
LINE
8
0
10
729.2954
20
450.0
30
0.0
11
708.1136
21
450.0
31
0.0
0
LINE
8
0
10
708.1136
20
450.0
30
0.0
11
708.1136
21
442.0
31
0.0
0
LINE
8
0
10
750.47723
20
426.0
30
0.0
11
761.0682
21
426.0
31
0.0
0
LINE
8
0
10
761.0682
20
426.0
30
0.0
11
761.0682
21
450.0
31
0.0
0
LINE
8
0
10
761.0682
20
450.0
30
0.0
11
750.47723
21
450.0
31
0.0
0
LINE
8
0
10
750.47723
20
450.0
30
0.0
11
750.47723
21
434.0
31
0.0
0
LINE
8
0
10
750.47723
20
434.0
30
0.0
11
739.88635
21
434.0
31
0.0
0
LINE
8
0
10
739.88635
20
434.0
30
0.0
11
750.47723
21
426.0
31
0.0
0
LINE
8
0
10
781.6591
20
410.0
30
0.0
11
792.25
21
410.0
31
0.0
0
LINE
8
0
10
792.25
20
410.0
30
0.0
11
802.84094
21
418.0
31
0.0
0
LINE
8
0
10
802.84094
20
418.0
30
0.0
11
802.84094
21
426.0
31
0.0
0
LINE
8
0
10
802.84094
20
426.0
30
0.0
11
813.4318
21
434.0
31
0.0
0
LINE
8
0
10
813.4318
20
434.0
30
0.0
11
802.84094
21
434.0
31
0.0
0
LINE
8
0
10
802.84094
20
434.0
30
0.0
11
802.84094
21
442.0
31
0.0
0
LINE
8
0
10
802.84094
20
442.0
30
0.0
11
792.25
21
450.0
31
0.0
0
LINE
8
0
10
792.25
20
450.0
30
0.0
11
781.6591
21
450.0
31
0.0
0
LINE
8
0
10
781.6591
20
450.0
30
0.0
11
792.25
21
442.0
31
0.0
0
LINE
8
0
10
792.25
20
442.0
30
0.0
11
792.25
21
418.0
31
0.0
0
LINE
8
0
10
792.25
20
418.0
30
0.0
11
781.6591
21
410.0
31
0.0
0
LINE
8
0
10
824.02277
20
426.0
30
0.0
11
834.61365
21
434.0
31
0.0
0
LINE
8
0
10
834.61365
20
434.0
30
0.0
11
845.2046
21
434.0
31
0.0
0
LINE
8
0
10
845.2046
20
434.0
30
0.0
11
855.7955
21
426.0
31
0.0
0
LINE
8
0
10
855.7955
20
426.0
30
0.0
11
855.7955
21
434.0
31
0.0
0
LINE
8
0
10
855.7955
20
434.0
30
0.0
11
845.2046
21
434.0
31
0.0
0
LINE
8
0
10
845.2046
20
434.0
30
0.0
11
845.2046
21
442.0
31
0.0
0
LINE
8
0
10
845.2046
20
442.0
30
0.0
11
855.7955
21
450.0
31
0.0
0
LINE
8
0
10
855.7955
20
450.0
30
0.0
11
845.2046
21
450.0
31
0.0
0
LINE
8
0
10
845.2046
20
450.0
30
0.0
11
845.2046
21
442.0
31
0.0
0
LINE
8
0
10
845.2046
20
442.0
30
0.0
11
834.61365
21
442.0
31
0.0
0
LINE
8
0
10
834.61365
20
442.0
30
0.0
11
834.61365
21
450.0
31
0.0
0
LINE
8
0
10
834.61365
20
450.0
30
0.0
11
824.02277
21
450.0
31
0.0
0
LINE
8
0
10
824.02277
20
450.0
30
0.0
11
834.61365
21
442.0
31
0.0
0
LINE
8
0
10
834.61365
20
442.0
30
0.0
11
834.61365
21
434.0
31
0.0
0
LINE
8
0
10
834.61365
20
434.0
30
0.0
11
824.02277
21
434.0
31
0.0
0
LINE
8
0
10
824.02277
20
434.0
30
0.0
11
824.02277
21
426.0
31
0.0
0
LINE
8
0
10
876.9773
20
426.0
30
0.0
11
887.5682
21
426.0
31
0.0
0
LINE
8
0
10
887.5682
20
426.0
30
0.0
11
887.5682
21
434.0
31
0.0
0
LINE
8
0
10
887.5682
20
434.0
30
0.0
11
898.1591
21
442.0
31
0.0
0
LINE
8
0
10
898.1591
20
442.0
30
0.0
11
887.5682
21
442.0
31
0.0
0
LINE
8
0
10
887.5682
20
442.0
30
0.0
11
887.5682
21
450.0
31
0.0
0
LINE
8
0
10
887.5682
20
450.0
30
0.0
11
876.9773
21
450.0
31
0.0
0
LINE
8
0
10
876.9773
20
450.0
30
0.0
11
876.9773
21
442.0
31
0.0
0
LINE
8
0
10
876.9773
20
442.0
30
0.0
11
866.3864
21
442.0
31
0.0
0
LINE
8
0
10
866.3864
20
442.0
30
0.0
11
876.9773
21
434.0
31
0.0
0
LINE
8
0
10
876.9773
20
434.0
30
0.0
11
876.9773
21
426.0
31
0.0
0
LINE
8
0
10
919.34094
20
426.0
30
0.0
11
929.9318
21
426.0
31
0.0
0
LINE
8
0
10
929.9318
20
426.0
30
0.0
11
929.9318
21
450.0
31
0.0
0
LINE
8
0
10
929.9318
20
450.0
30
0.0
11
919.34094
21
450.0
31
0.0
0
LINE
8
0
10
919.34094
20
450.0
30
0.0
11
919.34094
21
434.0
31
0.0
0
LINE
8
0
10
919.34094
20
434.0
30
0.0
11
908.75006
21
434.0
31
0.0
0
LINE
8
0
10
908.75006
20
434.0
30
0.0
11
919.34094
21
426.0
31
0.0
0
LINE
8
0
10
951.11365
20
426.0
30
0.0
11
961.7046
21
426.0
31
0.0
0
LINE
8
0
10
961.7046
20
426.0
30
0.0
11
972.2955
21
434.0
31
0.0
0
LINE
8
0
10
972.2955
20
434.0
30
0.0
11
972.2955
21
442.0
31
0.0
0
LINE
8
0
10
972.2955
20
442.0
30
0.0
11
961.7046
21
450.0
31
0.0
0
LINE
8
0
10
961.7046
20
450.0
30
0.0
11
951.11365
21
450.0
31
0.0
0
LINE
8
0
10
951.11365
20
450.0
30
0.0
11
940.52277
21
442.0
31
0.0
0
LINE
8
0
10
940.52277
20
442.0
30
0.0
11
940.52277
21
434.0
31
0.0
0
LINE
8
0
10
940.52277
20
434.0
30
0.0
11
951.11365
21
426.0
31
0.0
0
LINE
8
0
10
237.70454
20
484.0
30
0.0
11
248.29546
21
484.0
31
0.0
0
LINE
8
0
10
248.29546
20
484.0
30
0.0
11
258.88635
21
492.0
31
0.0
0
LINE
8
0
10
258.88635
20
492.0
30
0.0
11
258.88635
21
500.0
31
0.0
0
LINE
8
0
10
258.88635
20
500.0
30
0.0
11
237.70454
21
500.0
31
0.0
0
LINE
8
0
10
237.70454
20
500.0
30
0.0
11
248.29546
21
508.0
31
0.0
0
LINE
8
0
10
248.29546
20
508.0
30
0.0
11
237.70454
21
508.0
31
0.0
0
LINE
8
0
10
237.70454
20
508.0
30
0.0
11
227.11363
21
500.0
31
0.0
0
LINE
8
0
10
227.11363
20
500.0
30
0.0
11
227.11363
21
492.0
31
0.0
0
LINE
8
0
10
227.11363
20
492.0
30
0.0
11
237.70454
21
484.0
31
0.0
0
LINE
8
0
10
269.47726
20
468.0
30
0.0
11
280.06815
21
468.0
31
0.0
0
LINE
8
0
10
280.06815
20
468.0
30
0.0
11
280.06815
21
500.0
31
0.0
0
LINE
8
0
10
280.06815
20
500.0
30
0.0
11
290.6591
21
500.0
31
0.0
0
LINE
8
0
10
290.6591
20
500.0
30
0.0
11
290.6591
21
508.0
31
0.0
0
LINE
8
0
10
290.6591
20
508.0
30
0.0
11
269.47726
21
508.0
31
0.0
0
LINE
8
0
10
269.47726
20
508.0
30
0.0
11
269.47726
21
468.0
31
0.0
0
LINE
8
0
10
311.84088
20
484.0
30
0.0
11
322.4318
21
484.0
31
0.0
0
LINE
8
0
10
322.4318
20
484.0
30
0.0
11
333.0227
21
492.0
31
0.0
0
LINE
8
0
10
333.0227
20
492.0
30
0.0
11
322.4318
21
492.0
31
0.0
0
LINE
8
0
10
322.4318
20
492.0
30
0.0
11
333.0227
21
500.0
31
0.0
0
LINE
8
0
10
333.0227
20
500.0
30
0.0
11
322.4318
21
508.0
31
0.0
0
LINE
8
0
10
322.4318
20
508.0
30
0.0
11
311.84088
21
508.0
31
0.0
0
LINE
8
0
10
311.84088
20
508.0
30
0.0
11
301.24997
21
500.0
31
0.0
0
LINE
8
0
10
301.24997
20
500.0
30
0.0
11
311.84088
21
500.0
31
0.0
0
LINE
8
0
10
311.84088
20
500.0
30
0.0
11
301.24997
21
492.0
31
0.0
0
LINE
8
0
10
301.24997
20
492.0
30
0.0
11
311.84088
21
484.0
31
0.0
0
LINE
8
0
10
354.20453
20
484.0
30
0.0
11
364.79544
21
484.0
31
0.0
0
LINE
8
0
10
364.79544
20
484.0
30
0.0
11
375.38632
21
492.0
31
0.0
0
LINE
8
0
10
375.38632
20
492.0
30
0.0
11
375.38632
21
500.0
31
0.0
0
LINE
8
0
10
375.38632
20
500.0
30
0.0
11
354.20453
21
500.0
31
0.0
0
LINE
8
0
10
354.20453
20
500.0
30
0.0
11
364.79544
21
508.0
31
0.0
0
LINE
8
0
10
364.79544
20
508.0
30
0.0
11
354.20453
21
508.0
31
0.0
0
LINE
8
0
10
354.20453
20
508.0
30
0.0
11
343.61362
21
500.0
31
0.0
0
LINE
8
0
10
343.61362
20
500.0
30
0.0
11
343.61362
21
492.0
31
0.0
0
LINE
8
0
10
343.61362
20
492.0
30
0.0
11
354.20453
21
484.0
31
0.0
0
LINE
8
0
10
407.1591
20
476.0
30
0.0
11
417.74997
21
468.0
31
0.0
0
LINE
8
0
10
417.74997
20
468.0
30
0.0
11
428.34088
21
468.0
31
0.0
0
LINE
8
0
10
428.34088
20
468.0
30
0.0
11
417.74997
21
476.0
31
0.0
0
LINE
8
0
10
417.74997
20
476.0
30
0.0
11
417.74997
21
500.0
31
0.0
0
LINE
8
0
10
417.74997
20
500.0
30
0.0
11
428.34088
21
508.0
31
0.0
0
LINE
8
0
10
428.34088
20
508.0
30
0.0
11
417.74997
21
508.0
31
0.0
0
LINE
8
0
10
417.74997
20
508.0
30
0.0
11
407.1591
21
500.0
31
0.0
0
LINE
8
0
10
407.1591
20
500.0
30
0.0
11
407.1591
21
492.0
31
0.0
0
LINE
8
0
10
407.1591
20
492.0
30
0.0
11
396.56815
21
492.0
31
0.0
0
LINE
8
0
10
396.56815
20
492.0
30
0.0
11
407.1591
21
484.0
31
0.0
0
LINE
8
0
10
407.1591
20
484.0
30
0.0
11
407.1591
21
476.0
31
0.0
0
LINE
8
0
10
448.9318
20
468.0
30
0.0
11
459.5227
21
468.0
31
0.0
0
LINE
8
0
10
459.5227
20
468.0
30
0.0
11
470.11362
21
476.0
31
0.0
0
LINE
8
0
10
470.11362
20
476.0
30
0.0
11
470.11362
21
484.0
31
0.0
0
LINE
8
0
10
470.11362
20
484.0
30
0.0
11
480.70453
21
492.0
31
0.0
0
LINE
8
0
10
480.70453
20
492.0
30
0.0
11
470.11362
21
492.0
31
0.0
0
LINE
8
0
10
470.11362
20
492.0
30
0.0
11
470.11362
21
500.0
31
0.0
0
LINE
8
0
10
470.11362
20
500.0
30
0.0
11
459.5227
21
508.0
31
0.0
0
LINE
8
0
10
459.5227
20
508.0
30
0.0
11
448.9318
21
508.0
31
0.0
0
LINE
8
0
10
448.9318
20
508.0
30
0.0
11
459.5227
21
500.0
31
0.0
0
LINE
8
0
10
459.5227
20
500.0
30
0.0
11
459.5227
21
476.0
31
0.0
0
LINE
8
0
10
459.5227
20
476.0
30
0.0
11
448.9318
21
468.0
31
0.0
0
LINE
8
0
10
491.29544
20
484.0
30
0.0
11
501.88632
21
492.0
31
0.0
0
LINE
8
0
10
501.88632
20
492.0
30
0.0
11
512.4773
21
492.0
31
0.0
0
LINE
8
0
10
512.4773
20
492.0
30
0.0
11
523.0682
21
484.0
31
0.0
0
LINE
8
0
10
523.0682
20
484.0
30
0.0
11
523.0682
21
492.0
31
0.0
0
LINE
8
0
10
523.0682
20
492.0
30
0.0
11
512.4773
21
492.0
31
0.0
0
LINE
8
0
10
512.4773
20
492.0
30
0.0
11
512.4773
21
500.0
31
0.0
0
LINE
8
0
10
512.4773
20
500.0
30
0.0
11
523.0682
21
508.0
31
0.0
0
LINE
8
0
10
523.0682
20
508.0
30
0.0
11
512.4773
21
508.0
31
0.0
0
LINE
8
0
10
512.4773
20
508.0
30
0.0
11
512.4773
21
500.0
31
0.0
0
LINE
8
0
10
512.4773
20
500.0
30
0.0
11
501.88632
21
500.0
31
0.0
0
LINE
8
0
10
501.88632
20
500.0
30
0.0
11
501.88632
21
508.0
31
0.0
0
LINE
8
0
10
501.88632
20
508.0
30
0.0
11
491.29544
21
508.0
31
0.0
0
LINE
8
0
10
491.29544
20
508.0
30
0.0
11
501.88632
21
500.0
31
0.0
0
LINE
8
0
10
501.88632
20
500.0
30
0.0
11
501.88632
21
492.0
31
0.0
0
LINE
8
0
10
501.88632
20
492.0
30
0.0
11
491.29544
21
492.0
31
0.0
0
LINE
8
0
10
491.29544
20
492.0
30
0.0
11
491.29544
21
484.0
31
0.0
0
LINE
8
0
10
544.25
20
484.0
30
0.0
11
554.8409
21
484.0
31
0.0
0
LINE
8
0
10
554.8409
20
484.0
30
0.0
11
554.8409
21
492.0
31
0.0
0
LINE
8
0
10
554.8409
20
492.0
30
0.0
11
565.4318
21
500.0
31
0.0
0
LINE
8
0
10
565.4318
20
500.0
30
0.0
11
554.8409
21
500.0
31
0.0
0
LINE
8
0
10
554.8409
20
500.0
30
0.0
11
554.8409
21
508.0
31
0.0
0
LINE
8
0
10
554.8409
20
508.0
30
0.0
11
544.25
21
508.0
31
0.0
0
LINE
8
0
10
544.25
20
508.0
30
0.0
11
544.25
21
500.0
31
0.0
0
LINE
8
0
10
544.25
20
500.0
30
0.0
11
533.6591
21
500.0
31
0.0
0
LINE
8
0
10
533.6591
20
500.0
30
0.0
11
544.25
21
492.0
31
0.0
0
LINE
8
0
10
544.25
20
492.0
30
0.0
11
544.25
21
484.0
31
0.0
0
LINE
8
0
10
586.61365
20
484.0
30
0.0
11
597.2045
21
484.0
31
0.0
0
LINE
8
0
10
597.2045
20
484.0
30
0.0
11
597.2045
21
508.0
31
0.0
0
LINE
8
0
10
597.2045
20
508.0
30
0.0
11
586.61365
21
508.0
31
0.0
0
LINE
8
0
10
586.61365
20
508.0
30
0.0
11
586.61365
21
492.0
31
0.0
0
LINE
8
0
10
586.61365
20
492.0
30
0.0
11
576.02277
21
492.0
31
0.0
0
LINE
8
0
10
576.02277
20
492.0
30
0.0
11
586.61365
21
484.0
31
0.0
0
LINE
8
0
10
618.38635
20
484.0
30
0.0
11
628.9773
21
484.0
31
0.0
0
LINE
8
0
10
628.9773
20
484.0
30
0.0
11
639.5682
21
492.0
31
0.0
0
LINE
8
0
10
639.5682
20
492.0
30
0.0
11
639.5682
21
500.0
31
0.0
0
LINE
8
0
10
639.5682
20
500.0
30
0.0
11
628.9773
21
508.0
31
0.0
0
LINE
8
0
10
628.9773
20
508.0
30
0.0
11
618.38635
21
508.0
31
0.0
0
LINE
8
0
10
618.38635
20
508.0
30
0.0
11
607.7955
21
500.0
31
0.0
0
LINE
8
0
10
607.7955
20
500.0
30
0.0
11
607.7955
21
492.0
31
0.0
0
LINE
8
0
10
607.7955
20
492.0
30
0.0
11
618.38635
21
484.0
31
0.0
0
LINE
8
0
10
681.3409
20
484.0
30
0.0
11
691.9318
21
484.0
31
0.0
0
LINE
8
0
10
691.9318
20
484.0
30
0.0
11
702.5227
21
492.0
31
0.0
0
LINE
8
0
10
702.5227
20
492.0
30
0.0
11
702.5227
21
500.0
31
0.0
0
LINE
8
0
10
702.5227
20
500.0
30
0.0
11
681.3409
21
500.0
31
0.0
0
LINE
8
0
10
681.3409
20
500.0
30
0.0
11
691.9318
21
508.0
31
0.0
0
LINE
8
0
10
691.9318
20
508.0
30
0.0
11
681.3409
21
508.0
31
0.0
0
LINE
8
0
10
681.3409
20
508.0
30
0.0
11
670.75
21
500.0
31
0.0
0
LINE
8
0
10
670.75
20
500.0
30
0.0
11
670.75
21
492.0
31
0.0
0
LINE
8
0
10
670.75
20
492.0
30
0.0
11
681.3409
21
484.0
31
0.0
0
LINE
8
0
10
713.11365
20
468.0
30
0.0
11
723.7045
21
468.0
31
0.0
0
LINE
8
0
10
723.7045
20
468.0
30
0.0
11
723.7045
21
500.0
31
0.0
0
LINE
8
0
10
723.7045
20
500.0
30
0.0
11
734.2955
21
500.0
31
0.0
0
LINE
8
0
10
734.2955
20
500.0
30
0.0
11
734.2955
21
508.0
31
0.0
0
LINE
8
0
10
734.2955
20
508.0
30
0.0
11
713.11365
21
508.0
31
0.0
0
LINE
8
0
10
713.11365
20
508.0
30
0.0
11
713.11365
21
468.0
31
0.0
0
LINE
8
0
10
755.4773
20
484.0
30
0.0
11
766.0682
21
484.0
31
0.0
0
LINE
8
0
10
766.0682
20
484.0
30
0.0
11
776.6591
21
492.0
31
0.0
0
LINE
8
0
10
776.6591
20
492.0
30
0.0
11
766.0682
21
492.0
31
0.0
0
LINE
8
0
10
766.0682
20
492.0
30
0.0
11
776.6591
21
500.0
31
0.0
0
LINE
8
0
10
776.6591
20
500.0
30
0.0
11
766.0682
21
508.0
31
0.0
0
LINE
8
0
10
766.0682
20
508.0
30
0.0
11
755.4773
21
508.0
31
0.0
0
LINE
8
0
10
755.4773
20
508.0
30
0.0
11
744.88635
21
500.0
31
0.0
0
LINE
8
0
10
744.88635
20
500.0
30
0.0
11
755.4773
21
500.0
31
0.0
0
LINE
8
0
10
755.4773
20
500.0
30
0.0
11
744.88635
21
492.0
31
0.0
0
LINE
8
0
10
744.88635
20
492.0
30
0.0
11
755.4773
21
484.0
31
0.0
0
LINE
8
0
10
797.8409
20
484.0
30
0.0
11
808.4318
21
484.0
31
0.0
0
LINE
8
0
10
808.4318
20
484.0
30
0.0
11
819.0227
21
492.0
31
0.0
0
LINE
8
0
10
819.0227
20
492.0
30
0.0
11
819.0227
21
500.0
31
0.0
0
LINE
8
0
10
819.0227
20
500.0
30
0.0
11
797.8409
21
500.0
31
0.0
0
LINE
8
0
10
797.8409
20
500.0
30
0.0
11
808.4318
21
508.0
31
0.0
0
LINE
8
0
10
808.4318
20
508.0
30
0.0
11
797.8409
21
508.0
31
0.0
0
LINE
8
0
10
797.8409
20
508.0
30
0.0
11
787.25
21
500.0
31
0.0
0
LINE
8
0
10
787.25
20
500.0
30
0.0
11
787.25
21
492.0
31
0.0
0
LINE
8
0
10
787.25
20
492.0
30
0.0
11
797.8409
21
484.0
31
0.0
0
LINE
8
0
10
850.7955
20
476.0
30
0.0
11
861.38635
21
468.0
31
0.0
0
LINE
8
0
10
861.38635
20
468.0
30
0.0
11
871.97723
21
468.0
31
0.0
0
LINE
8
0
10
871.97723
20
468.0
30
0.0
11
861.38635
21
476.0
31
0.0
0
LINE
8
0
10
861.38635
20
476.0
30
0.0
11
861.38635
21
500.0
31
0.0
0
LINE
8
0
10
861.38635
20
500.0
30
0.0
11
871.97723
21
508.0
31
0.0
0
LINE
8
0
10
871.97723
20
508.0
30
0.0
11
861.38635
21
508.0
31
0.0
0
LINE
8
0
10
861.38635
20
508.0
30
0.0
11
850.7955
21
500.0
31
0.0
0
LINE
8
0
10
850.7955
20
500.0
30
0.0
11
850.7955
21
492.0
31
0.0
0
LINE
8
0
10
850.7955
20
492.0
30
0.0
11
840.2045
21
492.0
31
0.0
0
LINE
8
0
10
840.2045
20
492.0
30
0.0
11
850.7955
21
484.0
31
0.0
0
LINE
8
0
10
850.7955
20
484.0
30
0.0
11
850.7955
21
476.0
31
0.0
0
LINE
8
0
10
892.5682
20
468.0
30
0.0
11
903.15906
21
468.0
31
0.0
0
LINE
8
0
10
903.15906
20
468.0
30
0.0
11
913.75
21
476.0
31
0.0
0
LINE
8
0
10
913.75
20
476.0
30
0.0
11
903.15906
21
476.0
31
0.0
0
LINE
8
0
10
903.15906
20
476.0
30
0.0
11
903.15906
21
484.0
31
0.0
0
LINE
8
0
10
903.15906
20
484.0
30
0.0
11
913.75
21
492.0
31
0.0
0
LINE
8
0
10
913.75
20
492.0
30
0.0
11
903.15906
21
492.0
31
0.0
0
LINE
8
0
10
903.15906
20
492.0
30
0.0
11
903.15906
21
508.0
31
0.0
0
LINE
8
0
10
903.15906
20
508.0
30
0.0
11
892.5682
21
508.0
31
0.0
0
LINE
8
0
10
892.5682
20
508.0
30
0.0
11
892.5682
21
468.0
31
0.0
0
LINE
8
0
10
934.9318
20
484.0
30
0.0
11
945.5227
21
484.0
31
0.0
0
LINE
8
0
10
945.5227
20
484.0
30
0.0
11
956.11365
21
492.0
31
0.0
0
LINE
8
0
10
956.11365
20
492.0
30
0.0
11
956.11365
21
500.0
31
0.0
0
LINE
8
0
10
956.11365
20
500.0
30
0.0
11
945.5227
21
508.0
31
0.0
0
LINE
8
0
10
945.5227
20
508.0
30
0.0
11
934.9318
21
508.0
31
0.0
0
LINE
8
0
10
934.9318
20
508.0
30
0.0
11
924.3409
21
500.0
31
0.0
0
LINE
8
0
10
924.3409
20
500.0
30
0.0
11
924.3409
21
492.0
31
0.0
0
LINE
8
0
10
924.3409
20
492.0
30
0.0
11
934.9318
21
484.0
31
0.0
0
LINE
8
0
10
977.2955
20
484.0
30
0.0
11
987.88635
21
484.0
31
0.0
0
LINE
8
0
10
987.88635
20
484.0
30
0.0
11
998.47723
21
492.0
31
0.0
0
LINE
8
0
10
998.47723
20
492.0
30
0.0
11
987.88635
21
492.0
31
0.0
0
LINE
8
0
10
987.88635
20
492.0
30
0.0
11
977.2955
21
500.0
31
0.0
0
LINE
8
0
10
977.2955
20
500.0
30
0.0
11
977.2955
21
508.0
31
0.0
0
LINE
8
0
10
977.2955
20
508.0
30
0.0
11
966.7045
21
508.0
31
0.0
0
LINE
8
0
10
966.7045
20
508.0
30
0.0
11
966.7045
21
492.0
31
0.0
0
LINE
8
0
10
966.7045
20
492.0
30
0.0
11
977.2955
21
484.0
31
0.0
0
LINE
8
0
10
1009.0682
20
476.0
30
0.0
11
1019.6591
21
468.0
31
0.0
0
LINE
8
0
10
1019.6591
20
468.0
30
0.0
11
1030.25
21
468.0
31
0.0
0
LINE
8
0
10
1030.25
20
468.0
30
0.0
11
1019.6591
21
476.0
31
0.0
0
LINE
8
0
10
1019.6591
20
476.0
30
0.0
11
1019.6591
21
500.0
31
0.0
0
LINE
8
0
10
1019.6591
20
500.0
30
0.0
11
1030.25
21
508.0
31
0.0
0
LINE
8
0
10
1030.25
20
508.0
30
0.0
11
1019.6591
21
508.0
31
0.0
0
LINE
8
0
10
1019.6591
20
508.0
30
0.0
11
1009.0682
21
500.0
31
0.0
0
LINE
8
0
10
1009.0682
20
500.0
30
0.0
11
1009.0682
21
476.0
31
0.0
0
LINE
8
0
10
1040.8408
20
484.0
30
0.0
11
1051.4318
21
492.0
31
0.0
0
LINE
8
0
10
1051.4318
20
492.0
30
0.0
11
1062.0227
21
492.0
31
0.0
0
LINE
8
0
10
1062.0227
20
492.0
30
0.0
11
1072.6135
21
484.0
31
0.0
0
LINE
8
0
10
1072.6135
20
484.0
30
0.0
11
1072.6135
21
492.0
31
0.0
0
LINE
8
0
10
1072.6135
20
492.0
30
0.0
11
1062.0227
21
492.0
31
0.0
0
LINE
8
0
10
1062.0227
20
492.0
30
0.0
11
1062.0227
21
500.0
31
0.0
0
LINE
8
0
10
1062.0227
20
500.0
30
0.0
11
1072.6135
21
508.0
31
0.0
0
LINE
8
0
10
1072.6135
20
508.0
30
0.0
11
1062.0227
21
508.0
31
0.0
0
LINE
8
0
10
1062.0227
20
508.0
30
0.0
11
1062.0227
21
500.0
31
0.0
0
LINE
8
0
10
1062.0227
20
500.0
30
0.0
11
1051.4318
21
500.0
31
0.0
0
LINE
8
0
10
1051.4318
20
500.0
30
0.0
11
1051.4318
21
508.0
31
0.0
0
LINE
8
0
10
1051.4318
20
508.0
30
0.0
11
1040.8408
21
508.0
31
0.0
0
LINE
8
0
10
1040.8408
20
508.0
30
0.0
11
1051.4318
21
500.0
31
0.0
0
LINE
8
0
10
1051.4318
20
500.0
30
0.0
11
1051.4318
21
492.0
31
0.0
0
LINE
8
0
10
1051.4318
20
492.0
30
0.0
11
1040.8408
21
492.0
31
0.0
0
LINE
8
0
10
1040.8408
20
492.0
30
0.0
11
1040.8408
21
484.0
31
0.0
0
LINE
8
0
10
1083.2045
20
492.0
30
0.0
11
1093.7954
21
492.0
31
0.0
0
LINE
8
0
10
1093.7954
20
492.0
30
0.0
11
1093.7954
21
500.0
31
0.0
0
LINE
8
0
10
1093.7954
20
500.0
30
0.0
11
1083.2045
21
500.0
31
0.0
0
LINE
8
0
10
1083.2045
20
500.0
30
0.0
11
1083.2045
21
492.0
31
0.0
0
LINE
8
0
10
348.61362
20
542.0
30
0.0
11
359.20453
21
542.0
31
0.0
0
LINE
8
0
10
359.20453
20
542.0
30
0.0
11
369.79544
21
550.0
31
0.0
0
LINE
8
0
10
369.79544
20
550.0
30
0.0
11
369.79544
21
558.0
31
0.0
0
LINE
8
0
10
369.79544
20
558.0
30
0.0
11
348.61362
21
558.0
31
0.0
0
LINE
8
0
10
348.61362
20
558.0
30
0.0
11
359.20453
21
566.0
31
0.0
0
LINE
8
0
10
359.20453
20
566.0
30
0.0
11
348.61362
21
566.0
31
0.0
0
LINE
8
0
10
348.61362
20
566.0
30
0.0
11
338.0227
21
558.0
31
0.0
0
LINE
8
0
10
338.0227
20
558.0
30
0.0
11
338.0227
21
550.0
31
0.0
0
LINE
8
0
10
338.0227
20
550.0
30
0.0
11
348.61362
21
542.0
31
0.0
0
LINE
8
0
10
380.38635
20
526.0
30
0.0
11
390.97726
21
526.0
31
0.0
0
LINE
8
0
10
390.97726
20
526.0
30
0.0
11
390.97726
21
558.0
31
0.0
0
LINE
8
0
10
390.97726
20
558.0
30
0.0
11
401.56815
21
558.0
31
0.0
0
LINE
8
0
10
401.56815
20
558.0
30
0.0
11
401.56815
21
566.0
31
0.0
0
LINE
8
0
10
401.56815
20
566.0
30
0.0
11
380.38635
21
566.0
31
0.0
0
LINE
8
0
10
380.38635
20
566.0
30
0.0
11
380.38635
21
526.0
31
0.0
0
LINE
8
0
10
422.74997
20
542.0
30
0.0
11
433.34088
21
542.0
31
0.0
0
LINE
8
0
10
433.34088
20
542.0
30
0.0
11
443.9318
21
550.0
31
0.0
0
LINE
8
0
10
443.9318
20
550.0
30
0.0
11
433.34088
21
550.0
31
0.0
0
LINE
8
0
10
433.34088
20
550.0
30
0.0
11
443.9318
21
558.0
31
0.0
0
LINE
8
0
10
443.9318
20
558.0
30
0.0
11
433.34088
21
566.0
31
0.0
0
LINE
8
0
10
433.34088
20
566.0
30
0.0
11
422.74997
21
566.0
31
0.0
0
LINE
8
0
10
422.74997
20
566.0
30
0.0
11
412.15906
21
558.0
31
0.0
0
LINE
8
0
10
412.15906
20
558.0
30
0.0
11
422.74997
21
558.0
31
0.0
0
LINE
8
0
10
422.74997
20
558.0
30
0.0
11
412.15906
21
550.0
31
0.0
0
LINE
8
0
10
412.15906
20
550.0
30
0.0
11
422.74997
21
542.0
31
0.0
0
LINE
8
0
10
465.11362
20
542.0
30
0.0
11
475.70453
21
542.0
31
0.0
0
LINE
8
0
10
475.70453
20
542.0
30
0.0
11
486.29544
21
550.0
31
0.0
0
LINE
8
0
10
486.29544
20
550.0
30
0.0
11
486.29544
21
558.0
31
0.0
0
LINE
8
0
10
486.29544
20
558.0
30
0.0
11
465.11362
21
558.0
31
0.0
0
LINE
8
0
10
465.11362
20
558.0
30
0.0
11
475.70453
21
566.0
31
0.0
0
LINE
8
0
10
475.70453
20
566.0
30
0.0
11
465.11362
21
566.0
31
0.0
0
LINE
8
0
10
465.11362
20
566.0
30
0.0
11
454.5227
21
558.0
31
0.0
0
LINE
8
0
10
454.5227
20
558.0
30
0.0
11
454.5227
21
550.0
31
0.0
0
LINE
8
0
10
454.5227
20
550.0
30
0.0
11
465.11362
21
542.0
31
0.0
0
LINE
8
0
10
518.0682
20
534.0
30
0.0
11
528.6591
21
526.0
31
0.0
0
LINE
8
0
10
528.6591
20
526.0
30
0.0
11
539.25
21
526.0
31
0.0
0
LINE
8
0
10
539.25
20
526.0
30
0.0
11
528.6591
21
534.0
31
0.0
0
LINE
8
0
10
528.6591
20
534.0
30
0.0
11
528.6591
21
558.0
31
0.0
0
LINE
8
0
10
528.6591
20
558.0
30
0.0
11
539.25
21
566.0
31
0.0
0
LINE
8
0
10
539.25
20
566.0
30
0.0
11
528.6591
21
566.0
31
0.0
0
LINE
8
0
10
528.6591
20
566.0
30
0.0
11
518.0682
21
558.0
31
0.0
0
LINE
8
0
10
518.0682
20
558.0
30
0.0
11
518.0682
21
550.0
31
0.0
0
LINE
8
0
10
518.0682
20
550.0
30
0.0
11
507.47726
21
550.0
31
0.0
0
LINE
8
0
10
507.47726
20
550.0
30
0.0
11
518.0682
21
542.0
31
0.0
0
LINE
8
0
10
518.0682
20
542.0
30
0.0
11
518.0682
21
534.0
31
0.0
0
LINE
8
0
10
570.43176
20
542.0
30
0.0
11
581.0227
21
542.0
31
0.0
0
LINE
8
0
10
581.0227
20
542.0
30
0.0
11
591.6136
21
550.0
31
0.0
0
LINE
8
0
10
591.6136
20
550.0
30
0.0
11
591.6136
21
558.0
31
0.0
0
LINE
8
0
10
591.6136
20
558.0
30
0.0
11
570.43176
21
558.0
31
0.0
0
LINE
8
0
10
570.43176
20
558.0
30
0.0
11
581.0227
21
566.0
31
0.0
0
LINE
8
0
10
581.0227
20
566.0
30
0.0
11
570.43176
21
566.0
31
0.0
0
LINE
8
0
10
570.43176
20
566.0
30
0.0
11
559.8409
21
558.0
31
0.0
0
LINE
8
0
10
559.8409
20
558.0
30
0.0
11
559.8409
21
550.0
31
0.0
0
LINE
8
0
10
559.8409
20
550.0
30
0.0
11
570.43176
21
542.0
31
0.0
0
LINE
8
0
10
602.2045
20
526.0
30
0.0
11
612.7954
21
526.0
31
0.0
0
LINE
8
0
10
612.7954
20
526.0
30
0.0
11
612.7954
21
558.0
31
0.0
0
LINE
8
0
10
612.7954
20
558.0
30
0.0
11
623.38635
21
558.0
31
0.0
0
LINE
8
0
10
623.38635
20
558.0
30
0.0
11
623.38635
21
566.0
31
0.0
0
LINE
8
0
10
623.38635
20
566.0
30
0.0
11
602.2045
21
566.0
31
0.0
0
LINE
8
0
10
602.2045
20
566.0
30
0.0
11
602.2045
21
526.0
31
0.0
0
LINE
8
0
10
644.5682
20
542.0
30
0.0
11
655.15906
21
542.0
31
0.0
0
LINE
8
0
10
655.15906
20
542.0
30
0.0
11
665.74994
21
550.0
31
0.0
0
LINE
8
0
10
665.74994
20
550.0
30
0.0
11
655.15906
21
550.0
31
0.0
0
LINE
8
0
10
655.15906
20
550.0
30
0.0
11
665.74994
21
558.0
31
0.0
0
LINE
8
0
10
665.74994
20
558.0
30
0.0
11
655.15906
21
566.0
31
0.0
0
LINE
8
0
10
655.15906
20
566.0
30
0.0
11
644.5682
21
566.0
31
0.0
0
LINE
8
0
10
644.5682
20
566.0
30
0.0
11
633.97723
21
558.0
31
0.0
0
LINE
8
0
10
633.97723
20
558.0
30
0.0
11
644.5682
21
558.0
31
0.0
0
LINE
8
0
10
644.5682
20
558.0
30
0.0
11
633.97723
21
550.0
31
0.0
0
LINE
8
0
10
633.97723
20
550.0
30
0.0
11
644.5682
21
542.0
31
0.0
0
LINE
8
0
10
686.9318
20
542.0
30
0.0
11
697.5227
21
542.0
31
0.0
0
LINE
8
0
10
697.5227
20
542.0
30
0.0
11
708.1136
21
550.0
31
0.0
0
LINE
8
0
10
708.1136
20
550.0
30
0.0
11
708.1136
21
558.0
31
0.0
0
LINE
8
0
10
708.1136
20
558.0
30
0.0
11
686.9318
21
558.0
31
0.0
0
LINE
8
0
10
686.9318
20
558.0
30
0.0
11
697.5227
21
566.0
31
0.0
0
LINE
8
0
10
697.5227
20
566.0
30
0.0
11
686.9318
21
566.0
31
0.0
0
LINE
8
0
10
686.9318
20
566.0
30
0.0
11
676.3409
21
558.0
31
0.0
0
LINE
8
0
10
676.3409
20
558.0
30
0.0
11
676.3409
21
550.0
31
0.0
0
LINE
8
0
10
676.3409
20
550.0
30
0.0
11
686.9318
21
542.0
31
0.0
0
LINE
8
0
10
739.88635
20
534.0
30
0.0
11
750.47723
21
526.0
31
0.0
0
LINE
8
0
10
750.47723
20
526.0
30
0.0
11
761.0682
21
526.0
31
0.0
0
LINE
8
0
10
761.0682
20
526.0
30
0.0
11
750.47723
21
534.0
31
0.0
0
LINE
8
0
10
750.47723
20
534.0
30
0.0
11
750.47723
21
558.0
31
0.0
0
LINE
8
0
10
750.47723
20
558.0
30
0.0
11
761.0682
21
566.0
31
0.0
0
LINE
8
0
10
761.0682
20
566.0
30
0.0
11
750.47723
21
566.0
31
0.0
0
LINE
8
0
10
750.47723
20
566.0
30
0.0
11
739.88635
21
558.0
31
0.0
0
LINE
8
0
10
739.88635
20
558.0
30
0.0
11
739.88635
21
550.0
31
0.0
0
LINE
8
0
10
739.88635
20
550.0
30
0.0
11
729.2954
21
550.0
31
0.0
0
LINE
8
0
10
729.2954
20
550.0
30
0.0
11
739.88635
21
542.0
31
0.0
0
LINE
8
0
10
739.88635
20
542.0
30
0.0
11
739.88635
21
534.0
31
0.0
0
LINE
8
0
10
792.25
20
542.0
30
0.0
11
802.84094
21
542.0
31
0.0
0
LINE
8
0
10
802.84094
20
542.0
30
0.0
11
813.4318
21
550.0
31
0.0
0
LINE
8
0
10
813.4318
20
550.0
30
0.0
11
813.4318
21
558.0
31
0.0
0
LINE
8
0
10
813.4318
20
558.0
30
0.0
11
792.25
21
558.0
31
0.0
0
LINE
8
0
10
792.25
20
558.0
30
0.0
11
802.84094
21
566.0
31
0.0
0
LINE
8
0
10
802.84094
20
566.0
30
0.0
11
792.25
21
566.0
31
0.0
0
LINE
8
0
10
792.25
20
566.0
30
0.0
11
781.6591
21
558.0
31
0.0
0
LINE
8
0
10
781.6591
20
558.0
30
0.0
11
781.6591
21
550.0
31
0.0
0
LINE
8
0
10
781.6591
20
550.0
30
0.0
11
792.25
21
542.0
31
0.0
0
LINE
8
0
10
824.02277
20
526.0
30
0.0
11
834.61365
21
526.0
31
0.0
0
LINE
8
0
10
834.61365
20
526.0
30
0.0
11
834.61365
21
558.0
31
0.0
0
LINE
8
0
10
834.61365
20
558.0
30
0.0
11
845.2046
21
558.0
31
0.0
0
LINE
8
0
10
845.2046
20
558.0
30
0.0
11
845.2046
21
566.0
31
0.0
0
LINE
8
0
10
845.2046
20
566.0
30
0.0
11
824.02277
21
566.0
31
0.0
0
LINE
8
0
10
824.02277
20
566.0
30
0.0
11
824.02277
21
526.0
31
0.0
0
LINE
8
0
10
866.3864
20
542.0
30
0.0
11
876.9773
21
542.0
31
0.0
0
LINE
8
0
10
876.9773
20
542.0
30
0.0
11
887.5682
21
550.0
31
0.0
0
LINE
8
0
10
887.5682
20
550.0
30
0.0
11
876.9773
21
550.0
31
0.0
0
LINE
8
0
10
876.9773
20
550.0
30
0.0
11
887.5682
21
558.0
31
0.0
0
LINE
8
0
10
887.5682
20
558.0
30
0.0
11
876.9773
21
566.0
31
0.0
0
LINE
8
0
10
876.9773
20
566.0
30
0.0
11
866.3864
21
566.0
31
0.0
0
LINE
8
0
10
866.3864
20
566.0
30
0.0
11
855.7955
21
558.0
31
0.0
0
LINE
8
0
10
855.7955
20
558.0
30
0.0
11
866.3864
21
558.0
31
0.0
0
LINE
8
0
10
866.3864
20
558.0
30
0.0
11
855.7955
21
550.0
31
0.0
0
LINE
8
0
10
855.7955
20
550.0
30
0.0
11
866.3864
21
542.0
31
0.0
0
LINE
8
0
10
908.75006
20
542.0
30
0.0
11
919.34094
21
542.0
31
0.0
0
LINE
8
0
10
919.34094
20
542.0
30
0.0
11
929.9318
21
550.0
31
0.0
0
LINE
8
0
10
929.9318
20
550.0
30
0.0
11
929.9318
21
558.0
31
0.0
0
LINE
8
0
10
929.9318
20
558.0
30
0.0
11
908.75006
21
558.0
31
0.0
0
LINE
8
0
10
908.75006
20
558.0
30
0.0
11
919.34094
21
566.0
31
0.0
0
LINE
8
0
10
919.34094
20
566.0
30
0.0
11
908.75006
21
566.0
31
0.0
0
LINE
8
0
10
908.75006
20
566.0
30
0.0
11
898.1591
21
558.0
31
0.0
0
LINE
8
0
10
898.1591
20
558.0
30
0.0
11
898.1591
21
550.0
31
0.0
0
LINE
8
0
10
898.1591
20
550.0
30
0.0
11
908.75006
21
542.0
31
0.0
0
LINE
8
0
10
961.7046
20
534.0
30
0.0
11
972.2955
21
526.0
31
0.0
0
LINE
8
0
10
972.2955
20
526.0
30
0.0
11
982.8864
21
526.0
31
0.0
0
LINE
8
0
10
982.8864
20
526.0
30
0.0
11
972.2955
21
534.0
31
0.0
0
LINE
8
0
10
972.2955
20
534.0
30
0.0
11
972.2955
21
558.0
31
0.0
0
LINE
8
0
10
972.2955
20
558.0
30
0.0
11
982.8864
21
566.0
31
0.0
0
LINE
8
0
10
982.8864
20
566.0
30
0.0
11
972.2955
21
566.0
31
0.0
0
LINE
8
0
10
972.2955
20
566.0
30
0.0
11
961.7046
21
558.0
31
0.0
0
LINE
8
0
10
961.7046
20
558.0
30
0.0
11
961.7046
21
550.0
31
0.0
0
LINE
8
0
10
961.7046
20
550.0
30
0.0
11
951.11365
21
550.0
31
0.0
0
LINE
8
0
10
951.11365
20
550.0
30
0.0
11
961.7046
21
542.0
31
0.0
0
LINE
8
0
10
961.7046
20
542.0
30
0.0
11
961.7046
21
534.0
31
0.0
0
LINE
8
0
10
448.9318
20
584.0
30
0.0
11
459.5227
21
584.0
31
0.0
0
LINE
8
0
10
459.5227
20
584.0
30
0.0
11
470.11362
21
592.0
31
0.0
0
LINE
8
0
10
470.11362
20
592.0
30
0.0
11
459.5227
21
592.0
31
0.0
0
LINE
8
0
10
459.5227
20
592.0
30
0.0
11
459.5227
21
600.0
31
0.0
0
LINE
8
0
10
459.5227
20
600.0
30
0.0
11
470.11362
21
608.0
31
0.0
0
LINE
8
0
10
470.11362
20
608.0
30
0.0
11
459.5227
21
608.0
31
0.0
0
LINE
8
0
10
459.5227
20
608.0
30
0.0
11
459.5227
21
624.0
31
0.0
0
LINE
8
0
10
459.5227
20
624.0
30
0.0
11
448.9318
21
624.0
31
0.0
0
LINE
8
0
10
448.9318
20
624.0
30
0.0
11
448.9318
21
584.0
31
0.0
0
LINE
8
0
10
491.29544
20
600.0
30
0.0
11
501.88632
21
600.0
31
0.0
0
LINE
8
0
10
501.88632
20
600.0
30
0.0
11
512.4773
21
608.0
31
0.0
0
LINE
8
0
10
512.4773
20
608.0
30
0.0
11
512.4773
21
616.0
31
0.0
0
LINE
8
0
10
512.4773
20
616.0
30
0.0
11
501.88632
21
624.0
31
0.0
0
LINE
8
0
10
501.88632
20
624.0
30
0.0
11
491.29544
21
624.0
31
0.0
0
LINE
8
0
10
491.29544
20
624.0
30
0.0
11
480.70453
21
616.0
31
0.0
0
LINE
8
0
10
480.70453
20
616.0
30
0.0
11
480.70453
21
608.0
31
0.0
0
LINE
8
0
10
480.70453
20
608.0
30
0.0
11
491.29544
21
600.0
31
0.0
0
LINE
8
0
10
533.6591
20
600.0
30
0.0
11
544.25
21
600.0
31
0.0
0
LINE
8
0
10
544.25
20
600.0
30
0.0
11
554.8409
21
608.0
31
0.0
0
LINE
8
0
10
554.8409
20
608.0
30
0.0
11
544.25
21
608.0
31
0.0
0
LINE
8
0
10
544.25
20
608.0
30
0.0
11
533.6591
21
616.0
31
0.0
0
LINE
8
0
10
533.6591
20
616.0
30
0.0
11
533.6591
21
624.0
31
0.0
0
LINE
8
0
10
533.6591
20
624.0
30
0.0
11
523.0682
21
624.0
31
0.0
0
LINE
8
0
10
523.0682
20
624.0
30
0.0
11
523.0682
21
608.0
31
0.0
0
LINE
8
0
10
523.0682
20
608.0
30
0.0
11
533.6591
21
600.0
31
0.0
0
LINE
8
0
10
565.4318
20
592.0
30
0.0
11
576.02277
21
584.0
31
0.0
0
LINE
8
0
10
576.02277
20
584.0
30
0.0
11
586.61365
21
584.0
31
0.0
0
LINE
8
0
10
586.61365
20
584.0
30
0.0
11
576.02277
21
592.0
31
0.0
0
LINE
8
0
10
576.02277
20
592.0
30
0.0
11
576.02277
21
616.0
31
0.0
0
LINE
8
0
10
576.02277
20
616.0
30
0.0
11
586.61365
21
624.0
31
0.0
0
LINE
8
0
10
586.61365
20
624.0
30
0.0
11
576.02277
21
624.0
31
0.0
0
LINE
8
0
10
576.02277
20
624.0
30
0.0
11
565.4318
21
616.0
31
0.0
0
LINE
8
0
10
565.4318
20
616.0
30
0.0
11
565.4318
21
592.0
31
0.0
0
LINE
8
0
10
597.2045
20
600.0
30
0.0
11
607.7955
21
608.0
31
0.0
0
LINE
8
0
10
607.7955
20
608.0
30
0.0
11
618.38635
21
608.0
31
0.0
0
LINE
8
0
10
618.38635
20
608.0
30
0.0
11
628.9773
21
600.0
31
0.0
0
LINE
8
0
10
628.9773
20
600.0
30
0.0
11
628.9773
21
608.0
31
0.0
0
LINE
8
0
10
628.9773
20
608.0
30
0.0
11
618.38635
21
608.0
31
0.0
0
LINE
8
0
10
618.38635
20
608.0
30
0.0
11
618.38635
21
616.0
31
0.0
0
LINE
8
0
10
618.38635
20
616.0
30
0.0
11
628.9773
21
624.0
31
0.0
0
LINE
8
0
10
628.9773
20
624.0
30
0.0
11
618.38635
21
624.0
31
0.0
0
LINE
8
0
10
618.38635
20
624.0
30
0.0
11
618.38635
21
616.0
31
0.0
0
LINE
8
0
10
618.38635
20
616.0
30
0.0
11
607.7955
21
616.0
31
0.0
0
LINE
8
0
10
607.7955
20
616.0
30
0.0
11
607.7955
21
624.0
31
0.0
0
LINE
8
0
10
607.7955
20
624.0
30
0.0
11
597.2045
21
624.0
31
0.0
0
LINE
8
0
10
597.2045
20
624.0
30
0.0
11
607.7955
21
616.0
31
0.0
0
LINE
8
0
10
607.7955
20
616.0
30
0.0
11
607.7955
21
608.0
31
0.0
0
LINE
8
0
10
607.7955
20
608.0
30
0.0
11
597.2045
21
608.0
31
0.0
0
LINE
8
0
10
597.2045
20
608.0
30
0.0
11
597.2045
21
600.0
31
0.0
0
LINE
8
0
10
639.5682
20
608.0
30
0.0
11
650.1591
21
608.0
31
0.0
0
LINE
8
0
10
650.1591
20
608.0
30
0.0
11
650.1591
21
616.0
31
0.0
0
LINE
8
0
10
650.1591
20
616.0
30
0.0
11
639.5682
21
616.0
31
0.0
0
LINE
8
0
10
639.5682
20
616.0
30
0.0
11
639.5682
21
608.0
31
0.0
0
LINE
8
0
10
681.3409
20
600.0
30
0.0
11
691.9318
21
600.0
31
0.0
0
LINE
8
0
10
691.9318
20
600.0
30
0.0
11
702.5227
21
608.0
31
0.0
0
LINE
8
0
10
702.5227
20
608.0
30
0.0
11
702.5227
21
616.0
31
0.0
0
LINE
8
0
10
702.5227
20
616.0
30
0.0
11
681.3409
21
616.0
31
0.0
0
LINE
8
0
10
681.3409
20
616.0
30
0.0
11
691.9318
21
624.0
31
0.0
0
LINE
8
0
10
691.9318
20
624.0
30
0.0
11
681.3409
21
624.0
31
0.0
0
LINE
8
0
10
681.3409
20
624.0
30
0.0
11
670.75
21
616.0
31
0.0
0
LINE
8
0
10
670.75
20
616.0
30
0.0
11
670.75
21
608.0
31
0.0
0
LINE
8
0
10
670.75
20
608.0
30
0.0
11
681.3409
21
600.0
31
0.0
0
LINE
8
0
10
713.11365
20
584.0
30
0.0
11
723.7045
21
584.0
31
0.0
0
LINE
8
0
10
723.7045
20
584.0
30
0.0
11
723.7045
21
616.0
31
0.0
0
LINE
8
0
10
723.7045
20
616.0
30
0.0
11
734.2955
21
616.0
31
0.0
0
LINE
8
0
10
734.2955
20
616.0
30
0.0
11
734.2955
21
624.0
31
0.0
0
LINE
8
0
10
734.2955
20
624.0
30
0.0
11
713.11365
21
624.0
31
0.0
0
LINE
8
0
10
713.11365
20
624.0
30
0.0
11
713.11365
21
584.0
31
0.0
0
LINE
8
0
10
755.4773
20
600.0
30
0.0
11
766.0682
21
600.0
31
0.0
0
LINE
8
0
10
766.0682
20
600.0
30
0.0
11
776.6591
21
608.0
31
0.0
0
LINE
8
0
10
776.6591
20
608.0
30
0.0
11
766.0682
21
608.0
31
0.0
0
LINE
8
0
10
766.0682
20
608.0
30
0.0
11
776.6591
21
616.0
31
0.0
0
LINE
8
0
10
776.6591
20
616.0
30
0.0
11
766.0682
21
624.0
31
0.0
0
LINE
8
0
10
766.0682
20
624.0
30
0.0
11
755.4773
21
624.0
31
0.0
0
LINE
8
0
10
755.4773
20
624.0
30
0.0
11
744.88635
21
616.0
31
0.0
0
LINE
8
0
10
744.88635
20
616.0
30
0.0
11
755.4773
21
616.0
31
0.0
0
LINE
8
0
10
755.4773
20
616.0
30
0.0
11
744.88635
21
608.0
31
0.0
0
LINE
8
0
10
744.88635
20
608.0
30
0.0
11
755.4773
21
600.0
31
0.0
0
LINE
8
0
10
797.8409
20
600.0
30
0.0
11
808.4318
21
600.0
31
0.0
0
LINE
8
0
10
808.4318
20
600.0
30
0.0
11
819.0227
21
608.0
31
0.0
0
LINE
8
0
10
819.0227
20
608.0
30
0.0
11
819.0227
21
616.0
31
0.0
0
LINE
8
0
10
819.0227
20
616.0
30
0.0
11
797.8409
21
616.0
31
0.0
0
LINE
8
0
10
797.8409
20
616.0
30
0.0
11
808.4318
21
624.0
31
0.0
0
LINE
8
0
10
808.4318
20
624.0
30
0.0
11
797.8409
21
624.0
31
0.0
0
LINE
8
0
10
797.8409
20
624.0
30
0.0
11
787.25
21
616.0
31
0.0
0
LINE
8
0
10
787.25
20
616.0
30
0.0
11
787.25
21
608.0
31
0.0
0
LINE
8
0
10
787.25
20
608.0
30
0.0
11
797.8409
21
600.0
31
0.0
0
LINE
8
0
10
850.7955
20
592.0
30
0.0
11
861.38635
21
584.0
31
0.0
0
LINE
8
0
10
861.38635
20
584.0
30
0.0
11
871.97723
21
584.0
31
0.0
0
LINE
8
0
10
871.97723
20
584.0
30
0.0
11
861.38635
21
592.0
31
0.0
0
LINE
8
0
10
861.38635
20
592.0
30
0.0
11
861.38635
21
616.0
31
0.0
0
LINE
8
0
10
861.38635
20
616.0
30
0.0
11
871.97723
21
624.0
31
0.0
0
LINE
8
0
10
871.97723
20
624.0
30
0.0
11
861.38635
21
624.0
31
0.0
0
LINE
8
0
10
861.38635
20
624.0
30
0.0
11
850.7955
21
616.0
31
0.0
0
LINE
8
0
10
850.7955
20
616.0
30
0.0
11
850.7955
21
608.0
31
0.0
0
LINE
8
0
10
850.7955
20
608.0
30
0.0
11
840.2045
21
608.0
31
0.0
0
LINE
8
0
10
840.2045
20
608.0
30
0.0
11
850.7955
21
600.0
31
0.0
0
LINE
8
0
10
850.7955
20
600.0
30
0.0
11
850.7955
21
592.0
31
0.0
0
LINE
8
0
10
559.8409
20
650.0
30
0.0
11
570.43176
21
650.0
31
0.0
0
LINE
8
0
10
570.43176
20
650.0
30
0.0
11
570.43176
21
658.0
31
0.0
0
LINE
8
0
10
570.43176
20
658.0
30
0.0
11
559.8409
21
658.0
31
0.0
0
LINE
8
0
10
559.8409
20
658.0
30
0.0
11
559.8409
21
650.0
31
0.0
0
LINE
8
0
10
559.8409
20
666.0
30
0.0
11
570.43176
21
666.0
31
0.0
0
LINE
8
0
10
570.43176
20
666.0
30
0.0
11
570.43176
21
682.0
31
0.0
0
LINE
8
0
10
570.43176
20
682.0
30
0.0
11
559.8409
21
682.0
31
0.0
0
LINE
8
0
10
559.8409
20
682.0
30
0.0
11
559.8409
21
666.0
31
0.0
0
LINE
8
0
10
581.0227
20
642.0
30
0.0
11
591.6136
21
642.0
31
0.0
0
LINE
8
0
10
591.6136
20
642.0
30
0.0
11
602.2045
21
650.0
31
0.0
0
LINE
8
0
10
602.2045
20
650.0
30
0.0
11
591.6136
21
650.0
31
0.0
0
LINE
8
0
10
591.6136
20
650.0
30
0.0
11
591.6136
21
658.0
31
0.0
0
LINE
8
0
10
591.6136
20
658.0
30
0.0
11
602.2045
21
666.0
31
0.0
0
LINE
8
0
10
602.2045
20
666.0
30
0.0
11
591.6136
21
666.0
31
0.0
0
LINE
8
0
10
591.6136
20
666.0
30
0.0
11
591.6136
21
682.0
31
0.0
0
LINE
8
0
10
591.6136
20
682.0
30
0.0
11
581.0227
21
682.0
31
0.0
0
LINE
8
0
10
581.0227
20
682.0
30
0.0
11
581.0227
21
642.0
31
0.0
0
LINE
8
0
10
612.7954
20
650.0
30
0.0
11
623.38635
21
642.0
31
0.0
0
LINE
8
0
10
623.38635
20
642.0
30
0.0
11
633.97723
21
642.0
31
0.0
0
LINE
8
0
10
633.97723
20
642.0
30
0.0
11
623.38635
21
650.0
31
0.0
0
LINE
8
0
10
623.38635
20
650.0
30
0.0
11
623.38635
21
674.0
31
0.0
0
LINE
8
0
10
623.38635
20
674.0
30
0.0
11
633.97723
21
682.0
31
0.0
0
LINE
8
0
10
633.97723
20
682.0
30
0.0
11
623.38635
21
682.0
31
0.0
0
LINE
8
0
10
623.38635
20
682.0
30
0.0
11
612.7954
21
674.0
31
0.0
0
LINE
8
0
10
612.7954
20
674.0
30
0.0
11
612.7954
21
650.0
31
0.0
0
LINE
8
0
10
644.5682
20
658.0
30
0.0
11
655.15906
21
666.0
31
0.0
0
LINE
8
0
10
655.15906
20
666.0
30
0.0
11
665.74994
21
666.0
31
0.0
0
LINE
8
0
10
665.74994
20
666.0
30
0.0
11
676.3409
21
658.0
31
0.0
0
LINE
8
0
10
676.3409
20
658.0
30
0.0
11
676.3409
21
666.0
31
0.0
0
LINE
8
0
10
676.3409
20
666.0
30
0.0
11
665.74994
21
666.0
31
0.0
0
LINE
8
0
10
665.74994
20
666.0
30
0.0
11
665.74994
21
674.0
31
0.0
0
LINE
8
0
10
665.74994
20
674.0
30
0.0
11
676.3409
21
682.0
31
0.0
0
LINE
8
0
10
676.3409
20
682.0
30
0.0
11
665.74994
21
682.0
31
0.0
0
LINE
8
0
10
665.74994
20
682.0
30
0.0
11
665.74994
21
674.0
31
0.0
0
LINE
8
0
10
665.74994
20
674.0
30
0.0
11
655.15906
21
674.0
31
0.0
0
LINE
8
0
10
655.15906
20
674.0
30
0.0
11
655.15906
21
682.0
31
0.0
0
LINE
8
0
10
655.15906
20
682.0
30
0.0
11
644.5682
21
682.0
31
0.0
0
LINE
8
0
10
644.5682
20
682.0
30
0.0
11
655.15906
21
674.0
31
0.0
0
LINE
8
0
10
655.15906
20
674.0
30
0.0
11
655.15906
21
666.0
31
0.0
0
LINE
8
0
10
655.15906
20
666.0
30
0.0
11
644.5682
21
666.0
31
0.0
0
LINE
8
0
10
644.5682
20
666.0
30
0.0
11
644.5682
21
658.0
31
0.0
0
LINE
8
0
10
686.9318
20
642.0
30
0.0
11
697.5227
21
642.0
31
0.0
0
LINE
8
0
10
697.5227
20
642.0
30
0.0
11
697.5227
21
666.0
31
0.0
0
LINE
8
0
10
697.5227
20
666.0
30
0.0
11
686.9318
21
666.0
31
0.0
0
LINE
8
0
10
686.9318
20
666.0
30
0.0
11
686.9318
21
642.0
31
0.0
0
LINE
8
0
10
686.9318
20
674.0
30
0.0
11
697.5227
21
674.0
31
0.0
0
LINE
8
0
10
697.5227
20
674.0
30
0.0
11
697.5227
21
682.0
31
0.0
0
LINE
8
0
10
697.5227
20
682.0
30
0.0
11
686.9318
21
682.0
31
0.0
0
LINE
8
0
10
686.9318
20
682.0
30
0.0
11
686.9318
21
674.0
31
0.0
0
LINE
8
0
10
708.1136
20
658.0
30
0.0
11
729.2954
21
658.0
31
0.0
0
LINE
8
0
10
729.2954
20
658.0
30
0.0
11
729.2954
21
666.0
31
0.0
0
LINE
8
0
10
729.2954
20
666.0
30
0.0
11
708.1136
21
666.0
31
0.0
0
LINE
8
0
10
708.1136
20
666.0
30
0.0
11
708.1136
21
658.0
31
0.0
0
LINE
8
0
10
708.1136
20
674.0
30
0.0
11
729.2954
21
674.0
31
0.0
0
LINE
8
0
10
729.2954
20
674.0
30
0.0
11
729.2954
21
682.0
31
0.0
0
LINE
8
0
10
729.2954
20
682.0
30
0.0
11
708.1136
21
682.0
31
0.0
0
LINE
8
0
10
708.1136
20
682.0
30
0.0
11
708.1136
21
674.0
31
0.0
0
LINE
8
0
10
750.47723
20
658.0
30
0.0
11
761.0682
21
658.0
31
0.0
0
LINE
8
0
10
761.0682
20
658.0
30
0.0
11
761.0682
21
682.0
31
0.0
0
LINE
8
0
10
761.0682
20
682.0
30
0.0
11
750.47723
21
682.0
31
0.0
0
LINE
8
0
10
750.47723
20
682.0
30
0.0
11
750.47723
21
666.0
31
0.0
0
LINE
8
0
10
750.47723
20
666.0
30
0.0
11
739.88635
21
666.0
31
0.0
0
LINE
8
0
10
739.88635
20
666.0
30
0.0
11
750.47723
21
658.0
31
0.0
0
LINE
8
0
10
459.5227
20
716.0
30
0.0
11
470.11362
21
716.0
31
0.0
0
LINE
8
0
10
470.11362
20
716.0
30
0.0
11
480.70453
21
724.0
31
0.0
0
LINE
8
0
10
480.70453
20
724.0
30
0.0
11
480.70453
21
732.0
31
0.0
0
LINE
8
0
10
480.70453
20
732.0
30
0.0
11
459.5227
21
732.0
31
0.0
0
LINE
8
0
10
459.5227
20
732.0
30
0.0
11
470.11362
21
740.0
31
0.0
0
LINE
8
0
10
470.11362
20
740.0
30
0.0
11
459.5227
21
740.0
31
0.0
0
LINE
8
0
10
459.5227
20
740.0
30
0.0
11
448.9318
21
732.0
31
0.0
0
LINE
8
0
10
448.9318
20
732.0
30
0.0
11
448.9318
21
724.0
31
0.0
0
LINE
8
0
10
448.9318
20
724.0
30
0.0
11
459.5227
21
716.0
31
0.0
0
LINE
8
0
10
491.29544
20
700.0
30
0.0
11
501.88632
21
700.0
31
0.0
0
LINE
8
0
10
501.88632
20
700.0
30
0.0
11
501.88632
21
732.0
31
0.0
0
LINE
8
0
10
501.88632
20
732.0
30
0.0
11
512.4773
21
732.0
31
0.0
0
LINE
8
0
10
512.4773
20
732.0
30
0.0
11
512.4773
21
740.0
31
0.0
0
LINE
8
0
10
512.4773
20
740.0
30
0.0
11
491.29544
21
740.0
31
0.0
0
LINE
8
0
10
491.29544
20
740.0
30
0.0
11
491.29544
21
700.0
31
0.0
0
LINE
8
0
10
533.6591
20
716.0
30
0.0
11
544.25
21
716.0
31
0.0
0
LINE
8
0
10
544.25
20
716.0
30
0.0
11
554.8409
21
724.0
31
0.0
0
LINE
8
0
10
554.8409
20
724.0
30
0.0
11
544.25
21
724.0
31
0.0
0
LINE
8
0
10
544.25
20
724.0
30
0.0
11
554.8409
21
732.0
31
0.0
0
LINE
8
0
10
554.8409
20
732.0
30
0.0
11
544.25
21
740.0
31
0.0
0
LINE
8
0
10
544.25
20
740.0
30
0.0
11
533.6591
21
740.0
31
0.0
0
LINE
8
0
10
533.6591
20
740.0
30
0.0
11
523.0682
21
732.0
31
0.0
0
LINE
8
0
10
523.0682
20
732.0
30
0.0
11
533.6591
21
732.0
31
0.0
0
LINE
8
0
10
533.6591
20
732.0
30
0.0
11
523.0682
21
724.0
31
0.0
0
LINE
8
0
10
523.0682
20
724.0
30
0.0
11
533.6591
21
716.0
31
0.0
0
LINE
8
0
10
576.02277
20
716.0
30
0.0
11
586.61365
21
716.0
31
0.0
0
LINE
8
0
10
586.61365
20
716.0
30
0.0
11
597.2045
21
724.0
31
0.0
0
LINE
8
0
10
597.2045
20
724.0
30
0.0
11
597.2045
21
732.0
31
0.0
0
LINE
8
0
10
597.2045
20
732.0
30
0.0
11
576.02277
21
732.0
31
0.0
0
LINE
8
0
10
576.02277
20
732.0
30
0.0
11
586.61365
21
740.0
31
0.0
0
LINE
8
0
10
586.61365
20
740.0
30
0.0
11
576.02277
21
740.0
31
0.0
0
LINE
8
0
10
576.02277
20
740.0
30
0.0
11
565.4318
21
732.0
31
0.0
0
LINE
8
0
10
565.4318
20
732.0
30
0.0
11
565.4318
21
724.0
31
0.0
0
LINE
8
0
10
565.4318
20
724.0
30
0.0
11
576.02277
21
716.0
31
0.0
0
LINE
8
0
10
628.9773
20
708.0
30
0.0
11
639.5682
21
700.0
31
0.0
0
LINE
8
0
10
639.5682
20
700.0
30
0.0
11
650.1591
21
700.0
31
0.0
0
LINE
8
0
10
650.1591
20
700.0
30
0.0
11
639.5682
21
708.0
31
0.0
0
LINE
8
0
10
639.5682
20
708.0
30
0.0
11
639.5682
21
732.0
31
0.0
0
LINE
8
0
10
639.5682
20
732.0
30
0.0
11
650.1591
21
740.0
31
0.0
0
LINE
8
0
10
650.1591
20
740.0
30
0.0
11
639.5682
21
740.0
31
0.0
0
LINE
8
0
10
639.5682
20
740.0
30
0.0
11
628.9773
21
732.0
31
0.0
0
LINE
8
0
10
628.9773
20
732.0
30
0.0
11
628.9773
21
724.0
31
0.0
0
LINE
8
0
10
628.9773
20
724.0
30
0.0
11
618.38635
21
724.0
31
0.0
0
LINE
8
0
10
618.38635
20
724.0
30
0.0
11
628.9773
21
716.0
31
0.0
0
LINE
8
0
10
628.9773
20
716.0
30
0.0
11
628.9773
21
708.0
31
0.0
0
ENDSEC
0
EOF
